{
.appVersion = "1364";
classes = (
{
automatic = 1;

glyphs = (
{
color = 4;
glyphname = A;
lastChange = "2023-07-14 09:45:09 +0000";
layers = (
{
anchors = (
{
name = bottom;
position = "{213, -3}";
},
{
name = ogonek;
position = "{416, 0}";
},
{
name = top;
position = "{368, 730}";
}
);
layerId = "7C079D0C-96CD-4BD8-8800-0621C7635A78";
paths = (
{
closed = 1;
nodes = (
"34 0 LINE",
"354 659 LINE",
"394 0 LINE",
"440 0 LINE",
"393 727 LINE",
"342 727 LINE",
"-15 0 LINE"
);
},
{
closed = 1;
nodes = (
"400 196 LINE",
"398 238 LINE",
"129 238 LINE",
"109 196 LINE"
);
}
);
width = 545;
},
{
anchors = (
{
name = bottom;
position = "{213, -3}";
},
{
name = ogonek;
position = "{411, 0}";
},
{
name = top;
position = "{368, 730}";
}
);
layerId = "291433DC-531A-45CC-B814-57D397372F12";
paths = (
{
closed = 1;
nodes = (
"56 0 LINE",
"336 574 LINE",
"371 0 LINE",
"463 0 LINE",
"415 727 LINE",
"318 727 LINE",
"-39 0 LINE"
);
},
{
closed = 1;
nodes = (
"424 175 LINE",
"420 259 LINE",
"115 259 LINE",
"75 175 LINE"
);
}
);
width = 545;
}
);
unicode = 0041;
},
{
color = 4;
glyphname = AE;
lastChange = "2023-07-14 09:45:09 +0000";
layers = (
{
anchors = (
{
name = bottom;
position = "{213, 0}";
},
{
name = top;
position = "{367, 727}";
}
);
layerId = "7C079D0C-96CD-4BD8-8800-0621C7635A78";
paths = (
{
closed = 1;
nodes = (
"-5 0 LINE",
"325 685 LINE",
"368 685 LINE",
"222 0 LINE",
"474 0 LINE",
"483 42 LINE",
"276 42 LINE",
"336 322 LINE",
"470 322 LINE",
"478 364 LINE",
"345 364 LINE",
"414 685 LINE",
"620 685 LINE",
"628 727 LINE",
"297 727 LINE",
"-54 0 LINE"
);
},
{
closed = 1;
nodes = (
"298 238 LINE",
"307 280 LINE",
"107 280 LINE",
"88 238 LINE"
);
}
);
width = 545;
},
{
anchors = (
{
name = bottom;
position = "{213, 0}";
},
{
name = top;
position = "{367, 727}";
}
);
layerId = "291433DC-531A-45CC-B814-57D397372F12";
paths = (
{
closed = 1;
nodes = (
"35 0 LINE",
"335 644 LINE",
"336 644 LINE",
"199 0 LINE",
"478 0 LINE",
"496 84 LINE",
"308 84 LINE",
"355 301 LINE",
"479 301 LINE",
"496 385 LINE",
"372 385 LINE",
"427 644 LINE",
"615 644 LINE",
"633 727 LINE",
"278 727 LINE",
"-58 0 LINE"
);
},
{
closed = 1;
nodes = (
"316 217 LINE",
"335 301 LINE",
"116 301 LINE",
"76 217 LINE"
);
}
);
width = 545;
}
);
unicode = 00C6;
},
{
color = 4;
glyphname = B;
lastChange = "2023-07-14 09:45:09 +0000";
layers = (
{
anchors = (
{
name = bottom;
position = "{213, 0}";
},
{
name = top;
position = "{367, 727}";
}
);
layerId = "7C079D0C-96CD-4BD8-8800-0621C7635A78";
paths = (
{
closed = 1;
nodes = (
"223 0 LINE SMOOTH",
"371 0 OFFCURVE",
"426 47 OFFCURVE",
"459 200 CURVE SMOOTH",
"485 318 OFFCURVE",
"465 364 OFFCURVE",
"384 388 CURVE",
"462 415 OFFCURVE",
"490 452 OFFCURVE",
"509 544 CURVE SMOOTH",
"539 682 OFFCURVE",
"499 727 OFFCURVE",
"351 727 CURVE SMOOTH",
"180 727 LINE",
"25 0 LINE"
);
},
{
closed = 1;
nodes = (
"148 364 LINE",
"300 364 LINE SMOOTH",
"414 364 OFFCURVE",
"441 327 OFFCURVE",
"415 207 CURVE SMOOTH",
"389 83 OFFCURVE",
"342 42 OFFCURVE",
"228 42 CURVE SMOOTH",
"80 42 LINE"
);
},
{
closed = 1;
nodes = (
"217 685 LINE",
"346 685 LINE SMOOTH",
"460 685 OFFCURVE",
"487 655 OFFCURVE",
"465 551 CURVE SMOOTH",
"442 441 OFFCURVE",
"396 405 OFFCURVE",
"283 405 CURVE SMOOTH",
"157 405 LINE"
);
}
);
width = 545;
},
{
anchors = (
{
name = bottom;
position = "{213, 0}";
},
{
name = top;
position = "{367, 727}";
}
);
layerId = "291433DC-531A-45CC-B814-57D397372F12";
paths = (
{
closed = 1;
nodes = (
"225 0 LINE SMOOTH",
"387 0 OFFCURVE",
"451 55 OFFCURVE",
"484 206 CURVE SMOOTH",
"505 313 OFFCURVE",
"490 359 OFFCURVE",
"437 388 CURVE",
"493 420 OFFCURVE",
"513 454 OFFCURVE",
"529 530 CURVE SMOOTH",
"559 671 OFFCURVE",
"510 727 OFFCURVE",
"349 727 CURVE SMOOTH",
"157 727 LINE",
"3 0 LINE"
);
},
{
closed = 1;
nodes = (
"166 343 LINE",
"298 343 LINE SMOOTH",
"398 343 OFFCURVE",
"418 328 OFFCURVE",
"395 221 CURVE SMOOTH",
"373 116 OFFCURVE",
"335 84 OFFCURVE",
"235 84 CURVE SMOOTH",
"112 84 LINE"
);
},
{
closed = 1;
nodes = (
"231 644 LINE",
"339 644 LINE SMOOTH",
"441 644 OFFCURVE",
"458 623 OFFCURVE",
"442 545 CURVE SMOOTH",
"420 445 OFFCURVE",
"386 426 OFFCURVE",
"285 426 CURVE SMOOTH",
"185 426 LINE"
);
}
);
width = 545;
}
);
unicode = 0042;
},
{
color = 4;
glyphname = C;
lastChange = "2023-07-14 09:45:09 +0000";
layers = (
{
anchors = (
{
name = bottom;
position = "{213, 0}";
},
{
name = top;
position = "{367, 727}";
}
);
layerId = "7C079D0C-96CD-4BD8-8800-0621C7635A78";
paths = (
{
closed = 1;
nodes = (
"335 -13 OFFCURVE",
"387 20 OFFCURVE",
"446 131 CURVE",
"405 149 LINE",
"355 59 OFFCURVE",
"314 29 OFFCURVE",
"229 29 CURVE SMOOTH",
"99 29 OFFCURVE",
"76 108 OFFCURVE",
"130 361 CURVE SMOOTH",
"184 616 OFFCURVE",
"245 698 OFFCURVE",
"379 698 CURVE SMOOTH",
"460 698 OFFCURVE",
"487 671 OFFCURVE",
"497 579 CURVE",
"543 591 LINE",
"531 703 OFFCURVE",
"491 740 OFFCURVE",
"380 740 CURVE SMOOTH",
"215 740 OFFCURVE",
"146 652 OFFCURVE",
"85 368 CURVE SMOOTH",
"25 80 OFFCURVE",
"59 -13 OFFCURVE",
"228 -13 CURVE SMOOTH"
);
}
);
width = 545;
},
{
anchors = (
{
name = bottom;
position = "{213, 0}";
},
{
name = top;
position = "{367, 727}";
}
);
layerId = "291433DC-531A-45CC-B814-57D397372F12";
paths = (
{
closed = 1;
nodes = (
"355 -13 OFFCURVE",
"414 29 OFFCURVE",
"481 163 CURVE",
"399 199 LINE",
"348 99 OFFCURVE",
"315 71 OFFCURVE",
"235 71 CURVE SMOOTH",
"124 71 OFFCURVE",
"105 137 OFFCURVE",
"152 357 CURVE SMOOTH",
"200 584 OFFCURVE",
"255 656 OFFCURVE",
"374 656 CURVE SMOOTH",
"447 656 OFFCURVE",
"465 635 OFFCURVE",
"473 533 CURVE",
"562 555 LINE",
"553 690 OFFCURVE",
"505 740 OFFCURVE",
"376 740 CURVE SMOOTH",
"198 740 OFFCURVE",
"122 643 OFFCURVE",
"64 372 CURVE SMOOTH",
"5 93 OFFCURVE",
"46 -13 OFFCURVE",
"232 -13 CURVE SMOOTH"
);
}
);
width = 545;
}
);
unicode = 0043;
},
{
color = 4;
glyphname = D;
lastChange = "2023-07-14 09:45:09 +0000";
layers = (
{
anchors = (
{
name = bottom;
position = "{213, 0}";
},
{
name = center;
position = "{290, 364}";
},
{
name = top;
position = "{367, 727}";
}
);
layerId = "7C079D0C-96CD-4BD8-8800-0621C7635A78";
paths = (
{
closed = 1;
nodes = (
"226 0 LINE SMOOTH",
"384 0 OFFCURVE",
"450 85 OFFCURVE",
"509 360 CURVE SMOOTH",
"568 638 OFFCURVE",
"535 727 OFFCURVE",
"377 727 CURVE SMOOTH",
"172 727 LINE",
"17 0 LINE"
);
},
{
closed = 1;
nodes = (
"215 715 LINE",
"178 685 LINE",
"373 685 LINE SMOOTH",
"495 685 OFFCURVE",
"516 610 OFFCURVE",
"465 367 CURVE SMOOTH",
"413 121 OFFCURVE",
"355 42 OFFCURVE",
"232 42 CURVE SMOOTH",
"43 42 LINE",
"66 13 LINE"
);
}
);
width = 545;
},
{
anchors = (
{
name = bottom;
position = "{213, 0}";
},
{
name = center;
position = "{290, 364}";
},
{
name = top;
position = "{367, 727}";
}
);
layerId = "291433DC-531A-45CC-B814-57D397372F12";
paths = (
{
closed = 1;
nodes = (
"229 0 LINE SMOOTH",
"402 0 OFFCURVE",
"475 95 OFFCURVE",
"531 356 CURVE SMOOTH",
"588 625 OFFCURVE",
"548 727 OFFCURVE",
"375 727 CURVE SMOOTH",
"149 727 LINE",
"-5 0 LINE"
);
},
{
closed = 1;
nodes = (
"235 708 LINE",
"150 644 LINE",
"365 644 LINE SMOOTH",
"471 644 OFFCURVE",
"487 581 OFFCURVE",
"443 371 CURVE SMOOTH",
"396 154 OFFCURVE",
"345 84 OFFCURVE",
"239 84 CURVE SMOOTH",
"34 84 LINE",
"91 19 LINE"
);
}
);
width = 545;
}
);
unicode = 0044;
},
{
color = 4;
glyphname = Eth;
lastChange = "2023-07-14 09:45:09 +0000";
layers = (
{
layerId = "7C079D0C-96CD-4BD8-8800-0621C7635A78";
paths = (
{
closed = 1;
nodes = (
"229 0 LINE SMOOTH",
"386 0 OFFCURVE",
"453 85 OFFCURVE",
"512 360 CURVE SMOOTH",
"571 638 OFFCURVE",
"537 727 OFFCURVE",
"380 727 CURVE SMOOTH",
"175 727 LINE",
"20 0 LINE"
);
},
{
closed = 1;
nodes = (
"275 364 LINE",
"284 405 LINE",
"59 405 LINE",
"50 364 LINE"
);
},
{
closed = 1;
nodes = (
"217 715 LINE",
"181 685 LINE",
"375 685 LINE SMOOTH",
"498 685 OFFCURVE",
"519 610 OFFCURVE",
"467 367 CURVE SMOOTH",
"415 121 OFFCURVE",
"357 42 OFFCURVE",
"235 42 CURVE SMOOTH",
"45 42 LINE",
"69 13 LINE"
);
}
);
width = 545;
},
{
layerId = "291433DC-531A-45CC-B814-57D397372F12";
paths = (
{
closed = 1;
nodes = (
"232 0 LINE SMOOTH",
"405 0 OFFCURVE",
"477 95 OFFCURVE",
"534 356 CURVE SMOOTH",
"591 625 OFFCURVE",
"551 727 OFFCURVE",
"378 727 CURVE SMOOTH",
"152 727 LINE",
"-3 0 LINE"
);
},
{
closed = 1;
nodes = (
"294 343 LINE",
"312 426 LINE",
"41 426 LINE",
"23 343 LINE"
);
},
{
closed = 1;
nodes = (
"237 708 LINE",
"153 644 LINE",
"368 644 LINE SMOOTH",
"474 644 OFFCURVE",
"490 581 OFFCURVE",
"445 371 CURVE SMOOTH",
"399 154 OFFCURVE",
"347 84 OFFCURVE",
"242 84 CURVE SMOOTH",
"36 84 LINE",
"94 19 LINE"
);
}
);
width = 545;
}
);
unicode = 00D0;
},
{
color = 4;
glyphname = E;
lastChange = "2023-07-14 09:45:09 +0000";
layers = (
{
anchors = (
{
name = bottom;
position = "{225, -3}";
},
{
name = ogonek;
position = "{394, 0}";
},
{
name = top;
position = "{381, 730}";
},
{
name = topleft;
position = "{104, 730}";
}
);
layerId = "7C079D0C-96CD-4BD8-8800-0621C7635A78";
paths = (
{
closed = 1;
nodes = (
"418 0 LINE",
"427 42 LINE",
"69 42 LINE",
"84 23 LINE",
"159 383 LINE",
"127 364 LINE",
"374 364 LINE",
"383 405 LINE",
"137 405 LINE",
"161 386 LINE",
"229 714 LINE",
"195 685 LINE",
"565 685 LINE",
"573 727 LINE",
"187 727 LINE",
"33 0 LINE"
);
}
);
width = 545;
},
{
anchors = (
{
name = bottom;
position = "{225, -3}";
},
{
name = ogonek;
position = "{391, 0}";
},
{
name = top;
position = "{381, 730}";
},
{
name = topleft;
position = "{104, 730}";
}
);
layerId = "291433DC-531A-45CC-B814-57D397372F12";
paths = (
{
closed = 1;
nodes = (
"442 0 LINE",
"459 84 LINE",
"55 84 LINE",
"106 17 LINE",
"186 409 LINE",
"106 343 LINE",
"392 343 LINE",
"410 426 LINE",
"126 426 LINE",
"179 360 LINE",
"251 710 LINE",
"170 644 LINE",
"578 644 LINE",
"595 727 LINE",
"165 727 LINE",
"11 0 LINE"
);
}
);
width = 545;
}
);
unicode = 0045;
},
{
color = 4;
glyphname = F;
lastChange = "2023-07-14 09:45:09 +0000";
layers = (
{
anchors = (
{
name = bottom;
position = "{213, 0}";
},
{
name = top;
position = "{367, 727}";
}
);
layerId = "7C079D0C-96CD-4BD8-8800-0621C7635A78";
paths = (
{
closed = 1;
nodes = (
"79 0 LINE",
"153 350 LINE",
"119 322 LINE",
"366 322 LINE",
"375 364 LINE",
"129 364 LINE",
"152 335 LINE",
"230 714 LINE",
"196 685 LINE",
"565 685 LINE",
"574 727 LINE",
"188 727 LINE",
"34 0 LINE"
);
}
);
width = 545;
},
{
anchors = (
{
name = bottom;
position = "{213, 0}";
},
{
name = top;
position = "{367, 727}";
}
);
layerId = "291433DC-531A-45CC-B814-57D397372F12";
paths = (
{
closed = 1;
nodes = (
"102 0 LINE",
"179 367 LINE",
"98 301 LINE",
"385 301 LINE",
"402 385 LINE",
"119 385 LINE",
"171 318 LINE",
"252 710 LINE",
"171 644 LINE",
"579 644 LINE",
"596 727 LINE",
"165 727 LINE",
"11 0 LINE"
);
}
);
width = 545;
}
);
unicode = 0046;
},
{
color = 4;
glyphname = G;
lastChange = "2023-07-14 09:45:09 +0000";
layers = (
{
anchors = (
{
name = bottom;
position = "{213, 0}";
},
{
name = top;
position = "{367, 727}";
}
);
layerId = "7C079D0C-96CD-4BD8-8800-0621C7635A78";
paths = (
{
closed = 1;
nodes = (
"340 -13 OFFCURVE",
"394 21 OFFCURVE",
"454 133 CURVE",
"502 364 LINE",
"298 364 LINE",
"290 322 LINE",
"448 322 LINE",
"409 143 LINE",
"361 58 OFFCURVE",
"317 29 OFFCURVE",
"233 29 CURVE SMOOTH",
"96 29 OFFCURVE",
"71 107 OFFCURVE",
"125 360 CURVE SMOOTH",
"179 616 OFFCURVE",
"243 698 OFFCURVE",
"383 698 CURVE SMOOTH",
"473 698 OFFCURVE",
"503 668 OFFCURVE",
"509 568 CURVE",
"553 575 LINE",
"545 699 OFFCURVE",
"504 740 OFFCURVE",
"384 740 CURVE SMOOTH",
"213 740 OFFCURVE",
"142 652 OFFCURVE",
"81 367 CURVE SMOOTH",
"20 79 OFFCURVE",
"56 -13 OFFCURVE",
"232 -13 CURVE SMOOTH"
);
}
);
width = 545;
},
{
anchors = (
{
name = bottom;
position = "{213, 0}";
},
{
name = top;
position = "{367, 727}";
}
);
layerId = "291433DC-531A-45CC-B814-57D397372F12";
paths = (
{
closed = 1;
nodes = (
"356 -13 OFFCURVE",
"413 25 OFFCURVE",
"481 153 CURVE",
"529 385 LINE",
"280 385 LINE",
"263 301 LINE",
"421 301 LINE",
"392 173 LINE",
"350 98 OFFCURVE",
"312 71 OFFCURVE",
"238 71 CURVE SMOOTH",
"121 71 OFFCURVE",
"100 137 OFFCURVE",
"147 356 CURVE SMOOTH",
"195 583 OFFCURVE",
"253 656 OFFCURVE",
"377 656 CURVE SMOOTH",
"455 656 OFFCURVE",
"479 626 OFFCURVE",
"483 520 CURVE",
"572 535 LINE",
"565 688 OFFCURVE",
"519 740 OFFCURVE",
"380 740 CURVE SMOOTH",
"194 740 OFFCURVE",
"119 654 OFFCURVE",
"59 371 CURVE SMOOTH",
"-3 81 OFFCURVE",
"42 -13 OFFCURVE",
"235 -13 CURVE SMOOTH"
);
}
);
width = 545;
}
);
unicode = 0047;
},
{
color = 4;
glyphname = H;
lastChange = "2023-07-14 09:45:09 +0000";
layers = (
{
anchors = (
{
name = bottom;
position = "{213, 0}";
},
{
name = center;
position = "{290, 364}";
},
{
name = top;
position = "{367, 727}";
},
{
name = topleft;
position = "{113, 727}";
}
);
background = {
paths = (
{
closed = 0;
nodes = (
"455 0 LINE",
"455 733 LINE"
);
},
{
closed = 0;
nodes = (
"136 0 LINE",
"136 733 LINE"
);
},
{
closed = 0;
nodes = (
"455 392 LINE",
"136 392 LINE"
);
}
);
};
layerId = "7C079D0C-96CD-4BD8-8800-0621C7635A78";
paths = (
{
closed = 1;
nodes = (
"409 0 LINE",
"564 727 LINE",
"518 727 LINE",
"364 0 LINE"
);
},
{
closed = 1;
nodes = (
"62 0 LINE",
"216 727 LINE",
"171 727 LINE",
"16 0 LINE"
);
},
{
closed = 1;
nodes = (
"460 364 LINE",
"469 405 LINE",
"129 405 LINE",
"120 364 LINE"
);
}
);
width = 545;
},
{
anchors = (
{
name = bottom;
position = "{213, 0}";
},
{
name = center;
position = "{290, 364}";
},
{
name = top;
position = "{367, 727}";
},
{
name = topleft;
position = "{113, 727}";
}
);
background = {
paths = (
{
closed = 0;
nodes = (
"455 0 LINE",
"455 733 LINE"
);
},
{
closed = 0;
nodes = (
"136 0 LINE",
"136 733 LINE"
);
},
{
closed = 0;
nodes = (
"455 392 LINE",
"136 392 LINE"
);
}
);
};
layerId = "291433DC-531A-45CC-B814-57D397372F12";
paths = (
{
closed = 1;
nodes = (
"432 0 LINE",
"586 727 LINE",
"495 727 LINE",
"341 0 LINE"
);
},
{
closed = 1;
nodes = (
"85 0 LINE",
"239 727 LINE",
"148 727 LINE",
"-6 0 LINE"
);
},
{
closed = 1;
nodes = (
"478 343 LINE",
"496 426 LINE",
"111 426 LINE",
"93 343 LINE"
);
}
);
width = 545;
}
);
unicode = 0048;
},
{
color = 4;
glyphname = Hbar;
lastChange = "2023-07-14 09:45:09 +0000";
layers = (
{
components = (
{
name = H;
}
);
layerId = "7C079D0C-96CD-4BD8-8800-0621C7635A78";
paths = (
{
closed = 1;
nodes = (
"565 502 LINE",
"574 544 LINE",
"83 544 LINE",
"75 502 LINE"
);
}
);
width = 545;
},
{
components = (
{
name = H;
}
);
layerId = "291433DC-531A-45CC-B814-57D397372F12";
paths = (
{
closed = 1;
nodes = (
"579 502 LINE",
"596 585 LINE",
"78 585 LINE",
"61 502 LINE"
);
}
);
width = 545;
}
);
unicode = 0126;
},
{
color = 4;
glyphname = I;
lastChange = "2023-07-14 09:45:09 +0000";
layers = (
{
anchors = (
{
name = bottom;
position = "{213, -3}";
},
{
name = ogonek;
position = "{260, 0}";
},
{
name = top;
position = "{368, 730}";
},
{
name = topleft;
position = "{91, 730}";
}
);
layerId = "7C079D0C-96CD-4BD8-8800-0621C7635A78";
paths = (
{
closed = 1;
nodes = (
"235 0 LINE",
"390 727 LINE",
"345 727 LINE",
"190 0 LINE"
);
},
{
closed = 1;
nodes = (
"383 0 LINE",
"392 42 LINE",
"52 42 LINE",
"43 0 LINE"
);
},
{
closed = 1;
nodes = (
"529 685 LINE",
"537 727 LINE",
"197 727 LINE",
"189 685 LINE"
);
}
);
width = 545;
},
{
anchors = (
{
name = bottom;
position = "{213, -3}";
},
{
name = ogonek;
position = "{242, 0}";
},
{
name = top;
position = "{368, 730}";
},
{
name = topleft;
position = "{91, 730}";
}
);
layerId = "291433DC-531A-45CC-B814-57D397372F12";
paths = (
{
closed = 1;
nodes = (
"258 0 LINE",
"413 727 LINE",
"322 727 LINE",
"167 0 LINE"
);
},
{
closed = 1;
nodes = (
"405 0 LINE",
"424 84 LINE",
"38 84 LINE",
"20 0 LINE"
);
},
{
closed = 1;
nodes = (
"543 644 LINE",
"560 727 LINE",
"175 727 LINE",
"157 644 LINE"
);
}
);
width = 545;
}
);
unicode = 0049;
},
{
glyphname = IJ;
lastChange = "2023-07-14 09:45:09 +0000";
layers = (
{
layerId = "7C079D0C-96CD-4BD8-8800-0621C7635A78";
paths = (
{
closed = 1;
nodes = (
"181 0 LINE",
"335 727 LINE",
"290 727 LINE",
"135 0 LINE"
);
},
{
closed = 1;
nodes = (
"158 0 LINE",
"167 42 LINE",
"-3 42 LINE",
"-12 0 LINE"
);
},
{
closed = 1;
nodes = (
"475 685 LINE",
"483 727 LINE",
"143 727 LINE",
"135 685 LINE"
);
},
{
closed = 1;
nodes = (
"106 -120 OFFCURVE",
"145 -131 OFFCURVE",
"205 -131 CURVE SMOOTH",
"368 -131 OFFCURVE",
"435 -54 OFFCURVE",
"488 196 CURVE SMOOTH",
"601 727 LINE",
"436 727 LINE",
"428 685 LINE",
"547 685 LINE",
"444 200 LINE SMOOTH",
"397 -18 OFFCURVE",
"338 -89 OFFCURVE",
"205 -89 CURVE SMOOTH",
"163 -89 OFFCURVE",
"134 -83 OFFCURVE",
"115 -63 CURVE",
"81 -95 LINE"
);
}
);
width = 545;
},
{
layerId = "291433DC-531A-45CC-B814-57D397372F12";
paths = (
{
closed = 1;
nodes = (
"185 0 LINE",
"340 727 LINE",
"249 727 LINE",
"95 0 LINE"
);
},
{
closed = 1;
nodes = (
"140 0 LINE",
"158 84 LINE",
"-35 84 LINE",
"-53 0 LINE"
);
},
{
closed = 1;
nodes = (
"470 644 LINE",
"487 727 LINE",
"102 727 LINE",
"85 644 LINE"
);
},
{
closed = 1;
nodes = (
"97 -134 OFFCURVE",
"142 -149 OFFCURVE",
"212 -149 CURVE SMOOTH",
"389 -149 OFFCURVE",
"464 -63 OFFCURVE",
"518 197 CURVE SMOOTH",
"631 727 LINE",
"421 727 LINE",
"404 644 LINE",
"523 644 LINE",
"429 205 LINE SMOOTH",
"385 -4 OFFCURVE",
"333 -65 OFFCURVE",
"215 -65 CURVE SMOOTH",
"179 -65 OFFCURVE",
"155 -63 OFFCURVE",
"139 -45 CURVE",
"69 -103 LINE"
);
}
);
width = 545;
}
);
unicode = 0132;
},
{
color = 4;
glyphname = J;
lastChange = "2023-07-14 09:45:09 +0000";
layers = (
{
anchors = (
{
name = bottom;
position = "{213, 0}";
},
{
name = top;
position = "{473, 727}";
}
);
layerId = "7C079D0C-96CD-4BD8-8800-0621C7635A78";
paths = (
{
closed = 1;
nodes = (
"345 -13 OFFCURVE",
"412 65 OFFCURVE",
"465 315 CURVE SMOOTH",
"553 727 LINE",
"388 727 LINE",
"380 685 LINE",
"499 685 LINE",
"421 318 LINE SMOOTH",
"375 100 OFFCURVE",
"315 29 OFFCURVE",
"183 29 CURVE SMOOTH",
"100 29 OFFCURVE",
"71 55 OFFCURVE",
"63 142 CURVE",
"19 134 LINE",
"30 24 OFFCURVE",
"69 -13 OFFCURVE",
"182 -13 CURVE SMOOTH"
);
}
);
width = 545;
},
{
anchors = (
{
name = bottom;
position = "{213, 0}";
},
{
name = top;
position = "{477, 727}";
}
);
layerId = "291433DC-531A-45CC-B814-57D397372F12";
paths = (
{
closed = 1;
nodes = (
"363 -13 OFFCURVE",
"437 74 OFFCURVE",
"492 334 CURVE SMOOTH",
"575 727 LINE",
"365 727 LINE",
"348 644 LINE",
"467 644 LINE",
"403 341 LINE SMOOTH",
"358 133 OFFCURVE",
"306 71 OFFCURVE",
"188 71 CURVE SMOOTH",
"112 71 OFFCURVE",
"95 92 OFFCURVE",
"87 187 CURVE",
"0 171 LINE",
"9 36 OFFCURVE",
"55 -13 OFFCURVE",
"185 -13 CURVE SMOOTH"
);
}
);
width = 545;
}
);
unicode = 004A;
},
{
color = 4;
glyphname = K;
lastChange = "2023-07-14 09:45:09 +0000";
layers = (
{
anchors = (
{
name = bottom;
position = "{213, 0}";
},
{
name = top;
position = "{367, 727}";
}
);
layerId = "7C079D0C-96CD-4BD8-8800-0621C7635A78";
paths = (
{
closed = 1;
nodes = (
"224 364 LINE",
"598 727 LINE",
"541 727 LINE",
"209 405 LINE",
"128 405 LINE",
"119 364 LINE"
);
},
{
closed = 1;
nodes = (
"67 0 LINE",
"222 727 LINE",
"176 727 LINE",
"22 0 LINE"
);
},
{
closed = 1;
nodes = (
"447 0 LINE",
"243 416 LINE",
"207 382 LINE",
"394 0 LINE"
);
}
);
width = 545;
},
{
anchors = (
{
name = bottom;
position = "{213, 0}";
},
{
name = top;
position = "{367, 727}";
}
);
layerId = "291433DC-531A-45CC-B814-57D397372F12";
paths = (
{
closed = 1;
nodes = (
"231 343 LINE",
"642 727 LINE",
"526 727 LINE",
"204 426 LINE",
"116 426 LINE",
"98 343 LINE"
);
},
{
closed = 1;
nodes = (
"90 0 LINE",
"245 727 LINE",
"154 727 LINE",
"-1 0 LINE"
);
},
{
closed = 1;
nodes = (
"483 0 LINE",
"285 455 LINE",
"213 385 LINE",
"381 0 LINE"
);
}
);
width = 545;
}
);
unicode = 004B;
},
{
color = 4;
glyphname = L;
lastChange = "2023-07-14 09:45:09 +0000";
layers = (
{
anchors = (
{
name = bottom;
position = "{213, 0}";
},
{
name = center;
position = "{290, 364}";
},
{
name = top;
position = "{243, 727}";
},
{
name = topright;
position = "{622, 727}";
}
);
layerId = "7C079D0C-96CD-4BD8-8800-0621C7635A78";
paths = (
{
closed = 1;
nodes = (
"400 0 LINE",
"409 42 LINE",
"105 42 LINE",
"250 727 LINE",
"205 727 LINE",
"50 0 LINE"
);
}
);
width = 545;
},
{
anchors = (
{
name = bottom;
position = "{213, 0}";
},
{
name = center;
position = "{290, 364}";
},
{
name = top;
position = "{249, 727}";
},
{
name = topright;
position = "{622, 727}";
}
);
layerId = "291433DC-531A-45CC-B814-57D397372F12";
paths = (
{
closed = 1;
nodes = (
"423 0 LINE",
"441 84 LINE",
"136 84 LINE",
"273 727 LINE",
"182 727 LINE",
"27 0 LINE"
);
}
);
width = 545;
}
);
unicode = 004C;
},
{
color = 4;
glyphname = Lslash;
lastChange = "2023-07-14 09:45:09 +0000";
layers = (
{
layerId = "7C079D0C-96CD-4BD8-8800-0621C7635A78";
paths = (
{
closed = 1;
nodes = (
"427 0 LINE",
"436 42 LINE",
"132 42 LINE",
"277 727 LINE",
"232 727 LINE",
"77 0 LINE"
);
},
{
closed = 1;
nodes = (
"345 471 LINE",
"354 514 LINE",
"75 409 LINE",
"66 366 LINE"
);
}
);
width = 545;
},
{
layerId = "291433DC-531A-45CC-B814-57D397372F12";
paths = (
{
closed = 1;
nodes = (
"450 0 LINE",
"468 84 LINE",
"164 84 LINE",
"300 727 LINE",
"209 727 LINE",
"55 0 LINE"
);
},
{
closed = 1;
nodes = (
"365 457 LINE",
"383 545 LINE",
"55 423 LINE",
"37 335 LINE"
);
}
);
width = 545;
}
);
unicode = 0141;
},
{
color = 4;
glyphname = M;
lastChange = "2023-07-14 09:45:09 +0000";
layers = (
{
anchors = (
{
name = bottom;
position = "{213, 0}";
},
{
name = top;
position = "{367, 727}";
}
);
layerId = "7C079D0C-96CD-4BD8-8800-0621C7635A78";
paths = (
{
closed = 1;
nodes = (
"40 0 LINE",
"182 613 LINE",
"242 238 LINE",
"287 238 LINE",
"505 613 LINE",
"385 0 LINE",
"431 0 LINE",
"573 727 LINE",
"526 727 LINE",
"276 304 LINE",
"208 727 LINE",
"162 727 LINE",
"-5 0 LINE"
);
}
);
width = 545;
},
{
anchors = (
{
name = bottom;
position = "{213, 0}";
},
{
name = top;
position = "{367, 727}";
}
);
layerId = "291433DC-531A-45CC-B814-57D397372F12";
paths = (
{
closed = 1;
nodes = (
"63 0 LINE",
"178 493 LINE",
"221 217 LINE",
"299 217 LINE",
"460 493 LINE",
"363 0 LINE",
"454 0 LINE",
"595 727 LINE",
"509 727 LINE",
"289 367 LINE",
"224 727 LINE",
"139 727 LINE",
"-28 0 LINE"
);
}
);
width = 545;
}
);
unicode = 004D;
},
{
color = 4;
glyphname = N;
lastChange = "2023-07-14 09:45:09 +0000";
layers = (
{
anchors = (
{
name = bottom;
position = "{213, -3}";
},
{
name = top;
position = "{368, 730}";
}
);
layerId = "7C079D0C-96CD-4BD8-8800-0621C7635A78";
paths = (
{
closed = 1;
nodes = (
"64 0 LINE",
"218 727 LINE",
"174 727 LINE",
"359 0 LINE",
"407 0 LINE",
"562 727 LINE",
"516 727 LINE",
"362 0 LINE",
"407 0 LINE",
"222 727 LINE",
"173 727 LINE",
"18 0 LINE"
);
}
);
width = 545;
},
{
anchors = (
{
name = bottom;
position = "{213, -3}";
},
{
name = top;
position = "{368, 730}";
}
);
layerId = "291433DC-531A-45CC-B814-57D397372F12";
paths = (
{
closed = 1;
nodes = (
"86 0 LINE",
"241 727 LINE",
"152 727 LINE",
"335 0 LINE",
"430 0 LINE",
"585 727 LINE",
"494 727 LINE",
"339 0 LINE",
"429 0 LINE",
"246 727 LINE",
"150 727 LINE",
"-5 0 LINE"
);
}
);
width = 545;
}
);
unicode = 004E;
},
{
color = 4;
glyphname = Eng;
lastChange = "2023-07-14 09:45:09 +0000";
layers = (
{
components = (
{
name = N;
}
);
layerId = "7C079D0C-96CD-4BD8-8800-0621C7635A78";
paths = (
{
closed = 1;
nodes = (
"367 -141 OFFCURVE",
"393 -71 OFFCURVE",
"407 0 CURVE",
"359 0 LINE",
"365 -27 OFFCURVE",
"331 -99 OFFCURVE",
"255 -99 CURVE",
"251 -141 LINE"
);
}
);
width = 545;
},
{
components = (
{
name = N;
}
);
layerId = "291433DC-531A-45CC-B814-57D397372F12";
paths = (
{
closed = 1;
nodes = (
"358 -160 OFFCURVE",
"404 -125 OFFCURVE",
"430 0 CURVE",
"335 0 LINE",
"340 -27 OFFCURVE",
"312 -77 OFFCURVE",
"235 -77 CURVE",
"225 -161 LINE"
);
}
);
width = 545;
}
);
unicode = 014A;
},
{
color = 4;
glyphname = O;
lastChange = "2023-07-14 09:45:09 +0000";
layers = (
{
anchors = (
{
name = bottom;
position = "{213, -3}";
},
{
name = center;
position = "{290, 364}";
},
{
name = ogonek;
position = "{451, 6}";
},
{
name = top;
position = "{368, 730}";
},
{
name = topleft;
position = "{91, 730}";
},
{
name = topright;
position = "{645, 730}";
}
);
layerId = "7C079D0C-96CD-4BD8-8800-0621C7635A78";
paths = (
{
closed = 1;
nodes = (
"373 -13 OFFCURVE",
"439 67 OFFCURVE",
"494 325 CURVE SMOOTH",
"509 398 LINE SMOOTH",
"565 656 OFFCURVE",
"529 740 OFFCURVE",
"366 740 CURVE SMOOTH",
"207 740 OFFCURVE",
"142 660 OFFCURVE",
"86 402 CURVE SMOOTH",
"71 329 LINE SMOOTH",
"16 71 OFFCURVE",
"51 -13 OFFCURVE",
"215 -13 CURVE SMOOTH"
);
},
{
closed = 1;
nodes = (
"92 29 OFFCURVE",
"68 99 OFFCURVE",
"115 325 CURVE SMOOTH",
"131 398 LINE SMOOTH",
"178 625 OFFCURVE",
"236 698 OFFCURVE",
"365 698 CURVE SMOOTH",
"490 698 OFFCURVE",
"513 628 OFFCURVE",
"465 402 CURVE SMOOTH",
"449 329 LINE SMOOTH",
"401 103 OFFCURVE",
"344 29 OFFCURVE",
"215 29 CURVE SMOOTH"
);
}
);
width = 545;
},
{
anchors = (
{
name = bottom;
position = "{213, -3}";
},
{
name = center;
position = "{290, 364}";
},
{
name = ogonek;
position = "{451, 6}";
},
{
name = top;
position = "{368, 730}";
},
{
name = topleft;
position = "{91, 730}";
},
{
name = topright;
position = "{645, 730}";
}
);
layerId = "291433DC-531A-45CC-B814-57D397372F12";
paths = (
{
closed = 1;
nodes = (
"391 -13 OFFCURVE",
"464 76 OFFCURVE",
"516 324 CURVE SMOOTH",
"532 396 LINE SMOOTH",
"585 644 OFFCURVE",
"543 740 OFFCURVE",
"363 740 CURVE SMOOTH",
"190 740 OFFCURVE",
"116 651 OFFCURVE",
"65 404 CURVE SMOOTH",
"49 331 LINE SMOOTH",
"-4 84 OFFCURVE",
"38 -13 OFFCURVE",
"218 -13 CURVE SMOOTH"
);
},
{
closed = 1;
nodes = (
"115 71 OFFCURVE",
"96 128 OFFCURVE",
"138 324 CURVE SMOOTH",
"154 396 LINE SMOOTH",
"195 592 OFFCURVE",
"245 656 OFFCURVE",
"360 656 CURVE SMOOTH",
"466 656 OFFCURVE",
"484 599 OFFCURVE",
"443 404 CURVE SMOOTH",
"427 331 LINE SMOOTH",
"385 135 OFFCURVE",
"335 71 OFFCURVE",
"221 71 CURVE SMOOTH"
);
}
);
width = 545;
}
);
unicode = 004F;
},
{
color = 4;
glyphname = Oslash;
lastChange = "2023-07-14 09:45:09 +0000";
layers = (
{
anchors = (
{
name = bottom;
position = "{213, 0}";
},
{
name = top;
position = "{367, 727}";
}
);
layerId = "7C079D0C-96CD-4BD8-8800-0621C7635A78";
paths = (
{
closed = 1;
nodes = (
"40 -45 LINE",
"592 773 LINE",
"540 773 LINE",
"-11 -45 LINE"
);
},
{
closed = 1;
nodes = (
"373 -13 OFFCURVE",
"439 67 OFFCURVE",
"494 325 CURVE SMOOTH",
"509 398 LINE SMOOTH",
"565 656 OFFCURVE",
"529 740 OFFCURVE",
"366 740 CURVE SMOOTH",
"207 740 OFFCURVE",
"142 660 OFFCURVE",
"86 402 CURVE SMOOTH",
"71 329 LINE SMOOTH",
"16 71 OFFCURVE",
"51 -13 OFFCURVE",
"215 -13 CURVE SMOOTH"
);
},
{
closed = 1;
nodes = (
"91 29 OFFCURVE",
"68 99 OFFCURVE",
"115 325 CURVE SMOOTH",
"131 398 LINE SMOOTH",
"179 625 OFFCURVE",
"237 698 OFFCURVE",
"365 698 CURVE SMOOTH",
"490 698 OFFCURVE",
"513 628 OFFCURVE",
"465 402 CURVE SMOOTH",
"449 329 LINE SMOOTH",
"401 103 OFFCURVE",
"344 29 OFFCURVE",
"215 29 CURVE SMOOTH"
);
}
);
width = 545;
},
{
anchors = (
{
name = bottom;
position = "{213, 0}";
},
{
name = top;
position = "{367, 727}";
}
);
layerId = "291433DC-531A-45CC-B814-57D397372F12";
paths = (
{
closed = 1;
nodes = (
"56 -45 LINE",
"626 773 LINE",
"525 773 LINE",
"-46 -45 LINE"
);
},
{
closed = 1;
nodes = (
"391 -13 OFFCURVE",
"464 76 OFFCURVE",
"516 324 CURVE SMOOTH",
"532 396 LINE SMOOTH",
"585 644 OFFCURVE",
"543 740 OFFCURVE",
"363 740 CURVE SMOOTH",
"190 740 OFFCURVE",
"116 651 OFFCURVE",
"65 404 CURVE SMOOTH",
"49 331 LINE SMOOTH",
"-4 84 OFFCURVE",
"38 -13 OFFCURVE",
"218 -13 CURVE SMOOTH"
);
},
{
closed = 1;
nodes = (
"115 71 OFFCURVE",
"96 128 OFFCURVE",
"138 324 CURVE SMOOTH",
"154 396 LINE SMOOTH",
"195 592 OFFCURVE",
"246 656 OFFCURVE",
"360 656 CURVE SMOOTH",
"466 656 OFFCURVE",
"484 599 OFFCURVE",
"443 404 CURVE SMOOTH",
"427 331 LINE SMOOTH",
"385 135 OFFCURVE",
"335 71 OFFCURVE",
"221 71 CURVE SMOOTH"
);
}
);
width = 545;
}
);
unicode = 00D8;
},
{
color = 4;
glyphname = OE;
lastChange = "2023-07-14 09:45:09 +0000";
layers = (
{
anchors = (
{
name = bottom;
position = "{213, 0}";
},
{
name = top;
position = "{367, 727}";
}
);
layerId = "7C079D0C-96CD-4BD8-8800-0621C7635A78";
paths = (
{
closed = 1;
nodes = (
"234 -13 OFFCURVE",
"291 75 OFFCURVE",
"351 356 CURVE SMOOTH",
"413 647 OFFCURVE",
"390 740 OFFCURVE",
"262 740 CURVE SMOOTH",
"137 740 OFFCURVE",
"80 651 OFFCURVE",
"20 366 CURVE SMOOTH",
"-41 79 OFFCURVE",
"-19 -13 OFFCURVE",
"110 -13 CURVE SMOOTH"
);
},
{
closed = 1;
nodes = (
"21 29 OFFCURVE",
"10 107 OFFCURVE",
"64 359 CURVE SMOOTH",
"118 615 OFFCURVE",
"167 698 OFFCURVE",
"261 698 CURVE SMOOTH",
"351 698 OFFCURVE",
"361 619 OFFCURVE",
"307 366 CURVE SMOOTH",
"253 111 OFFCURVE",
"205 29 OFFCURVE",
"111 29 CURVE SMOOTH"
);
},
{
closed = 1;
nodes = (
"484 0 LINE",
"493 42 LINE",
"259 42 LINE",
"278 15 LINE",
"357 391 LINE",
"326 364 LINE",
"478 364 LINE",
"487 405 LINE",
"336 405 LINE",
"356 378 LINE",
"425 713 LINE",
"395 685 LINE",
"630 685 LINE",
"638 727 LINE",
"384 727 LINE",
"229 0 LINE"
);
}
);
width = 545;
},
{
anchors = (
{
name = bottom;
position = "{213, 0}";
},
{
name = top;
position = "{367, 727}";
}
);
layerId = "291433DC-531A-45CC-B814-57D397372F12";
paths = (
{
closed = 1;
nodes = (
"265 -13 OFFCURVE",
"315 84 OFFCURVE",
"373 353 CURVE SMOOTH",
"433 635 OFFCURVE",
"416 740 OFFCURVE",
"269 740 CURVE SMOOTH",
"140 740 OFFCURVE",
"78 643 OFFCURVE",
"20 370 CURVE SMOOTH",
"-39 91 OFFCURVE",
"-12 -13 OFFCURVE",
"125 -13 CURVE SMOOTH"
);
},
{
closed = 1;
nodes = (
"69 71 OFFCURVE",
"62 138 OFFCURVE",
"107 355 CURVE SMOOTH",
"155 581 OFFCURVE",
"201 656 OFFCURVE",
"266 656 CURVE SMOOTH",
"335 656 OFFCURVE",
"332 588 OFFCURVE",
"285 370 CURVE SMOOTH",
"237 145 OFFCURVE",
"204 71 OFFCURVE",
"127 71 CURVE SMOOTH"
);
},
{
closed = 1;
nodes = (
"485 0 LINE",
"503 84 LINE",
"260 84 LINE",
"305 26 LINE",
"381 400 LINE",
"313 343 LINE",
"485 343 LINE",
"504 426 LINE",
"334 426 LINE",
"377 369 LINE",
"445 701 LINE",
"376 644 LINE",
"622 644 LINE",
"639 727 LINE",
"361 727 LINE",
"206 0 LINE"
);
}
);
width = 545;
}
);
unicode = 0152;
},
{
color = 4;
glyphname = P;
lastChange = "2023-07-14 09:45:09 +0000";
layers = (
{
anchors = (
{
name = bottom;
position = "{213, 0}";
},
{
name = top;
position = "{367, 727}";
}
);
layerId = "7C079D0C-96CD-4BD8-8800-0621C7635A78";
paths = (
{
closed = 1;
nodes = (
"82 0 LINE",
"233 714 LINE",
"199 685 LINE",
"379 685 LINE SMOOTH",
"493 685 OFFCURVE",
"519 649 OFFCURVE",
"494 528 CURVE SMOOTH",
"467 404 OFFCURVE",
"420 364 OFFCURVE",
"306 364 CURVE SMOOTH",
"139 364 LINE",
"131 322 LINE",
"302 322 LINE SMOOTH",
"450 322 OFFCURVE",
"505 369 OFFCURVE",
"537 521 CURVE SMOOTH",
"570 676 OFFCURVE",
"532 727 OFFCURVE",
"384 727 CURVE SMOOTH",
"191 727 LINE",
"36 0 LINE"
);
}
);
width = 545;
},
{
anchors = (
{
name = bottom;
position = "{213, 0}";
},
{
name = top;
position = "{367, 727}";
}
);
layerId = "291433DC-531A-45CC-B814-57D397372F12";
paths = (
{
closed = 1;
nodes = (
"105 0 LINE",
"259 727 LINE",
"155 644 LINE",
"372 644 LINE SMOOTH",
"472 644 OFFCURVE",
"490 618 OFFCURVE",
"469 520 CURVE SMOOTH",
"445 405 OFFCURVE",
"408 382 OFFCURVE",
"308 382 CURVE SMOOTH",
"121 382 LINE",
"103 298 LINE",
"298 298 LINE SMOOTH",
"459 298 OFFCURVE",
"523 344 OFFCURVE",
"557 505 CURVE SMOOTH",
"591 665 OFFCURVE",
"543 727 OFFCURVE",
"382 727 CURVE SMOOTH",
"168 727 LINE",
"14 0 LINE"
);
}
);
width = 545;
}
);
unicode = 0050;
},
{
color = 4;
glyphname = Thorn;
lastChange = "2023-07-14 09:45:09 +0000";
layers = (
{
anchors = (
{
name = bottom;
position = "{213, 0}";
},
{
name = top;
position = "{367, 727}";
}
);
layerId = "7C079D0C-96CD-4BD8-8800-0621C7635A78";
paths = (
{
closed = 1;
nodes = (
"253 178 LINE SMOOTH",
"401 178 OFFCURVE",
"455 221 OFFCURVE",
"485 360 CURVE SMOOTH",
"515 503 OFFCURVE",
"476 549 OFFCURVE",
"328 549 CURVE SMOOTH",
"180 549 LINE",
"171 507 LINE",
"323 507 LINE SMOOTH",
"436 507 OFFCURVE",
"464 475 OFFCURVE",
"441 367 CURVE SMOOTH",
"417 256 OFFCURVE",
"372 220 OFFCURVE",
"258 220 CURVE SMOOTH",
"110 220 LINE",
"101 178 LINE"
);
},
{
closed = 1;
nodes = (
"82 0 LINE",
"236 727 LINE",
"191 727 LINE",
"36 0 LINE"
);
}
);
width = 545;
},
{
anchors = (
{
name = bottom;
position = "{213, 0}";
},
{
name = top;
position = "{367, 727}";
}
);
layerId = "291433DC-531A-45CC-B814-57D397372F12";
paths = (
{
closed = 1;
nodes = (
"250 157 LINE SMOOTH",
"411 157 OFFCURVE",
"475 207 OFFCURVE",
"507 356 CURVE SMOOTH",
"540 513 OFFCURVE",
"491 570 OFFCURVE",
"330 570 CURVE SMOOTH",
"162 570 LINE",
"144 486 LINE",
"320 486 LINE SMOOTH",
"421 486 OFFCURVE",
"439 465 OFFCURVE",
"419 371 CURVE SMOOTH",
"397 270 OFFCURVE",
"361 241 OFFCURVE",
"260 241 CURVE SMOOTH",
"92 241 LINE",
"74 157 LINE"
);
},
{
closed = 1;
nodes = (
"105 0 LINE",
"259 727 LINE",
"168 727 LINE",
"14 0 LINE"
);
}
);
width = 545;
}
);
unicode = 00DE;
},
{
color = 4;
glyphname = Q;
lastChange = "2023-07-14 09:45:09 +0000";
layers = (
{
layerId = "7C079D0C-96CD-4BD8-8800-0621C7635A78";
paths = (
{
closed = 1;
nodes = (
"373 -13 OFFCURVE",
"439 67 OFFCURVE",
"494 325 CURVE SMOOTH",
"509 398 LINE SMOOTH",
"565 656 OFFCURVE",
"529 740 OFFCURVE",
"366 740 CURVE SMOOTH",
"207 740 OFFCURVE",
"142 660 OFFCURVE",
"86 402 CURVE SMOOTH",
"71 329 LINE SMOOTH",
"16 71 OFFCURVE",
"51 -13 OFFCURVE",
"215 -13 CURVE SMOOTH"
);
},
{
closed = 1;
nodes = (
"583 -166 OFFCURVE",
"596 -78 OFFCURVE",
"747 -66 CURVE",
"755 -24 LINE",
"580 -35 OFFCURVE",
"568 -125 OFFCURVE",
"427 -125 CURVE SMOOTH",
"315 -125 OFFCURVE",
"283 -11 OFFCURVE",
"152 38 CURVE SMOOTH",
"96 58 OFFCURVE",
"51 43 OFFCURVE",
"32 -7 CURVE SMOOTH",
"12 -60 OFFCURVE",
"37 -95 OFFCURVE",
"95 -95 CURVE SMOOTH",
"157 -95 OFFCURVE",
"178 -42 OFFCURVE",
"277 -7 CURVE",
"268 34 LINE",
"153 -3 OFFCURVE",
"134 -54 OFFCURVE",
"95 -54 CURVE SMOOTH",
"72 -54 OFFCURVE",
"63 -40 OFFCURVE",
"72 -20 CURVE SMOOTH",
"81 0 OFFCURVE",
"105 7 OFFCURVE",
"131 -2 CURVE SMOOTH",
"257 -45 OFFCURVE",
"291 -166 OFFCURVE",
"427 -166 CURVE SMOOTH"
);
},
{
closed = 1;
nodes = (
"92 29 OFFCURVE",
"68 99 OFFCURVE",
"115 325 CURVE SMOOTH",
"131 398 LINE SMOOTH",
"178 625 OFFCURVE",
"236 698 OFFCURVE",
"365 698 CURVE SMOOTH",
"490 698 OFFCURVE",
"513 628 OFFCURVE",
"465 402 CURVE SMOOTH",
"449 329 LINE SMOOTH",
"401 103 OFFCURVE",
"344 29 OFFCURVE",
"215 29 CURVE SMOOTH"
);
}
);
width = 545;
},
{
layerId = "291433DC-531A-45CC-B814-57D397372F12";
paths = (
{
closed = 1;
nodes = (
"387 -13 OFFCURVE",
"465 77 OFFCURVE",
"515 325 CURVE SMOOTH",
"529 398 LINE SMOOTH",
"579 646 OFFCURVE",
"545 740 OFFCURVE",
"366 740 CURVE SMOOTH",
"193 740 OFFCURVE",
"115 651 OFFCURVE",
"65 402 CURVE SMOOTH",
"50 329 LINE SMOOTH",
"0 80 OFFCURVE",
"36 -13 OFFCURVE",
"215 -13 CURVE SMOOTH"
);
},
{
closed = 1;
nodes = (
"609 -166 OFFCURVE",
"636 -66 OFFCURVE",
"767 -65 CURVE",
"789 19 LINE",
"595 13 OFFCURVE",
"561 -83 OFFCURVE",
"436 -83 CURVE SMOOTH",
"284 -83 OFFCURVE",
"193 92 OFFCURVE",
"119 99 CURVE SMOOTH",
"67 105 OFFCURVE",
"9 65 OFFCURVE",
"-3 8 CURVE SMOOTH",
"-15 -57 OFFCURVE",
"19 -105 OFFCURVE",
"86 -105 CURVE SMOOTH",
"186 -105 OFFCURVE",
"240 -5 OFFCURVE",
"305 -1 CURVE",
"295 82 LINE",
"135 38 OFFCURVE",
"135 -21 OFFCURVE",
"95 -21 CURVE SMOOTH",
"82 -21 OFFCURVE",
"76 -9 OFFCURVE",
"82 1 CURVE SMOOTH",
"86 10 OFFCURVE",
"101 10 OFFCURVE",
"116 1 CURVE SMOOTH",
"154 -20 OFFCURVE",
"280 -166 OFFCURVE",
"427 -166 CURVE SMOOTH"
);
},
{
closed = 1;
nodes = (
"116 71 OFFCURVE",
"98 131 OFFCURVE",
"136 325 CURVE SMOOTH",
"151 398 LINE SMOOTH",
"190 593 OFFCURVE",
"244 656 OFFCURVE",
"356 656 CURVE SMOOTH",
"465 656 OFFCURVE",
"482 596 OFFCURVE",
"443 402 CURVE SMOOTH",
"428 329 LINE SMOOTH",
"389 134 OFFCURVE",
"336 71 OFFCURVE",
"225 71 CURVE SMOOTH"
);
}
);
width = 545;
}
);
unicode = 0051;
},
{
color = 4;
glyphname = R;
lastChange = "2023-07-14 09:45:09 +0000";
layers = (
{
anchors = (
{
name = bottom;
position = "{213, 0}";
},
{
name = top;
position = "{367, 727}";
}
);
layerId = "7C079D0C-96CD-4BD8-8800-0621C7635A78";
paths = (
{
closed = 1;
nodes = (
"75 0 LINE",
"221 685 LINE",
"372 685 LINE SMOOTH",
"485 685 OFFCURVE",
"512 649 OFFCURVE",
"486 528 CURVE SMOOTH",
"460 404 OFFCURVE",
"413 364 OFFCURVE",
"299 364 CURVE SMOOTH",
"123 364 LINE",
"115 322 LINE",
"295 322 LINE SMOOTH",
"443 322 OFFCURVE",
"498 369 OFFCURVE",
"530 521 CURVE SMOOTH",
"563 676 OFFCURVE",
"525 727 OFFCURVE",
"376 727 CURVE SMOOTH",
"184 727 LINE",
"29 0 LINE"
);
},
{
closed = 1;
nodes = (
"436 0 LINE",
"286 344 LINE",
"234 344 LINE",
"385 0 LINE"
);
}
);
width = 545;
},
{
anchors = (
{
name = bottom;
position = "{213, 0}";
},
{
name = top;
position = "{367, 727}";
}
);
layerId = "291433DC-531A-45CC-B814-57D397372F12";
paths = (
{
closed = 1;
nodes = (
"97 0 LINE",
"235 644 LINE",
"365 644 LINE SMOOTH",
"465 644 OFFCURVE",
"483 618 OFFCURVE",
"462 520 CURVE SMOOTH",
"437 405 OFFCURVE",
"401 382 OFFCURVE",
"301 382 CURVE SMOOTH",
"114 382 LINE",
"95 298 LINE",
"291 298 LINE SMOOTH",
"452 298 OFFCURVE",
"515 344 OFFCURVE",
"550 505 CURVE SMOOTH",
"584 665 OFFCURVE",
"535 727 OFFCURVE",
"375 727 CURVE SMOOTH",
"161 727 LINE",
"6 0 LINE"
);
},
{
closed = 1;
nodes = (
"475 0 LINE",
"305 358 LINE",
"202 358 LINE",
"373 0 LINE"
);
}
);
width = 545;
}
);
unicode = 0052;
},
{
color = 4;
glyphname = S;
lastChange = "2023-07-14 09:45:09 +0000";
layers = (
{
anchors = (
{
name = bottom;
position = "{213, 0}";
},
{
name = top;
position = "{368, 730}";
}
);
layerId = "7C079D0C-96CD-4BD8-8800-0621C7635A78";
paths = (
{
closed = 1;
nodes = (
"366 -13 OFFCURVE",
"425 35 OFFCURVE",
"457 192 CURVE SMOOTH",
"482 306 OFFCURVE",
"442 358 OFFCURVE",
"295 406 CURVE SMOOTH",
"195 441 OFFCURVE",
"168 475 OFFCURVE",
"185 549 CURVE SMOOTH",
"208 662 OFFCURVE",
"253 698 OFFCURVE",
"365 698 CURVE SMOOTH",
"455 698 OFFCURVE",
"490 682 OFFCURVE",
"508 623 CURVE",
"545 653 LINE",
"518 717 OFFCURVE",
"475 740 OFFCURVE",
"366 740 CURVE SMOOTH",
"223 740 OFFCURVE",
"170 697 OFFCURVE",
"140 556 CURVE SMOOTH",
"119 457 OFFCURVE",
"156 411 OFFCURVE",
"294 363 CURVE SMOOTH",
"404 323 OFFCURVE",
"432 285 OFFCURVE",
"414 199 CURVE SMOOTH",
"386 71 OFFCURVE",
"337 29 OFFCURVE",
"215 29 CURVE SMOOTH",
"115 29 OFFCURVE",
"79 49 OFFCURVE",
"63 116 CURVE",
"24 88 LINE",
"49 13 OFFCURVE",
"95 -13 OFFCURVE",
"215 -13 CURVE SMOOTH"
);
}
);
width = 545;
},
{
anchors = (
{
name = bottom;
position = "{213, 0}";
},
{
name = top;
position = "{368, 730}";
}
);
layerId = "291433DC-531A-45CC-B814-57D397372F12";
paths = (
{
closed = 1;
nodes = (
"383 -13 OFFCURVE",
"448 43 OFFCURVE",
"482 199 CURVE SMOOTH",
"508 325 OFFCURVE",
"460 375 OFFCURVE",
"303 425 CURVE SMOOTH",
"211 458 OFFCURVE",
"191 472 OFFCURVE",
"204 535 CURVE SMOOTH",
"224 627 OFFCURVE",
"258 656 OFFCURVE",
"360 656 CURVE SMOOTH",
"455 656 OFFCURVE",
"474 640 OFFCURVE",
"490 565 CURVE",
"566 628 LINE",
"537 710 OFFCURVE",
"487 740 OFFCURVE",
"363 740 CURVE SMOOTH",
"208 740 OFFCURVE",
"146 690 OFFCURVE",
"116 549 CURVE SMOOTH",
"93 438 OFFCURVE",
"138 394 OFFCURVE",
"286 344 CURVE",
"386 305 OFFCURVE",
"409 287 OFFCURVE",
"394 214 CURVE SMOOTH",
"371 105 OFFCURVE",
"331 71 OFFCURVE",
"221 71 CURVE SMOOTH",
"117 71 OFFCURVE",
"96 90 OFFCURVE",
"84 174 CURVE",
"3 115 LINE",
"29 21 OFFCURVE",
"83 -13 OFFCURVE",
"218 -13 CURVE SMOOTH"
);
}
);
width = 545;
}
);
unicode = 0053;
},
{
color = 4;
glyphname = Germandbls;
lastChange = "2023-07-14 09:45:09 +0000";
layers = (
{
anchors = (
{
name = bottom;
position = "{213, 0}";
},
{
name = top;
position = "{367, 727}";
}
);
layerId = "7C079D0C-96CD-4BD8-8800-0621C7635A78";
paths = (
{
closed = 1;
nodes = (
"18 0 LINE",
"127 514 LINE SMOOTH",
"149 615 OFFCURVE",
"232 685 OFFCURVE",
"331 685 CURVE SMOOTH",
"536 685 LINE",
"289 387 LINE",
"343 387 LINE",
"623 727 LINE",
"341 727 LINE SMOOTH",
"207 727 OFFCURVE",
"111 649 OFFCURVE",
"83 517 CURVE SMOOTH",
"-27 0 LINE"
);
},
{
closed = 1;
nodes = (
"421 -13 OFFCURVE",
"475 32 OFFCURVE",
"511 205 CURVE SMOOTH",
"546 372 OFFCURVE",
"512 429 OFFCURVE",
"367 429 CURVE SMOOTH",
"338 429 LINE",
"329 387 LINE",
"362 387 LINE SMOOTH",
"472 387 OFFCURVE",
"495 344 OFFCURVE",
"467 212 CURVE SMOOTH",
"436 67 OFFCURVE",
"392 29 OFFCURVE",
"280 29 CURVE SMOOTH",
"185 29 OFFCURVE",
"162 49 OFFCURVE",
"176 118 CURVE",
"132 122 LINE",
"110 21 OFFCURVE",
"145 -13 OFFCURVE",
"279 -13 CURVE SMOOTH"
);
}
);
width = 545;
},
{
anchors = (
{
name = bottom;
position = "{213, 0}";
},
{
name = top;
position = "{367, 727}";
}
);
layerId = "291433DC-531A-45CC-B814-57D397372F12";
paths = (
{
closed = 1;
nodes = (
"32 0 LINE",
"138 500 LINE SMOOTH",
"156 584 OFFCURVE",
"237 644 OFFCURVE",
"334 644 CURVE SMOOTH",
"464 644 LINE",
"211 347 LINE",
"319 347 LINE",
"641 727 LINE",
"349 727 LINE SMOOTH",
"190 727 OFFCURVE",
"78 646 OFFCURVE",
"49 507 CURVE SMOOTH",
"-59 0 LINE"
);
},
{
closed = 1;
nodes = (
"415 -13 OFFCURVE",
"470 30 OFFCURVE",
"507 202 CURVE SMOOTH",
"543 372 OFFCURVE",
"501 431 OFFCURVE",
"339 431 CURVE SMOOTH",
"307 431 LINE",
"290 347 LINE",
"329 347 LINE SMOOTH",
"422 347 OFFCURVE",
"440 315 OFFCURVE",
"419 216 CURVE SMOOTH",
"395 101 OFFCURVE",
"355 71 OFFCURVE",
"259 71 CURVE SMOOTH",
"213 71 OFFCURVE",
"204 87 OFFCURVE",
"216 149 CURVE",
"127 156 LINE",
"101 31 OFFCURVE",
"134 -13 OFFCURVE",
"256 -13 CURVE SMOOTH"
);
}
);
width = 545;
}
);
unicode = 1E9E;
},
{
color = 4;
glyphname = T;
lastChange = "2023-07-14 09:45:09 +0000";
layers = (
{
anchors = (
{
name = bottom;
position = "{213, 0}";
},
{
name = center;
position = "{290, 364}";
},
{
name = top;
position = "{367, 727}";
}
);
layerId = "7C079D0C-96CD-4BD8-8800-0621C7635A78";
paths = (
{
closed = 1;
nodes = (
"235 0 LINE",
"390 727 LINE",
"345 727 LINE",
"190 0 LINE"
);
},
{
closed = 1;
nodes = (
"603 685 LINE",
"611 727 LINE",
"124 727 LINE",
"115 685 LINE"
);
}
);
width = 545;
},
{
anchors = (
{
name = bottom;
position = "{213, 0}";
},
{
name = center;
position = "{290, 364}";
},
{
name = top;
position = "{367, 727}";
}
);
layerId = "291433DC-531A-45CC-B814-57D397372F12";
paths = (
{
closed = 1;
nodes = (
"258 0 LINE",
"413 727 LINE",
"322 727 LINE",
"167 0 LINE"
);
},
{
closed = 1;
nodes = (
"616 644 LINE",
"634 727 LINE",
"101 727 LINE",
"84 644 LINE"
);
}
);
width = 545;
}
);
unicode = 0054;
},
{
color = 4;
glyphname = Tbar;
lastChange = "2023-07-14 09:45:09 +0000";
layers = (
{
components = (
{
name = T;
}
);
layerId = "7C079D0C-96CD-4BD8-8800-0621C7635A78";
paths = (
{
closed = 1;
nodes = (
"463 364 LINE",
"472 405 LINE",
"126 405 LINE",
"117 364 LINE"
);
}
);
width = 545;
},
{
components = (
{
name = T;
}
);
layerId = "291433DC-531A-45CC-B814-57D397372F12";
paths = (
{
closed = 1;
nodes = (
"454 343 LINE",
"472 426 LINE",
"135 426 LINE",
"117 343 LINE"
);
}
);
width = 545;
}
);
unicode = 0166;
},
{
color = 4;
glyphname = U;
lastChange = "2023-07-14 09:45:09 +0000";
layers = (
{
anchors = (
{
name = bottom;
position = "{213, -3}";
},
{
name = ogonek;
position = "{260, 0}";
},
{
name = top;
position = "{368, 730}";
},
{
name = topright;
position = "{645, 730}";
}
);
layerId = "7C079D0C-96CD-4BD8-8800-0621C7635A78";
paths = (
{
closed = 1;
nodes = (
"358 -13 OFFCURVE",
"417 53 OFFCURVE",
"462 265 CURVE SMOOTH",
"560 727 LINE",
"515 727 LINE",
"417 268 LINE SMOOTH",
"379 88 OFFCURVE",
"329 29 OFFCURVE",
"215 29 CURVE SMOOTH",
"105 29 OFFCURVE",
"84 85 OFFCURVE",
"122 265 CURVE SMOOTH",
"220 727 LINE",
"175 727 LINE",
"77 268 LINE SMOOTH",
"33 56 OFFCURVE",
"65 -13 OFFCURVE",
"215 -13 CURVE SMOOTH"
);
}
);
width = 545;
},
{
anchors = (
{
name = bottom;
position = "{213, -3}";
},
{
name = ogonek;
position = "{260, 0}";
},
{
name = top;
position = "{368, 730}";
},
{
name = topright;
position = "{645, 730}";
}
);
layerId = "291433DC-531A-45CC-B814-57D397372F12";
paths = (
{
closed = 1;
nodes = (
"375 -13 OFFCURVE",
"443 62 OFFCURVE",
"487 275 CURVE SMOOTH",
"583 727 LINE",
"492 727 LINE",
"397 282 LINE SMOOTH",
"363 121 OFFCURVE",
"320 71 OFFCURVE",
"221 71 CURVE SMOOTH",
"129 71 OFFCURVE",
"114 114 OFFCURVE",
"147 275 CURVE SMOOTH",
"243 727 LINE",
"152 727 LINE",
"57 282 LINE SMOOTH",
"12 69 OFFCURVE",
"54 -13 OFFCURVE",
"218 -13 CURVE SMOOTH"
);
}
);
width = 545;
}
);
unicode = 0055;
},
{
color = 4;
glyphname = V;
lastChange = "2023-07-14 09:45:09 +0000";
layers = (
{
anchors = (
{
name = bottom;
position = "{213, 0}";
},
{
name = top;
position = "{367, 727}";
}
);
layerId = "7C079D0C-96CD-4BD8-8800-0621C7635A78";
paths = (
{
closed = 1;
nodes = (
"239 0 LINE",
"592 727 LINE",
"542 727 LINE",
"229 82 LINE",
"193 727 LINE",
"145 727 LINE",
"188 0 LINE"
);
}
);
width = 545;
},
{
anchors = (
{
name = bottom;
position = "{213, 0}";
},
{
name = top;
position = "{367, 727}";
}
);
layerId = "291433DC-531A-45CC-B814-57D397372F12";
paths = (
{
closed = 1;
nodes = (
"257 0 LINE",
"621 727 LINE",
"523 727 LINE",
"247 168 LINE",
"210 727 LINE",
"115 727 LINE",
"170 0 LINE"
);
}
);
width = 545;
}
);
unicode = 0056;
},
{
color = 4;
glyphname = W;
lastChange = "2023-07-14 09:45:09 +0000";
layers = (
{
anchors = (
{
name = bottom;
position = "{213, -3}";
},
{
name = top;
position = "{368, 730}";
}
);
layerId = "7C079D0C-96CD-4BD8-8800-0621C7635A78";
paths = (
{
closed = 1;
nodes = (
"116 0 LINE",
"300 405 LINE",
"311 0 LINE",
"357 0 LINE",
"609 727 LINE",
"562 727 LINE",
"348 105 LINE",
"339 487 LINE",
"294 487 LINE",
"121 105 LINE",
"173 727 LINE",
"127 727 LINE",
"70 0 LINE"
);
}
);
width = 545;
},
{
anchors = (
{
name = bottom;
position = "{213, -3}";
},
{
name = top;
position = "{368, 730}";
}
);
layerId = "291433DC-531A-45CC-B814-57D397372F12";
paths = (
{
closed = 1;
nodes = (
"139 0 LINE",
"280 308 LINE",
"293 0 LINE",
"377 0 LINE",
"635 727 LINE",
"542 727 LINE",
"368 230 LINE",
"361 508 LINE",
"279 508 LINE",
"154 230 LINE",
"193 727 LINE",
"102 727 LINE",
"50 0 LINE"
);
}
);
width = 545;
}
);
unicode = 0057;
},
{
color = 4;
glyphname = X;
lastChange = "2023-07-14 09:45:09 +0000";
layers = (
{
anchors = (
{
name = bottom;
position = "{213, 0}";
},
{
name = top;
position = "{367, 727}";
}
);
layerId = "7C079D0C-96CD-4BD8-8800-0621C7635A78";
paths = (
{
closed = 1;
nodes = (
"430 0 LINE",
"200 727 LINE",
"151 727 LINE",
"381 0 LINE"
);
},
{
closed = 1;
nodes = (
"46 0 LINE",
"585 727 LINE",
"535 727 LINE",
"-5 0 LINE"
);
}
);
width = 545;
},
{
anchors = (
{
name = bottom;
position = "{213, 0}";
},
{
name = top;
position = "{367, 727}";
}
);
layerId = "291433DC-531A-45CC-B814-57D397372F12";
paths = (
{
closed = 1;
nodes = (
"465 0 LINE",
"214 727 LINE",
"115 727 LINE",
"367 0 LINE"
);
},
{
closed = 1;
nodes = (
"62 0 LINE",
"623 727 LINE",
"519 727 LINE",
"-42 0 LINE"
);
}
);
width = 545;
}
);
unicode = 0058;
},
{
color = 4;
glyphname = Y;
lastChange = "2023-07-14 09:45:09 +0000";
layers = (
{
anchors = (
{
name = bottom;
position = "{213, -3}";
},
{
name = top;
position = "{368, 730}";
},
{
name = topleft;
position = "{91, 730}";
}
);
layerId = "7C079D0C-96CD-4BD8-8800-0621C7635A78";
paths = (
{
closed = 1;
nodes = (
"235 0 LINE",
"296 280 LINE",
"603 727 LINE",
"552 727 LINE",
"284 336 LINE",
"183 727 LINE",
"134 727 LINE",
"251 280 LINE",
"190 0 LINE"
);
}
);
width = 545;
},
{
anchors = (
{
name = bottom;
position = "{213, -3}";
},
{
name = top;
position = "{368, 730}";
},
{
name = topleft;
position = "{91, 730}";
}
);
layerId = "291433DC-531A-45CC-B814-57D397372F12";
paths = (
{
closed = 1;
nodes = (
"258 0 LINE",
"316 266 LINE",
"638 727 LINE",
"536 727 LINE",
"291 380 LINE",
"196 727 LINE",
"100 727 LINE",
"225 266 LINE",
"167 0 LINE"
);
}
);
width = 545;
}
);
unicode = 0059;
},
{
color = 4;
glyphname = Z;
lastChange = "2023-07-14 09:45:09 +0000";
layers = (
{
anchors = (
{
name = bottom;
position = "{213, 0}";
},
{
name = center;
position = "{290, 364}";
},
{
name = top;
position = "{367, 727}";
}
);
layerId = "7C079D0C-96CD-4BD8-8800-0621C7635A78";
paths = (
{
closed = 1;
nodes = (
"522 -57 OFFCURVE",
"562 0 OFFCURVE",
"621 0 CURVE",
"630 42 LINE",
"544 42 OFFCURVE",
"504 -15 OFFCURVE",
"417 -15 CURVE SMOOTH",
"333 -15 OFFCURVE",
"270 53 OFFCURVE",
"160 53 CURVE SMOOTH",
"118 53 OFFCURVE",
"96 42 OFFCURVE",
"57 42 CURVE",
"579 689 LINE",
"586 727 LINE",
"150 727 LINE",
"142 685 LINE",
"524 685 LINE",
"1 37 LINE",
"-6 0 LINE",
"94 0 OFFCURVE",
"123 11 OFFCURVE",
"150 11 CURVE SMOOTH",
"252 11 OFFCURVE",
"323 -57 OFFCURVE",
"408 -57 CURVE SMOOTH"
);
}
);
width = 545;
},
{
anchors = (
{
name = bottom;
position = "{213, 0}";
},
{
name = center;
position = "{290, 364}";
},
{
name = top;
position = "{367, 727}";
}
);
layerId = "291433DC-531A-45CC-B814-57D397372F12";
paths = (
{
closed = 1;
nodes = (
"575 -57 OFFCURVE",
"565 14 OFFCURVE",
"639 -1 CURVE",
"665 83 LINE",
"537 93 OFFCURVE",
"514 26 OFFCURVE",
"426 26 CURVE SMOOTH",
"348 26 OFFCURVE",
"276 95 OFFCURVE",
"160 95 CURVE SMOOTH",
"136 95 OFFCURVE",
"121 93 OFFCURVE",
"109 91 CURVE",
"595 663 LINE",
"609 727 LINE",
"126 727 LINE",
"111 644 LINE",
"476 644 LINE",
"-15 65 LINE",
"-30 0 LINE",
"105 -2 OFFCURVE",
"111 11 OFFCURVE",
"141 11 CURVE SMOOTH",
"236 11 OFFCURVE",
"316 -57 OFFCURVE",
"408 -57 CURVE SMOOTH"
);
}
);
width = 545;
}
);
unicode = 005A;
},
{
color = 4;
glyphname = a;
lastChange = "2023-07-14 09:45:09 +0000";
layers = (
{
anchors = (
{
name = bottom;
position = "{213, 0}";
},
{
name = ogonek;
position = "{429, 2}";
},
{
name = top;
position = "{333, 562}";
}
);
background = {
anchors = (
{
name = bottom;
position = "{213, -3}";
},
{
name = ogonek;
position = "{451, 6}";
},
{
name = top;
position = "{333, 593}";
}
);
paths = (
{
closed = 1;
nodes = (
"459 379 LINE SMOOTH",
"490 526 OFFCURVE",
"454 575 OFFCURVE",
"307 575 CURVE SMOOTH",
"205 575 OFFCURVE",
"159 547 OFFCURVE",
"111 455 CURVE",
"153 440 LINE",
"188 509 OFFCURVE",
"226 533 OFFCURVE",
"306 533 CURVE SMOOTH",
"414 533 OFFCURVE",
"439 498 OFFCURVE",
"415 383 CURVE SMOOTH",
"402 322 LINE",
"255 322 LINE SMOOTH",
"111 322 OFFCURVE",
"60 283 OFFCURVE",
"33 155 CURVE SMOOTH",
"6 28 OFFCURVE",
"45 -13 OFFCURVE",
"191 -13 CURVE SMOOTH",
"292 -13 OFFCURVE",
"333 5 OFFCURVE",
"363 68 CURVE",
"362 19 OFFCURVE",
"384 0 OFFCURVE",
"451 0 CURVE",
"456 42 LINE",
"403 42 OFFCURVE",
"392 65 OFFCURVE",
"408 140 CURVE SMOOTH"
);
},
{
closed = 1;
nodes = (
"85 29 OFFCURVE",
"58 56 OFFCURVE",
"77 147 CURVE SMOOTH",
"98 247 OFFCURVE",
"143 280 OFFCURVE",
"251 280 CURVE SMOOTH",
"393 280 LINE",
"375 198 LINE SMOOTH",
"348 71 OFFCURVE",
"303 29 OFFCURVE",
"192 29 CURVE SMOOTH"
);
}
);
};
layerId = "7C079D0C-96CD-4BD8-8800-0621C7635A78";
paths = (
{
closed = 1;
nodes = (
"438 36 OFFCURVE",
"422 29 OFFCURVE",
"408 29 CURVE SMOOTH",
"373 29 OFFCURVE",
"373 52 OFFCURVE",
"378 86 CURVE",
"449 421 OFFCURVE",
"462 482 OFFCURVE",
"462 495 CURVE SMOOTH",
"462 558 OFFCURVE",
"406 575 OFFCURVE",
"330 575 CURVE SMOOTH",
"193 575 OFFCURVE",
"29 330 OFFCURVE",
"29 145 CURVE SMOOTH",
"29 50 OFFCURVE",
"90 -13 OFFCURVE",
"182 -13 CURVE SMOOTH",
"241 -13 OFFCURVE",
"303 34 OFFCURVE",
"337 103 CURVE",
"333 90 OFFCURVE",
"329 65 OFFCURVE",
"329 40 CURVE SMOOTH",
"329 8 OFFCURVE",
"355 -13 OFFCURVE",
"392 -13 CURVE SMOOTH",
"423 -13 OFFCURVE",
"455 -2 OFFCURVE",
"472 15 CURVE",
"450 48 LINE"
);
},
{
closed = 1;
nodes = (
"117 29 OFFCURVE",
"75 75 OFFCURVE",
"75 145 CURVE SMOOTH",
"75 305 OFFCURVE",
"220 533 OFFCURVE",
"330 533 CURVE SMOOTH",
"391 533 OFFCURVE",
"416 524 OFFCURVE",
"416 491 CURVE SMOOTH",
"416 471 OFFCURVE",
"396 377 OFFCURVE",
"365 234 CURVE",
"327 111 OFFCURVE",
"254 29 OFFCURVE",
"182 29 CURVE SMOOTH"
);
}
);
width = 545;
},
{
anchors = (
{
name = bottom;
position = "{213, 0}";
},
{
name = ogonek;
position = "{423, 10}";
},
{
name = top;
position = "{332, 562}";
}
);
layerId = "291433DC-531A-45CC-B814-57D397372F12";
paths = (
{
closed = 1;
nodes = (
"451 86 OFFCURVE",
"433 71 OFFCURVE",
"417 71 CURVE SMOOTH",
"395 71 OFFCURVE",
"396 81 OFFCURVE",
"402 109 CURVE",
"475 437 OFFCURVE",
"479 464 OFFCURVE",
"477 479 CURVE SMOOTH",
"477 545 OFFCURVE",
"431 575 OFFCURVE",
"330 575 CURVE SMOOTH",
"180 575 OFFCURVE",
"14 365 OFFCURVE",
"15 161 CURVE SMOOTH",
"12 57 OFFCURVE",
"79 -13 OFFCURVE",
"182 -13 CURVE SMOOTH",
"225 -13 OFFCURVE",
"272 8 OFFCURVE",
"308 45 CURVE",
"306 47 OFFCURVE",
"309 45 OFFCURVE",
"311 49 CURVE",
"313 15 OFFCURVE",
"345 -13 OFFCURVE",
"392 -13 CURVE SMOOTH",
"435 -13 OFFCURVE",
"485 6 OFFCURVE",
"501 36 CURVE",
"464 110 LINE"
);
},
{
closed = 1;
nodes = (
"137 71 OFFCURVE",
"100 110 OFFCURVE",
"98 170 CURVE SMOOTH",
"100 318 OFFCURVE",
"230 491 OFFCURVE",
"321 491 CURVE SMOOTH",
"375 491 OFFCURVE",
"390 485 OFFCURVE",
"392 466 CURVE SMOOTH",
"391 447 OFFCURVE",
"370 355 OFFCURVE",
"346 235 CURVE",
"315 145 OFFCURVE",
"249 71 OFFCURVE",
"191 71 CURVE SMOOTH"
);
}
);
width = 545;
}
);
unicode = 0061;
},
{
color = 4;
glyphname = ae;
lastChange = "2023-07-14 09:45:09 +0000";
layers = (
{
anchors = (
{
name = bottom;
position = "{213, 0}";
},
{
name = top;
position = "{332, 562}";
}
);
background = {
paths = (
{
closed = 1;
nodes = (
"158 -13 OFFCURVE",
"193 10 OFFCURVE",
"235 89 CURVE",
"251 14 OFFCURVE",
"276 -13 OFFCURVE",
"341 -13 CURVE SMOOTH",
"395 -13 OFFCURVE",
"427 7 OFFCURVE",
"475 76 CURVE",
"442 105 LINE",
"400 48 OFFCURVE",
"375 29 OFFCURVE",
"342 29 CURVE SMOOTH",
"265 29 OFFCURVE",
"254 87 OFFCURVE",
"294 278 CURVE",
"530 278 LINE",
"578 502 OFFCURVE",
"560 575 OFFCURVE",
"457 575 CURVE SMOOTH",
"385 575 OFFCURVE",
"352 553 OFFCURVE",
"315 475 CURVE",
"305 549 OFFCURVE",
"279 575 OFFCURVE",
"204 575 CURVE SMOOTH",
"133 575 OFFCURVE",
"99 547 OFFCURVE",
"60 455 CURVE",
"104 440 LINE",
"132 509 OFFCURVE",
"156 533 OFFCURVE",
"203 533 CURVE SMOOTH",
"280 533 OFFCURVE",
"295 498 OFFCURVE",
"271 383 CURVE SMOOTH",
"258 322 LINE",
"179 322 LINE SMOOTH",
"59 322 OFFCURVE",
"15 283 OFFCURVE",
"-13 155 CURVE SMOOTH",
"-39 28 OFFCURVE",
"-15 -13 OFFCURVE",
"87 -13 CURVE SMOOTH"
);
},
{
closed = 1;
nodes = (
"25 29 OFFCURVE",
"13 56 OFFCURVE",
"32 147 CURVE SMOOTH",
"53 247 OFFCURVE",
"89 280 OFFCURVE",
"175 280 CURVE SMOOTH",
"249 280 LINE",
"232 198 LINE SMOOTH",
"205 71 OFFCURVE",
"169 29 OFFCURVE",
"88 29 CURVE SMOOTH"
);
},
{
closed = 1;
nodes = (
"337 480 OFFCURVE",
"375 533 OFFCURVE",
"456 533 CURVE SMOOTH",
"520 533 OFFCURVE",
"528 484 OFFCURVE",
"495 324 CURVE",
"303 320 LINE"
);
}
);
};
layerId = "7C079D0C-96CD-4BD8-8800-0621C7635A78";
paths = (
{
closed = 1;
nodes = (
"140 -13 OFFCURVE",
"211 36 OFFCURVE",
"240 107 CURVE",
"244 33 OFFCURVE",
"286 -13 OFFCURVE",
"350 -13 CURVE SMOOTH",
"392 -13 OFFCURVE",
"458 23 OFFCURVE",
"485 76 CURVE",
"451 105 LINE",
"435 59 OFFCURVE",
"384 29 OFFCURVE",
"352 29 CURVE SMOOTH",
"261 29 OFFCURVE",
"265 129 OFFCURVE",
"294 278 CURVE",
"530 278 LINE",
"568 456 OFFCURVE",
"539 575 OFFCURVE",
"457 575 CURVE SMOOTH",
"408 575 OFFCURVE",
"352 532 OFFCURVE",
"316 467 CURVE",
"309 532 OFFCURVE",
"271 575 OFFCURVE",
"222 575 CURVE SMOOTH",
"162 575 OFFCURVE",
"97 526 OFFCURVE",
"60 455 CURVE",
"104 440 LINE",
"134 495 OFFCURVE",
"181 533 OFFCURVE",
"221 533 CURVE SMOOTH",
"270 533 OFFCURVE",
"289 473 OFFCURVE",
"271 383 CURVE SMOOTH",
"258 320 LINE",
"179 320 LINE SMOOTH",
"85 320 OFFCURVE",
"9 255 OFFCURVE",
"-13 155 CURVE SMOOTH",
"-34 55 OFFCURVE",
"6 -13 OFFCURVE",
"87 -13 CURVE SMOOTH"
);
},
{
closed = 1;
nodes = (
"40 29 OFFCURVE",
"17 76 OFFCURVE",
"32 147 CURVE SMOOTH",
"48 227 OFFCURVE",
"105 280 OFFCURVE",
"175 280 CURVE SMOOTH",
"249 280 LINE",
"232 198 LINE SMOOTH",
"210 96 OFFCURVE",
"153 29 OFFCURVE",
"88 29 CURVE SMOOTH"
);
},
{
closed = 1;
nodes = (
"330 447 OFFCURVE",
"392 533 OFFCURVE",
"456 533 CURVE SMOOTH",
"501 533 OFFCURVE",
"516 447 OFFCURVE",
"495 320 CURVE",
"303 320 LINE"
);
}
);
width = 545;
},
{
anchors = (
{
name = bottom;
position = "{213, 0}";
},
{
name = top;
position = "{332, 562}";
}
);
layerId = "291433DC-531A-45CC-B814-57D397372F12";
paths = (
{
closed = 1;
nodes = (
"135 -13 OFFCURVE",
"189 18 OFFCURVE",
"235 75 CURVE",
"251 22 OFFCURVE",
"285 -13 OFFCURVE",
"350 -13 CURVE SMOOTH",
"404 -13 OFFCURVE",
"484 32 OFFCURVE",
"518 104 CURVE",
"455 159 LINE",
"444 110 OFFCURVE",
"387 71 OFFCURVE",
"360 71 CURVE SMOOTH",
"289 71 OFFCURVE",
"293 154 OFFCURVE",
"311 257 CURVE",
"546 257 LINE",
"590 442 OFFCURVE",
"558 575 OFFCURVE",
"457 575 CURVE SMOOTH",
"414 575 OFFCURVE",
"365 548 OFFCURVE",
"323 499 CURVE",
"305 544 OFFCURVE",
"270 575 OFFCURVE",
"222 575 CURVE SMOOTH",
"146 575 OFFCURVE",
"65 513 OFFCURVE",
"26 419 CURVE",
"108 393 LINE",
"132 448 OFFCURVE",
"178 491 OFFCURVE",
"212 491 CURVE SMOOTH",
"246 491 OFFCURVE",
"262 439 OFFCURVE",
"250 383 CURVE SMOOTH",
"241 341 LINE",
"184 341 LINE SMOOTH",
"77 341 OFFCURVE",
"-4 285 OFFCURVE",
"-28 173 CURVE SMOOTH",
"-53 64 OFFCURVE",
"-6 -13 OFFCURVE",
"87 -13 CURVE SMOOTH"
);
},
{
closed = 1;
nodes = (
"63 71 OFFCURVE",
"45 110 OFFCURVE",
"55 165 CURVE SMOOTH",
"68 235 OFFCURVE",
"115 259 OFFCURVE",
"170 259 CURVE SMOOTH",
"224 259 LINE",
"214 207 LINE SMOOTH",
"199 130 OFFCURVE",
"147 71 OFFCURVE",
"97 71 CURVE SMOOTH"
);
},
{
closed = 1;
nodes = (
"350 420 OFFCURVE",
"401 491 OFFCURVE",
"447 491 CURVE SMOOTH",
"477 491 OFFCURVE",
"490 421 OFFCURVE",
"478 342 CURVE",
"329 340 LINE"
);
}
);
width = 545;
}
);
unicode = 00E6;
},
{
color = 4;
glyphname = b;
lastChange = "2023-07-14 09:45:09 +0000";
layers = (
{
anchors = (
{
name = bottom;
position = "{213, 0}";
},
{
name = top;
position = "{406, 909}";
}
);
background = {
paths = (
{
closed = 1;
nodes = (
"366 -13 OFFCURVE",
"425 55 OFFCURVE",
"472 276 CURVE SMOOTH",
"520 502 OFFCURVE",
"488 575 OFFCURVE",
"342 575 CURVE SMOOTH",
"278 575 OFFCURVE",
"240 557 OFFCURVE",
"184 498 CURVE",
"234 727 LINE",
"188 727 LINE",
"49 66 LINE",
"85 7 OFFCURVE",
"127 -13 OFFCURVE",
"225 -13 CURVE SMOOTH"
);
},
{
closed = 1;
nodes = (
"156 29 OFFCURVE",
"125 40 OFFCURVE",
"95 78 CURVE",
"159 375 LINE",
"208 494 OFFCURVE",
"253 533 OFFCURVE",
"341 533 CURVE SMOOTH",
"448 533 OFFCURVE",
"468 474 OFFCURVE",
"428 284 CURVE SMOOTH",
"387 91 OFFCURVE",
"337 29 OFFCURVE",
"226 29 CURVE SMOOTH"
);
}
);
};
layerId = "7C079D0C-96CD-4BD8-8800-0621C7635A78";
paths = (
{
closed = 1;
nodes = (
"515 398 OFFCURVE",
"498 398 OFFCURVE",
"483 398 CURVE",
"492 476 OFFCURVE",
"475 514 OFFCURVE",
"413 514 CURVE SMOOTH",
"363 514 OFFCURVE",
"335 481 OFFCURVE",
"335 440 CURVE SMOOTH",
"335 388 OFFCURVE",
"374 360 OFFCURVE",
"430 360 CURVE",
"381 162 OFFCURVE",
"294 29 OFFCURVE",
"211 29 CURVE SMOOTH",
"96 29 OFFCURVE",
"96 113 OFFCURVE",
"120 238 CURVE",
"225 727 LINE",
"179 727 LINE",
"75 238 LINE",
"47 87 OFFCURVE",
"65 -13 OFFCURVE",
"210 -13 CURVE SMOOTH",
"317 -13 OFFCURVE",
"423 135 OFFCURVE",
"475 356 CURVE",
"490 356 OFFCURVE",
"507 356 OFFCURVE",
"526 356 CURVE",
"534 398 LINE"
);
},
{
closed = 1;
nodes = (
"374 461 OFFCURVE",
"384 479 OFFCURVE",
"408 479 CURVE SMOOTH",
"444 479 OFFCURVE",
"443 438 OFFCURVE",
"436 401 CURVE",
"398 401 OFFCURVE",
"374 414 OFFCURVE",
"374 444 CURVE SMOOTH"
);
}
);
width = 545;
},
{
anchors = (
{
name = bottom;
position = "{213, 0}";
},
{
name = top;
position = "{406, 909}";
}
);
background = {
paths = (
{
closed = 1;
nodes = (
"385 -13 OFFCURVE",
"449 65 OFFCURVE",
"494 273 CURVE SMOOTH",
"540 489 OFFCURVE",
"501 575 OFFCURVE",
"338 575 CURVE SMOOTH",
"290 575 OFFCURVE",
"249 565 OFFCURVE",
"215 543 CURVE",
"256 727 LINE",
"165 727 LINE",
"31 82 LINE",
"71 14 OFFCURVE",
"121 -13 OFFCURVE",
"229 -13 CURVE SMOOTH"
);
},
{
closed = 1;
nodes = (
"173 71 OFFCURVE",
"147 76 OFFCURVE",
"122 105 CURVE",
"177 352 LINE SMOOTH",
"200 460 OFFCURVE",
"235 491 OFFCURVE",
"335 491 CURVE SMOOTH",
"425 491 OFFCURVE",
"439 445 OFFCURVE",
"405 287 CURVE SMOOTH",
"371 124 OFFCURVE",
"328 71 OFFCURVE",
"232 71 CURVE SMOOTH"
);
}
);
};
layerId = "291433DC-531A-45CC-B814-57D397372F12";
paths = (
{
closed = 1;
nodes = (
"540 419 OFFCURVE",
"522 418 OFFCURVE",
"505 416 CURVE",
"514 495 OFFCURVE",
"478 535 OFFCURVE",
"417 535 CURVE SMOOTH",
"356 535 OFFCURVE",
"314 493 OFFCURVE",
"315 435 CURVE SMOOTH",
"315 382 OFFCURVE",
"348 348 OFFCURVE",
"405 342 CURVE",
"363 192 OFFCURVE",
"285 71 OFFCURVE",
"220 71 CURVE SMOOTH",
"137 71 OFFCURVE",
"119 116 OFFCURVE",
"143 247 CURVE",
"246 727 LINE",
"156 727 LINE",
"55 247 LINE",
"24 70 OFFCURVE",
"68 -13 OFFCURVE",
"210 -13 CURVE SMOOTH",
"328 -13 OFFCURVE",
"437 132 OFFCURVE",
"491 332 CURVE",
"509 335 OFFCURVE",
"526 336 OFFCURVE",
"542 335 CURVE",
"564 419 LINE"
);
},
{
closed = 1;
nodes = (
"373 461 OFFCURVE",
"381 475 OFFCURVE",
"402 475 CURVE SMOOTH",
"431 475 OFFCURVE",
"431 443 OFFCURVE",
"425 412 CURVE",
"394 412 OFFCURVE",
"373 422 OFFCURVE",
"373 447 CURVE SMOOTH"
);
}
);
width = 545;
}
);
unicode = 0062;
},
{
color = 4;
glyphname = c;
lastChange = "2023-07-14 09:45:09 +0000";
layers = (
{
anchors = (
{
name = bottom;
position = "{213, 0}";
},
{
name = top;
position = "{332, 562}";
}
);
layerId = "7C079D0C-96CD-4BD8-8800-0621C7635A78";
paths = (
{
closed = 1;
nodes = (
"335 47 OFFCURVE",
"296 29 OFFCURVE",
"210 29 CURVE SMOOTH",
"103 29 OFFCURVE",
"76 88 OFFCURVE",
"116 277 CURVE SMOOTH",
"149 431 OFFCURVE",
"255 533 OFFCURVE",
"346 533 CURVE SMOOTH",
"412 533 OFFCURVE",
"441 515 OFFCURVE",
"467 461 CURVE",
"508 480 LINE",
"475 552 OFFCURVE",
"436 575 OFFCURVE",
"347 575 CURVE SMOOTH",
"235 575 OFFCURVE",
"111 458 OFFCURVE",
"73 285 CURVE SMOOTH",
"23 58 OFFCURVE",
"62 -13 OFFCURVE",
"209 -13 CURVE SMOOTH",
"315 -13 OFFCURVE",
"363 9 OFFCURVE",
"425 79 CURVE",
"389 105 LINE"
);
}
);
width = 545;
},
{
anchors = (
{
name = bottom;
position = "{213, 0}";
},
{
name = top;
position = "{332, 562}";
}
);
layerId = "291433DC-531A-45CC-B814-57D397372F12";
paths = (
{
closed = 1;
nodes = (
"335 88 OFFCURVE",
"306 71 OFFCURVE",
"219 71 CURVE SMOOTH",
"125 71 OFFCURVE",
"98 115 OFFCURVE",
"135 277 CURVE SMOOTH",
"163 396 OFFCURVE",
"253 491 OFFCURVE",
"337 491 CURVE SMOOTH",
"401 491 OFFCURVE",
"424 475 OFFCURVE",
"451 410 CURVE",
"532 455 LINE",
"495 544 OFFCURVE",
"453 575 OFFCURVE",
"347 575 CURVE SMOOTH",
"215 575 OFFCURVE",
"87 448 OFFCURVE",
"54 285 CURVE SMOOTH",
"7 63 OFFCURVE",
"45 -13 OFFCURVE",
"209 -13 CURVE SMOOTH",
"326 -13 OFFCURVE",
"384 14 OFFCURVE",
"459 106 CURVE",
"395 155 LINE"
);
}
);
width = 545;
}
);
unicode = 0063;
},
{
color = 4;
glyphname = d;
lastChange = "2023-07-14 09:45:09 +0000";
layers = (
{
anchors = (
{
name = bottom;
position = "{213, 0}";
},
{
name = center;
position = "{273, 281}";
},
{
name = top;
position = "{406, 909}";
},
{
name = topright;
position = "{587, 562}";
}
);
layerId = "7C079D0C-96CD-4BD8-8800-0621C7635A78";
paths = (
{
closed = 1;
nodes = (
"399 29 OFFCURVE",
"399 52 OFFCURVE",
"405 86 CURVE SMOOTH",
"541 727 LINE",
"495 727 LINE",
"445 491 LINE",
"435 541 OFFCURVE",
"387 575 OFFCURVE",
"326 575 CURVE SMOOTH",
"193 575 OFFCURVE",
"92 458 OFFCURVE",
"55 284 CURVE SMOOTH",
"8 58 OFFCURVE",
"40 -13 OFFCURVE",
"174 -13 CURVE SMOOTH",
"257 -13 OFFCURVE",
"323 5 OFFCURVE",
"355 49 CURVE",
"355 6 OFFCURVE",
"378 -13 OFFCURVE",
"418 -13 CURVE SMOOTH",
"449 -13 OFFCURVE",
"481 -2 OFFCURVE",
"498 15 CURVE",
"476 48 LINE",
"465 36 OFFCURVE",
"448 29 OFFCURVE",
"435 29 CURVE SMOOTH"
);
},
{
closed = 1;
nodes = (
"81 29 OFFCURVE",
"59 88 OFFCURVE",
"99 276 CURVE SMOOTH",
"132 430 OFFCURVE",
"215 533 OFFCURVE",
"325 533 CURVE SMOOTH",
"397 533 OFFCURVE",
"436 472 OFFCURVE",
"423 380 CURVE",
"364 111 LINE",
"339 62 OFFCURVE",
"264 29 OFFCURVE",
"175 29 CURVE SMOOTH"
);
}
);
width = 545;
},
{
anchors = (
{
name = bottom;
position = "{213, 0}";
},
{
name = center;
position = "{273, 281}";
},
{
name = top;
position = "{406, 909}";
},
{
name = topright;
position = "{587, 562}";
}
);
layerId = "291433DC-531A-45CC-B814-57D397372F12";
paths = (
{
closed = 1;
nodes = (
"423 71 OFFCURVE",
"425 85 OFFCURVE",
"430 108 CURVE",
"563 727 LINE",
"473 727 LINE",
"429 536 LINE",
"405 559 OFFCURVE",
"370 575 OFFCURVE",
"326 575 CURVE SMOOTH",
"183 575 OFFCURVE",
"70 456 OFFCURVE",
"36 284 CURVE SMOOTH",
"-5 70 OFFCURVE",
"24 -13 OFFCURVE",
"174 -13 CURVE SMOOTH",
"273 -13 OFFCURVE",
"313 9 OFFCURVE",
"339 43 CURVE",
"341 3 OFFCURVE",
"369 -13 OFFCURVE",
"418 -13 CURVE SMOOTH",
"461 -13 OFFCURVE",
"511 6 OFFCURVE",
"527 36 CURVE",
"490 110 LINE",
"477 86 OFFCURVE",
"459 71 OFFCURVE",
"444 71 CURVE SMOOTH"
);
},
{
closed = 1;
nodes = (
"104 71 OFFCURVE",
"85 125 OFFCURVE",
"119 276 CURVE SMOOTH",
"147 405 OFFCURVE",
"225 491 OFFCURVE",
"316 491 CURVE SMOOTH",
"375 491 OFFCURVE",
"409 442 OFFCURVE",
"399 370 CURVE",
"347 135 LINE",
"326 99 OFFCURVE",
"263 71 OFFCURVE",
"184 71 CURVE SMOOTH"
);
}
);
width = 545;
}
);
unicode = 0064;
},
{
color = 4;
glyphname = eth;
lastChange = "2023-07-14 09:45:09 +0000";
layers = (
{
layerId = "7C079D0C-96CD-4BD8-8800-0621C7635A78";
paths = (
{
closed = 1;
nodes = (
"339 -13 OFFCURVE",
"426 71 OFFCURVE",
"465 223 CURVE SMOOTH",
"510 405 OFFCURVE",
"466 465 OFFCURVE",
"326 465 CURVE SMOOTH",
"188 465 OFFCURVE",
"87 371 OFFCURVE",
"57 230 CURVE SMOOTH",
"18 45 OFFCURVE",
"55 -13 OFFCURVE",
"187 -13 CURVE SMOOTH"
);
},
{
closed = 1;
nodes = (
"97 29 OFFCURVE",
"70 75 OFFCURVE",
"101 223 CURVE SMOOTH",
"127 344 OFFCURVE",
"210 424 OFFCURVE",
"325 424 CURVE SMOOTH",
"425 424 OFFCURVE",
"458 375 OFFCURVE",
"421 230 CURVE SMOOTH",
"389 105 OFFCURVE",
"312 29 OFFCURVE",
"188 29 CURVE SMOOTH"
);
},
{
closed = 1;
nodes = (
"445 685 OFFCURVE",
"494 575 OFFCURVE",
"421 228 CURVE",
"465 225 LINE",
"547 606 OFFCURVE",
"490 727 OFFCURVE",
"226 727 CURVE",
"222 685 LINE"
);
},
{
closed = 1;
nodes = (
"224 580 LINE",
"239 544 LINE",
"535 691 LINE",
"520 727 LINE"
);
}
);
width = 545;
},
{
layerId = "291433DC-531A-45CC-B814-57D397372F12";
paths = (
{
closed = 1;
nodes = (
"346 -13 OFFCURVE",
"446 83 OFFCURVE",
"486 230 CURVE SMOOTH",
"533 407 OFFCURVE",
"486 475 OFFCURVE",
"328 475 CURVE SMOOTH",
"181 475 OFFCURVE",
"71 393 OFFCURVE",
"39 239 CURVE SMOOTH",
"4 67 OFFCURVE",
"39 -13 OFFCURVE",
"187 -13 CURVE SMOOTH"
);
},
{
closed = 1;
nodes = (
"119 80 OFFCURVE",
"95 122 OFFCURVE",
"123 232 CURVE SMOOTH",
"149 343 OFFCURVE",
"219 391 OFFCURVE",
"318 391 CURVE SMOOTH",
"408 391 OFFCURVE",
"435 365 OFFCURVE",
"404 241 CURVE SMOOTH",
"379 141 OFFCURVE",
"305 80 OFFCURVE",
"199 80 CURVE SMOOTH"
);
},
{
closed = 1;
nodes = (
"424 652 OFFCURVE",
"472 559 OFFCURVE",
"396 215 CURVE",
"485 215 LINE",
"573 613 OFFCURVE",
"505 734 OFFCURVE",
"205 727 CURVE",
"189 644 LINE"
);
},
{
closed = 1;
nodes = (
"189 566 LINE",
"220 494 LINE",
"561 663 LINE",
"530 738 LINE"
);
}
);
width = 545;
}
);
unicode = 00F0;
},
{
color = 4;
glyphname = dcroat;
lastChange = "2023-07-14 09:45:09 +0000";
layers = (
{
components = (
{
name = d;
}
);
layerId = "7C079D0C-96CD-4BD8-8800-0621C7635A78";
paths = (
{
closed = 1;
nodes = (
"590 620 LINE",
"599 662 LINE",
"381 662 LINE",
"372 620 LINE"
);
}
);
width = 545;
},
{
components = (
{
name = d;
}
);
layerId = "291433DC-531A-45CC-B814-57D397372F12";
paths = (
{
closed = 1;
nodes = (
"608 597 LINE",
"626 681 LINE",
"358 681 LINE",
"340 597 LINE"
);
}
);
width = 545;
}
);
unicode = 0111;
},
{
color = 4;
glyphname = e;
lastChange = "2023-07-14 09:45:09 +0000";
layers = (
{
anchors = (
{
name = bottom;
position = "{213, 0}";
},
{
name = ogonek;
position = "{326, 14}";
},
{
name = top;
position = "{332, 562}";
}
);
background = {
paths = (
{
closed = 1;
nodes = (
"330 48 OFFCURVE",
"290 29 OFFCURVE",
"218 29 CURVE SMOOTH",
"95 29 OFFCURVE",
"69 90 OFFCURVE",
"111 285 CURVE SMOOTH",
"151 473 OFFCURVE",
"205 533 OFFCURVE",
"333 533 CURVE SMOOTH",
"436 533 OFFCURVE",
"460 484 OFFCURVE",
"435 324 CURVE",
"100 322 LINE",
"91 280 LINE",
"471 278 LINE",
"519 502 OFFCURVE",
"485 575 OFFCURVE",
"334 575 CURVE SMOOTH",
"176 575 OFFCURVE",
"112 505 OFFCURVE",
"65 285 CURVE SMOOTH",
"17 60 OFFCURVE",
"55 -13 OFFCURVE",
"217 -13 CURVE SMOOTH",
"305 -13 OFFCURVE",
"354 7 OFFCURVE",
"420 76 CURVE",
"386 105 LINE"
);
},
{
closed = 0;
nodes = (
"749 14 LINE"
);
}
);
};
layerId = "7C079D0C-96CD-4BD8-8800-0621C7635A78";
paths = (
{
closed = 1;
nodes = (
"372 64 OFFCURVE",
"297 32 OFFCURVE",
"236 32 CURVE SMOOTH",
"176 32 OFFCURVE",
"127 78 OFFCURVE",
"127 145 CURVE SMOOTH",
"127 368 OFFCURVE",
"227 533 OFFCURVE",
"364 533 CURVE SMOOTH",
"403 533 OFFCURVE",
"439 509 OFFCURVE",
"439 458 CURVE SMOOTH",
"439 251 OFFCURVE",
"78 245 OFFCURVE",
"15 181 CURVE",
"37 144 LINE",
"92 201 OFFCURVE",
"485 214 OFFCURVE",
"485 458 CURVE SMOOTH",
"485 540 OFFCURVE",
"436 575 OFFCURVE",
"365 575 CURVE SMOOTH",
"200 575 OFFCURVE",
"82 395 OFFCURVE",
"82 148 CURVE SMOOTH",
"82 53 OFFCURVE",
"147 -13 OFFCURVE",
"231 -13 CURVE SMOOTH",
"303 -13 OFFCURVE",
"389 22 OFFCURVE",
"447 75 CURVE",
"424 112 LINE"
);
}
);
width = 545;
},
{
anchors = (
{
name = bottom;
position = "{213, 0}";
},
{
name = ogonek;
position = "{348, 35}";
},
{
name = top;
position = "{332, 562}";
}
);
layerId = "291433DC-531A-45CC-B814-57D397372F12";
paths = (
{
closed = 1;
nodes = (
"391 114 OFFCURVE",
"310 74 OFFCURVE",
"245 74 CURVE SMOOTH",
"194 74 OFFCURVE",
"151 112 OFFCURVE",
"151 167 CURVE SMOOTH",
"151 368 OFFCURVE",
"236 491 OFFCURVE",
"355 491 CURVE SMOOTH",
"389 491 OFFCURVE",
"415 468 OFFCURVE",
"415 432 CURVE SMOOTH",
"415 251 OFFCURVE",
"37 288 OFFCURVE",
"-4 195 CURVE",
"32 125 LINE",
"97 194 OFFCURVE",
"500 197 OFFCURVE",
"500 442 CURVE SMOOTH",
"500 527 OFFCURVE",
"454 575 OFFCURVE",
"365 575 CURVE SMOOTH",
"184 575 OFFCURVE",
"66 414 OFFCURVE",
"66 162 CURVE SMOOTH",
"66 60 OFFCURVE",
"135 -13 OFFCURVE",
"231 -13 CURVE SMOOTH",
"313 -13 OFFCURVE",
"415 30 OFFCURVE",
"479 95 CURVE",
"438 169 LINE"
);
}
);
width = 545;
}
);
unicode = 0065;
},
{
color = 4;
glyphname = f;
lastChange = "2023-07-14 09:45:09 +0000";
layers = (
{
anchors = (
{
name = bottom;
position = "{213, 0}";
},
{
name = top;
position = "{406, 909}";
}
);
background = {
paths = (
{
closed = 1;
nodes = (
"408 405 LINE",
"417 447 LINE",
"97 447 LINE",
"88 405 LINE"
);
},
{
closed = 1;
nodes = (
"115 0 LINE",
"160 0 LINE",
"278 553 LINE SMOOTH",
"301 662 OFFCURVE",
"342 698 OFFCURVE",
"440 698 CURVE SMOOTH",
"509 698 OFFCURVE",
"533 687 OFFCURVE",
"540 646 CURVE",
"584 657 LINE",
"574 719 OFFCURVE",
"539 740 OFFCURVE",
"441 740 CURVE SMOOTH",
"312 740 OFFCURVE",
"263 697 OFFCURVE",
"233 556 CURVE SMOOTH"
);
}
);
};
layerId = "7C079D0C-96CD-4BD8-8800-0621C7635A78";
paths = (
{
closed = 1;
nodes = (
"272 -187 OFFCURVE",
"339 -84 OFFCURVE",
"339 71 CURVE SMOOTH",
"339 166 OFFCURVE",
"285 241 OFFCURVE",
"203 304 CURVE",
"209 325 OFFCURVE",
"216 347 OFFCURVE",
"221 360 CURVE",
"455 360 LINE",
"464 402 LINE",
"235 402 LINE",
"294 580 OFFCURVE",
"333 698 OFFCURVE",
"420 698 CURVE SMOOTH",
"484 698 OFFCURVE",
"502 660 OFFCURVE",
"510 602 CURVE",
"552 616 LINE",
"540 691 OFFCURVE",
"503 740 OFFCURVE",
"413 740 CURVE SMOOTH",
"306 740 OFFCURVE",
"252 605 OFFCURVE",
"190 402 CURVE",
"126 402 LINE SMOOTH",
"80 402 OFFCURVE",
"58 388 OFFCURVE",
"58 368 CURVE SMOOTH",
"58 340 OFFCURVE",
"95 315 OFFCURVE",
"152 282 CURVE",
"111 136 OFFCURVE",
"84 -14 OFFCURVE",
"84 -94 CURVE SMOOTH",
"84 -150 OFFCURVE",
"118 -187 OFFCURVE",
"170 -187 CURVE SMOOTH"
);
},
{
closed = 1;
nodes = (
"145 -145 OFFCURVE",
"129 -125 OFFCURVE",
"129 -94 CURVE SMOOTH",
"129 -13 OFFCURVE",
"153 128 OFFCURVE",
"188 258 CURVE",
"252 206 OFFCURVE",
"294 150 OFFCURVE",
"294 71 CURVE SMOOTH",
"294 -59 OFFCURVE",
"244 -145 OFFCURVE",
"169 -145 CURVE SMOOTH"
);
},
{
closed = 1;
nodes = (
"135 335 OFFCURVE",
"90 355 OFFCURVE",
"97 365 CURVE SMOOTH",
"103 373 OFFCURVE",
"155 360 OFFCURVE",
"176 360 CURVE",
"164 322 LINE"
);
}
);
width = 545;
},
{
anchors = (
{
name = bottom;
position = "{213, 0}";
},
{
name = top;
position = "{406, 909}";
}
);
layerId = "291433DC-531A-45CC-B814-57D397372F12";
paths = (
{
closed = 1;
nodes = (
"288 -187 OFFCURVE",
"360 -73 OFFCURVE",
"360 85 CURVE SMOOTH",
"360 166 OFFCURVE",
"307 249 OFFCURVE",
"227 315 CURVE",
"232 324 OFFCURVE",
"233 331 OFFCURVE",
"235 339 CURVE",
"473 339 LINE",
"490 423 LINE",
"264 423 LINE",
"327 607 OFFCURVE",
"359 656 OFFCURVE",
"411 656 CURVE SMOOTH",
"461 656 OFFCURVE",
"480 629 OFFCURVE",
"486 548 CURVE",
"572 586 LINE",
"560 688 OFFCURVE",
"510 740 OFFCURVE",
"413 740 CURVE SMOOTH",
"310 740 OFFCURVE",
"248 651 OFFCURVE",
"175 424 CURVE",
"132 423 LINE",
"79 423 OFFCURVE",
"37 400 OFFCURVE",
"37 364 CURVE SMOOTH",
"36 336 OFFCURVE",
"76 301 OFFCURVE",
"127 270 CURVE",
"87 124 OFFCURVE",
"66 -4 OFFCURVE",
"68 -77 CURVE SMOOTH",
"66 -144 OFFCURVE",
"107 -187 OFFCURVE",
"170 -187 CURVE SMOOTH"
);
},
{
closed = 1;
nodes = (
"165 -104 OFFCURVE",
"155 -90 OFFCURVE",
"154 -68 CURVE SMOOTH",
"155 2 OFFCURVE",
"171 106 OFFCURVE",
"199 214 CURVE",
"246 167 OFFCURVE",
"276 123 OFFCURVE",
"276 75 CURVE SMOOTH",
"276 -28 OFFCURVE",
"235 -104 OFFCURVE",
"178 -104 CURVE SMOOTH"
);
},
{
closed = 1;
nodes = (
"119 340 OFFCURVE",
"90 353 OFFCURVE",
"98 363 CURVE SMOOTH",
"105 371 OFFCURVE",
"136 360 OFFCURVE",
"155 355 CURVE",
"146 331 LINE"
);
}
);
width = 545;
}
);
unicode = 0066;
},
{
color = 4;
glyphname = g;
lastChange = "2023-07-14 09:45:09 +0000";
layers = (
{
anchors = (
{
name = bottom;
position = "{165, -227}";
},
{
name = top;
position = "{342, 562}";
}
);
background = {
paths = (
{
closed = 1;
nodes = (
"320 -178 OFFCURVE",
"375 -127 OFFCURVE",
"410 41 CURVE SMOOTH",
"521 562 LINE",
"475 562 LINE",
"464 514 LINE",
"428 559 OFFCURVE",
"395 575 OFFCURVE",
"323 575 CURVE SMOOTH",
"177 575 OFFCURVE",
"120 519 OFFCURVE",
"82 340 CURVE SMOOTH",
"34 115 OFFCURVE",
"67 42 OFFCURVE",
"217 42 CURVE SMOOTH",
"287 42 OFFCURVE",
"327 60 OFFCURVE",
"383 122 CURVE",
"364 36 LINE SMOOTH",
"335 -94 OFFCURVE",
"290 -136 OFFCURVE",
"178 -136 CURVE SMOOTH",
"130 -136 OFFCURVE",
"107 -128 OFFCURVE",
"85 -101 CURVE",
"48 -127 LINE",
"78 -165 OFFCURVE",
"109 -178 OFFCURVE",
"177 -178 CURVE SMOOTH"
);
},
{
closed = 1;
nodes = (
"107 84 OFFCURVE",
"85 143 OFFCURVE",
"125 333 CURVE SMOOTH",
"157 484 OFFCURVE",
"206 533 OFFCURVE",
"322 533 CURVE SMOOTH",
"399 533 OFFCURVE",
"431 515 OFFCURVE",
"454 455 CURVE",
"406 240 LINE",
"356 123 OFFCURVE",
"310 84 OFFCURVE",
"219 84 CURVE SMOOTH"
);
}
);
};
layerId = "7C079D0C-96CD-4BD8-8800-0621C7635A78";
paths = (
{
closed = 1;
nodes = (
"217 -187 OFFCURVE",
"323 -136 OFFCURVE",
"368 -59 CURVE",
"392 -59 OFFCURVE",
"427 -59 OFFCURVE",
"457 -51 CURVE",
"466 -10 LINE",
"435 -18 OFFCURVE",
"415 -18 OFFCURVE",
"388 -18 CURVE",
"410 24 OFFCURVE",
"504 451 OFFCURVE",
"504 495 CURVE SMOOTH",
"504 558 OFFCURVE",
"448 575 OFFCURVE",
"372 575 CURVE SMOOTH",
"235 575 OFFCURVE",
"61 385 OFFCURVE",
"61 199 CURVE SMOOTH",
"61 105 OFFCURVE",
"122 42 OFFCURVE",
"214 42 CURVE SMOOTH",
"275 42 OFFCURVE",
"362 65 OFFCURVE",
"377 98 CURVE",
"371 65 OFFCURVE",
"359 11 OFFCURVE",
"341 -18 CURVE",
"135 -18 OFFCURVE",
"7 -58 OFFCURVE",
"7 -124 CURVE SMOOTH",
"7 -162 OFFCURVE",
"46 -187 OFFCURVE",
"105 -187 CURVE SMOOTH"
);
},
{
closed = 1;
nodes = (
"78 -145 OFFCURVE",
"53 -136 OFFCURVE",
"53 -124 CURVE SMOOTH",
"53 -89 OFFCURVE",
"159 -64 OFFCURVE",
"317 -59 CURVE",
"272 -111 OFFCURVE",
"191 -145 OFFCURVE",
"115 -145 CURVE SMOOTH"
);
},
{
closed = 1;
nodes = (
"149 84 OFFCURVE",
"106 130 OFFCURVE",
"106 199 CURVE SMOOTH",
"106 359 OFFCURVE",
"262 533 OFFCURVE",
"372 533 CURVE SMOOTH",
"433 533 OFFCURVE",
"458 533 OFFCURVE",
"458 491 CURVE SMOOTH",
"458 471 OFFCURVE",
"437 376 OFFCURVE",
"399 199 CURVE SMOOTH",
"377 98 OFFCURVE",
"321 84 OFFCURVE",
"214 84 CURVE SMOOTH"
);
}
);
width = 545;
},
{
anchors = (
{
name = bottom;
position = "{165, -227}";
},
{
name = top;
position = "{342, 562}";
}
);
layerId = "291433DC-531A-45CC-B814-57D397372F12";
paths = (
{
closed = 1;
nodes = (
"218 -187 OFFCURVE",
"327 -139 OFFCURVE",
"383 -61 CURVE",
"416 -59 OFFCURVE",
"454 -55 OFFCURVE",
"477 -45 CURVE",
"506 43 LINE",
"465 29 OFFCURVE",
"449 24 OFFCURVE",
"420 21 CURVE",
"454 124 OFFCURVE",
"520 439 OFFCURVE",
"519 479 CURVE SMOOTH",
"521 545 OFFCURVE",
"473 575 OFFCURVE",
"372 575 CURVE SMOOTH",
"212 575 OFFCURVE",
"37 386 OFFCURVE",
"42 197 CURVE SMOOTH",
"42 103 OFFCURVE",
"111 42 OFFCURVE",
"214 42 CURVE SMOOTH",
"260 42 OFFCURVE",
"314 52 OFFCURVE",
"354 75 CURVE",
"346 57 OFFCURVE",
"343 36 OFFCURVE",
"338 24 CURVE",
"127 24 OFFCURVE",
"-9 -25 OFFCURVE",
"-8 -107 CURVE SMOOTH",
"-10 -155 OFFCURVE",
"35 -187 OFFCURVE",
"105 -187 CURVE SMOOTH"
);
},
{
closed = 1;
nodes = (
"101 -104 OFFCURVE",
"78 -99 OFFCURVE",
"78 -98 CURVE SMOOTH",
"79 -89 OFFCURVE",
"170 -69 OFFCURVE",
"267 -62 CURVE",
"227 -86 OFFCURVE",
"176 -104 OFFCURVE",
"125 -104 CURVE SMOOTH"
);
},
{
closed = 1;
nodes = (
"168 125 OFFCURVE",
"130 155 OFFCURVE",
"126 207 CURVE SMOOTH",
"123 341 OFFCURVE",
"260 491 OFFCURVE",
"363 491 CURVE SMOOTH",
"425 491 OFFCURVE",
"431 490 OFFCURVE",
"434 466 CURVE SMOOTH",
"432 448 OFFCURVE",
"414 368 OFFCURVE",
"381 202 CURVE SMOOTH",
"367 135 OFFCURVE",
"335 125 OFFCURVE",
"223 125 CURVE SMOOTH"
);
}
);
width = 545;
}
);
unicode = 0067;
},
{
color = 4;
glyphname = h;
lastChange = "2023-07-14 09:45:09 +0000";
layers = (
{
anchors = (
{
name = bottom;
position = "{225, 0}";
},
{
name = center;
position = "{322, 455}";
},
{
name = top;
position = "{184, 682}";
}
);
layerId = "7C079D0C-96CD-4BD8-8800-0621C7635A78";
paths = (
{
closed = 1;
nodes = (
"451 36 OFFCURVE",
"435 29 OFFCURVE",
"421 29 CURVE SMOOTH",
"401 29 OFFCURVE",
"387 41 OFFCURVE",
"387 59 CURVE SMOOTH",
"387 108 OFFCURVE",
"416 230 OFFCURVE",
"460 365 CURVE SMOOTH",
"508 513 OFFCURVE",
"461 575 OFFCURVE",
"349 575 CURVE SMOOTH",
"270 575 OFFCURVE",
"197 505 OFFCURVE",
"145 407 CURVE",
"214 727 LINE",
"168 727 LINE",
"14 0 LINE",
"60 0 LINE",
"115 262 LINE SMOOTH",
"137 365 OFFCURVE",
"249 533 OFFCURVE",
"348 533 CURVE SMOOTH",
"422 533 OFFCURVE",
"451 487 OFFCURVE",
"415 368 CURVE SMOOTH",
"370 223 OFFCURVE",
"340 91 OFFCURVE",
"340 40 CURVE SMOOTH",
"340 8 OFFCURVE",
"365 -13 OFFCURVE",
"405 -13 CURVE SMOOTH",
"435 -13 OFFCURVE",
"467 -2 OFFCURVE",
"485 15 CURVE",
"463 48 LINE"
);
}
);
width = 545;
},
{
anchors = (
{
name = bottom;
position = "{225, 0}";
},
{
name = center;
position = "{322, 455}";
},
{
name = top;
position = "{188, 700}";
}
);
layerId = "291433DC-531A-45CC-B814-57D397372F12";
paths = (
{
closed = 1;
nodes = (
"464 86 OFFCURVE",
"445 71 OFFCURVE",
"430 71 CURVE SMOOTH",
"420 71 OFFCURVE",
"413 75 OFFCURVE",
"412 85 CURVE SMOOTH",
"413 132 OFFCURVE",
"442 232 OFFCURVE",
"476 349 CURVE SMOOTH",
"519 495 OFFCURVE",
"483 575 OFFCURVE",
"349 575 CURVE SMOOTH",
"293 575 OFFCURVE",
"235 545 OFFCURVE",
"185 486 CURVE",
"235 727 LINE",
"145 727 LINE",
"-8 0 LINE",
"82 0 LINE",
"134 250 LINE SMOOTH",
"157 365 OFFCURVE",
"268 491 OFFCURVE",
"339 491 CURVE SMOOTH",
"404 491 OFFCURVE",
"420 448 OFFCURVE",
"394 359 CURVE SMOOTH",
"351 215 OFFCURVE",
"322 108 OFFCURVE",
"325 56 CURVE SMOOTH",
"324 15 OFFCURVE",
"355 -13 OFFCURVE",
"405 -13 CURVE SMOOTH",
"447 -13 OFFCURVE",
"497 6 OFFCURVE",
"514 36 CURVE",
"476 110 LINE"
);
}
);
width = 545;
}
);
unicode = 0068;
},
{
color = 4;
glyphname = hbar;
lastChange = "2023-07-14 09:45:09 +0000";
layers = (
{
components = (
{
name = h;
}
);
layerId = "7C079D0C-96CD-4BD8-8800-0621C7635A78";
paths = (
{
closed = 1;
nodes = (
"308 620 LINE",
"317 662 LINE",
"99 662 LINE",
"90 620 LINE"
);
}
);
width = 545;
},
{
components = (
{
name = h;
}
);
layerId = "291433DC-531A-45CC-B814-57D397372F12";
paths = (
{
closed = 1;
nodes = (
"335 597 LINE",
"354 681 LINE",
"85 681 LINE",
"67 597 LINE"
);
}
);
width = 545;
}
);
unicode = 0127;
},
{
color = 4;
glyphname = idotless;
lastChange = "2023-07-14 09:45:09 +0000";
layers = (
{
anchors = (
{
name = bottom;
position = "{277, 0}";
},
{
name = ogonek;
position = "{344, -3}";
},
{
name = top;
position = "{275, 562}";
}
);
background = {
paths = (
{
closed = 1;
nodes = (
"334 520 LINE",
"325 530 LINE",
"214 0 LINE",
"259 0 LINE",
"379 562 LINE",
"212 562 LINE",
"203 520 LINE"
);
},
{
closed = 1;
nodes = (
"418 0 LINE",
"427 42 LINE",
"64 42 LINE",
"55 0 LINE"
);
}
);
};
layerId = "7C079D0C-96CD-4BD8-8800-0621C7635A78";
paths = (
{
closed = 1;
nodes = (
"369 -13 OFFCURVE",
"405 8 OFFCURVE",
"455 73 CURVE",
"418 98 LINE",
"379 45 OFFCURVE",
"353 29 OFFCURVE",
"307 29 CURVE SMOOTH",
"213 29 OFFCURVE",
"182 82 OFFCURVE",
"225 238 CURVE SMOOTH",
"285 460 LINE",
"294 515 OFFCURVE",
"266 549 OFFCURVE",
"205 562 CURVE",
"195 520 LINE",
"239 510 OFFCURVE",
"244 484 OFFCURVE",
"237 448 CURVE",
"179 238 LINE SMOOTH",
"127 50 OFFCURVE",
"171 -13 OFFCURVE",
"307 -13 CURVE SMOOTH"
);
}
);
width = 545;
},
{
anchors = (
{
name = bottom;
position = "{264, 0}";
},
{
name = ogonek;
position = "{339, 10}";
},
{
name = top;
position = "{274, 562}";
}
);
layerId = "291433DC-531A-45CC-B814-57D397372F12";
paths = (
{
closed = 1;
nodes = (
"373 -13 OFFCURVE",
"418 15 OFFCURVE",
"479 102 CURVE",
"412 149 LINE",
"367 86 OFFCURVE",
"349 71 OFFCURVE",
"307 71 CURVE SMOOTH",
"226 71 OFFCURVE",
"199 106 OFFCURVE",
"236 238 CURVE SMOOTH",
"292 436 LINE SMOOTH",
"312 506 OFFCURVE",
"269 550 OFFCURVE",
"187 562 CURVE",
"165 478 LINE",
"201 473 OFFCURVE",
"212 456 OFFCURVE",
"203 425 CURVE SMOOTH",
"150 238 LINE SMOOTH",
"97 51 OFFCURVE",
"146 -13 OFFCURVE",
"298 -13 CURVE SMOOTH"
);
}
);
width = 545;
}
);
unicode = 0131;
},
{
glyphname = ij;
lastChange = "2023-07-14 09:45:09 +0000";
layers = (
{
components = (
{
alignment = -1;
name = dotaccent;
transform = "{1, 0, 0, 1, -153, 0}";
},
{
alignment = -1;
name = dotaccent;
transform = "{1, 0, 0, 1, 157, 0}";
}
);
layerId = "7C079D0C-96CD-4BD8-8800-0621C7635A78";
paths = (
{
closed = 1;
nodes = (
"231 -187 OFFCURVE",
"336 -136 OFFCURVE",
"382 -59 CURVE",
"405 -59 OFFCURVE",
"441 -59 OFFCURVE",
"471 -51 CURVE",
"480 -10 LINE",
"456 -16 OFFCURVE",
"437 -18 OFFCURVE",
"400 -18 CURVE",
"422 24 OFFCURVE",
"458 196 OFFCURVE",
"509 453 CURVE SMOOTH",
"520 507 OFFCURVE",
"495 543 OFFCURVE",
"434 557 CURVE",
"421 516 LINE",
"465 505 OFFCURVE",
"469 478 OFFCURVE",
"462 443 CURVE SMOOTH",
"431 290 OFFCURVE",
"373 13 OFFCURVE",
"355 -18 CURVE",
"148 -18 OFFCURVE",
"21 -58 OFFCURVE",
"21 -124 CURVE SMOOTH",
"21 -162 OFFCURVE",
"60 -187 OFFCURVE",
"118 -187 CURVE SMOOTH"
);
},
{
closed = 1;
nodes = (
"92 -145 OFFCURVE",
"66 -136 OFFCURVE",
"66 -124 CURVE SMOOTH",
"66 -89 OFFCURVE",
"173 -64 OFFCURVE",
"331 -59 CURVE",
"285 -111 OFFCURVE",
"205 -145 OFFCURVE",
"129 -145 CURVE SMOOTH"
);
},
{
closed = 1;
nodes = (
"110 47 OFFCURVE",
"93 105 OFFCURVE",
"129 238 CURVE SMOOTH",
"189 460 LINE",
"198 515 OFFCURVE",
"171 549 OFFCURVE",
"110 562 CURVE",
"99 520 LINE",
"144 510 OFFCURVE",
"148 484 OFFCURVE",
"142 448 CURVE",
"84 238 LINE SMOOTH",
"42 86 OFFCURVE",
"62 16 OFFCURVE",
"144 -5 CURVE",
"173 33 LINE"
);
}
);
width = 545;
},
{
components = (
{
alignment = -1;
name = dotaccent;
transform = "{1, 0, 0, 1, -157, 0}";
},
{
alignment = -1;
name = dotaccent;
transform = "{1, 0, 0, 1, 143, 0}";
}
);
layerId = "291433DC-531A-45CC-B814-57D397372F12";
paths = (
{
closed = 1;
nodes = (
"208 -187 OFFCURVE",
"317 -139 OFFCURVE",
"373 -61 CURVE",
"406 -59 OFFCURVE",
"444 -55 OFFCURVE",
"467 -45 CURVE",
"496 45 LINE",
"457 30 OFFCURVE",
"445 24 OFFCURVE",
"409 22 CURVE",
"433 86 OFFCURVE",
"464 198 OFFCURVE",
"511 433 CURVE SMOOTH",
"525 505 OFFCURVE",
"489 546 OFFCURVE",
"407 559 CURVE",
"385 475 LINE",
"420 470 OFFCURVE",
"428 455 OFFCURVE",
"422 422 CURVE SMOOTH",
"392 269 OFFCURVE",
"346 94 OFFCURVE",
"325 28 CURVE",
"117 24 OFFCURVE",
"-19 -28 OFFCURVE",
"-18 -107 CURVE SMOOTH",
"-20 -155 OFFCURVE",
"25 -187 OFFCURVE",
"95 -187 CURVE SMOOTH"
);
},
{
closed = 1;
nodes = (
"109 -104 OFFCURVE",
"86 -99 OFFCURVE",
"86 -98 CURVE SMOOTH",
"87 -89 OFFCURVE",
"178 -69 OFFCURVE",
"275 -62 CURVE",
"235 -86 OFFCURVE",
"185 -104 OFFCURVE",
"133 -104 CURVE SMOOTH"
);
},
{
closed = 1;
nodes = (
"118 96 OFFCURVE",
"111 142 OFFCURVE",
"138 238 CURVE SMOOTH",
"194 436 LINE SMOOTH",
"214 506 OFFCURVE",
"171 550 OFFCURVE",
"89 562 CURVE",
"67 478 LINE",
"103 473 OFFCURVE",
"114 456 OFFCURVE",
"105 425 CURVE SMOOTH",
"52 238 LINE SMOOTH",
"22 131 OFFCURVE",
"25 64 OFFCURVE",
"63 26 CURVE",
"156 79 LINE"
);
}
);
width = 545;
}
);
unicode = 0133;
},
{
color = 4;
glyphname = jdotless;
lastChange = "2023-07-14 09:45:09 +0000";
layers = (
{
anchors = (
{
name = bottom;
position = "{165, -227}";
},
{
name = top;
position = "{422, 562}";
}
);
background = {
paths = (
{
closed = 1;
nodes = (
"412 522 LINE",
"395 443 OFFCURVE",
"335 159 OFFCURVE",
"311 46 CURVE SMOOTH",
"282 -92 OFFCURVE",
"235 -136 OFFCURVE",
"124 -136 CURVE SMOOTH",
"75 -136 OFFCURVE",
"53 -128 OFFCURVE",
"31 -101 CURVE",
"-6 -127 LINE",
"24 -165 OFFCURVE",
"55 -178 OFFCURVE",
"123 -178 CURVE SMOOTH",
"265 -178 OFFCURVE",
"320 -127 OFFCURVE",
"355 39 CURVE SMOOTH",
"385 176 OFFCURVE",
"445 465 OFFCURVE",
"465 560 CURVE",
"306 562 LINE",
"297 520 LINE"
);
}
);
};
layerId = "7C079D0C-96CD-4BD8-8800-0621C7635A78";
paths = (
{
closed = 1;
nodes = (
"163 -187 OFFCURVE",
"268 -136 OFFCURVE",
"314 -59 CURVE",
"337 -59 OFFCURVE",
"373 -59 OFFCURVE",
"403 -51 CURVE",
"412 -10 LINE",
"388 -16 OFFCURVE",
"369 -18 OFFCURVE",
"332 -18 CURVE",
"354 24 OFFCURVE",
"390 196 OFFCURVE",
"441 453 CURVE SMOOTH",
"452 507 OFFCURVE",
"426 543 OFFCURVE",
"365 557 CURVE",
"353 516 LINE",
"397 505 OFFCURVE",
"401 478 OFFCURVE",
"394 443 CURVE SMOOTH",
"363 290 OFFCURVE",
"305 13 OFFCURVE",
"286 -18 CURVE",
"80 -18 OFFCURVE",
"-47 -58 OFFCURVE",
"-47 -124 CURVE SMOOTH",
"-47 -162 OFFCURVE",
"-8 -187 OFFCURVE",
"50 -187 CURVE SMOOTH"
);
},
{
closed = 1;
nodes = (
"24 -145 OFFCURVE",
"-2 -136 OFFCURVE",
"-2 -124 CURVE SMOOTH",
"-2 -89 OFFCURVE",
"105 -64 OFFCURVE",
"263 -59 CURVE",
"217 -111 OFFCURVE",
"136 -145 OFFCURVE",
"61 -145 CURVE SMOOTH"
);
}
);
width = 545;
},
{
anchors = (
{
name = bottom;
position = "{165, -227}";
},
{
name = top;
position = "{431, 562}";
}
);
layerId = "291433DC-531A-45CC-B814-57D397372F12";
paths = (
{
closed = 1;
nodes = (
"164 -187 OFFCURVE",
"273 -139 OFFCURVE",
"328 -61 CURVE",
"362 -59 OFFCURVE",
"399 -55 OFFCURVE",
"423 -45 CURVE",
"452 45 LINE",
"413 30 OFFCURVE",
"401 24 OFFCURVE",
"365 22 CURVE",
"388 86 OFFCURVE",
"419 198 OFFCURVE",
"466 433 CURVE SMOOTH",
"481 505 OFFCURVE",
"445 546 OFFCURVE",
"363 559 CURVE",
"340 475 LINE",
"375 470 OFFCURVE",
"384 455 OFFCURVE",
"377 422 CURVE SMOOTH",
"347 269 OFFCURVE",
"302 94 OFFCURVE",
"280 28 CURVE",
"73 24 OFFCURVE",
"-64 -28 OFFCURVE",
"-63 -107 CURVE SMOOTH",
"-65 -155 OFFCURVE",
"-19 -187 OFFCURVE",
"50 -187 CURVE SMOOTH"
);
},
{
closed = 1;
nodes = (
"46 -104 OFFCURVE",
"24 -99 OFFCURVE",
"24 -98 CURVE SMOOTH",
"25 -89 OFFCURVE",
"115 -69 OFFCURVE",
"213 -62 CURVE",
"173 -86 OFFCURVE",
"122 -104 OFFCURVE",
"70 -104 CURVE SMOOTH"
);
}
);
width = 545;
}
);
unicode = 0237;
},
{
color = 4;
glyphname = k;
lastChange = "2023-07-14 09:45:09 +0000";
layers = (
{
anchors = (
{
name = bottom;
position = "{213, 0}";
},
{
name = top;
position = "{406, 909}";
}
);
background = {
paths = (
{
closed = 1;
nodes = (
"421 0 LINE",
"253 303 LINE",
"505 562 LINE",
"449 562 LINE",
"215 322 LINE",
"169 322 LINE",
"255 727 LINE",
"209 727 LINE",
"55 0 LINE",
"100 0 LINE",
"160 280 LINE",
"212 280 LINE",
"367 0 LINE"
);
}
);
};
layerId = "7C079D0C-96CD-4BD8-8800-0621C7635A78";
paths = (
{
closed = 1;
nodes = (
"414 -13 OFFCURVE",
"439 13 OFFCURVE",
"468 50 CURVE",
"437 84 LINE",
"422 55 OFFCURVE",
"390 29 OFFCURVE",
"373 29 CURVE SMOOTH",
"344 29 OFFCURVE",
"344 79 OFFCURVE",
"344 155 CURVE SMOOTH",
"344 190 OFFCURVE",
"331 233 OFFCURVE",
"312 261 CURVE",
"435 277 OFFCURVE",
"516 357 OFFCURVE",
"516 462 CURVE SMOOTH",
"516 529 OFFCURVE",
"457 575 OFFCURVE",
"386 575 CURVE SMOOTH",
"268 575 OFFCURVE",
"143 454 OFFCURVE",
"101 273 CURVE",
"145 264 LINE",
"179 425 OFFCURVE",
"286 533 OFFCURVE",
"385 533 CURVE SMOOTH",
"429 533 OFFCURVE",
"471 503 OFFCURVE",
"471 457 CURVE SMOOTH",
"471 364 OFFCURVE",
"389 301 OFFCURVE",
"267 301 CURVE",
"248 265 LINE",
"276 238 OFFCURVE",
"295 194 OFFCURVE",
"295 152 CURVE SMOOTH",
"295 53 OFFCURVE",
"314 -13 OFFCURVE",
"372 -13 CURVE SMOOTH"
);
},
{
closed = 1;
nodes = (
"89 0 LINE",
"244 727 LINE",
"198 727 LINE",
"44 0 LINE"
);
}
);
width = 545;
},
{
anchors = (
{
name = bottom;
position = "{222, 0}";
},
{
name = top;
position = "{415, 909}";
}
);
layerId = "291433DC-531A-45CC-B814-57D397372F12";
paths = (
{
closed = 1;
nodes = (
"405 -13 OFFCURVE",
"452 22 OFFCURVE",
"492 75 CURVE",
"429 149 LINE",
"414 102 OFFCURVE",
"397 71 OFFCURVE",
"378 71 CURVE SMOOTH",
"368 71 OFFCURVE",
"359 109 OFFCURVE",
"356 167 CURVE SMOOTH",
"355 187 OFFCURVE",
"350 220 OFFCURVE",
"339 249 CURVE",
"452 278 OFFCURVE",
"526 361 OFFCURVE",
"525 455 CURVE SMOOTH",
"523 532 OFFCURVE",
"461 584 OFFCURVE",
"379 584 CURVE SMOOTH",
"223 584 OFFCURVE",
"105 453 OFFCURVE",
"67 255 CURVE",
"152 245 LINE",
"180 398 OFFCURVE",
"260 500 OFFCURVE",
"369 500 CURVE SMOOTH",
"402 500 OFFCURVE",
"437 476 OFFCURVE",
"439 441 CURVE SMOOTH",
"443 366 OFFCURVE",
"361 320 OFFCURVE",
"248 325 CURVE",
"212 259 LINE",
"242 239 OFFCURVE",
"265 197 OFFCURVE",
"268 155 CURVE SMOOTH",
"276 55 OFFCURVE",
"308 -13 OFFCURVE",
"363 -13 CURVE SMOOTH"
);
},
{
closed = 1;
nodes = (
"102 0 LINE",
"256 727 LINE",
"166 727 LINE",
"13 0 LINE"
);
}
);
width = 545;
}
);
unicode = 006B;
},
{
color = 4;
glyphname = l;
lastChange = "2023-07-14 09:45:09 +0000";
layers = (
{
anchors = (
{
name = bottom;
position = "{204, 0}";
},
{
name = center;
position = "{301, 455}";
},
{
name = top;
position = "{373, 727}";
},
{
name = topright;
position = "{615, 727}";
}
);
background = {
paths = (
{
closed = 1;
nodes = (
"309 685 LINE",
"200 175 LINE SMOOTH",
"170 34 OFFCURVE",
"188 -13 OFFCURVE",
"273 -13 CURVE SMOOTH",
"321 -13 OFFCURVE",
"350 -5 OFFCURVE",
"392 23 CURVE",
"371 65 LINE",
"335 38 OFFCURVE",
"310 29 OFFCURVE",
"274 29 CURVE SMOOTH",
"228 29 OFFCURVE",
"222 62 OFFCURVE",
"245 172 CURVE SMOOTH",
"363 727 LINE",
"196 727 LINE",
"188 685 LINE"
);
}
);
};
layerId = "7C079D0C-96CD-4BD8-8800-0621C7635A78";
paths = (
{
closed = 1;
nodes = (
"352 -13 OFFCURVE",
"411 22 OFFCURVE",
"450 73 CURVE",
"414 98 LINE",
"383 56 OFFCURVE",
"338 29 OFFCURVE",
"303 29 CURVE SMOOTH",
"259 29 OFFCURVE",
"230 79 OFFCURVE",
"230 154 CURVE SMOOTH",
"230 480 OFFCURVE",
"285 697 OFFCURVE",
"357 697 CURVE",
"389 697 OFFCURVE",
"407 671 OFFCURVE",
"407 623 CURVE SMOOTH",
"407 415 OFFCURVE",
"205 142 OFFCURVE",
"-25 38 CURVE",
"-6 0 LINE",
"240 109 OFFCURVE",
"453 398 OFFCURVE",
"453 623 CURVE SMOOTH",
"453 696 OFFCURVE",
"419 740 OFFCURVE",
"365 740 CURVE SMOOTH",
"234 740 OFFCURVE",
"185 495 OFFCURVE",
"185 126 CURVE SMOOTH",
"185 43 OFFCURVE",
"232 -13 OFFCURVE",
"303 -13 CURVE SMOOTH"
);
}
);
width = 545;
},
{
anchors = (
{
name = bottom;
position = "{204, 0}";
},
{
name = center;
position = "{301, 455}";
},
{
name = top;
position = "{391, 727}";
},
{
name = topright;
position = "{615, 727}";
}
);
layerId = "291433DC-531A-45CC-B814-57D397372F12";
paths = (
{
closed = 1;
nodes = (
"358 -13 OFFCURVE",
"433 32 OFFCURVE",
"477 101 CURVE",
"409 151 LINE",
"385 106 OFFCURVE",
"339 71 OFFCURVE",
"305 71 CURVE SMOOTH",
"275 71 OFFCURVE",
"252 116 OFFCURVE",
"249 181 CURVE SMOOTH",
"239 407 OFFCURVE",
"285 655 OFFCURVE",
"352 655 CURVE SMOOTH",
"377 655 OFFCURVE",
"387 641 OFFCURVE",
"387 597 CURVE SMOOTH",
"387 409 OFFCURVE",
"195 175 OFFCURVE",
"-53 74 CURVE",
"-25 -2 LINE",
"265 115 OFFCURVE",
"476 362 OFFCURVE",
"476 603 CURVE SMOOTH",
"476 691 OFFCURVE",
"431 740 OFFCURVE",
"359 740 CURVE SMOOTH",
"215 740 OFFCURVE",
"159 523 OFFCURVE",
"163 143 CURVE SMOOTH",
"164 50 OFFCURVE",
"215 -13 OFFCURVE",
"296 -13 CURVE SMOOTH"
);
}
);
width = 545;
}
);
unicode = 006C;
},
{
color = 4;
glyphname = lslash;
lastChange = "2023-07-14 09:45:09 +0000";
layers = (
{
components = (
{
name = l;
}
);
layerId = "7C079D0C-96CD-4BD8-8800-0621C7635A78";
paths = (
{
closed = 1;
nodes = (
"157 427 LINE",
"147 383 LINE",
"486 511 LINE",
"498 555 LINE"
);
}
);
width = 545;
},
{
components = (
{
name = l;
}
);
layerId = "291433DC-531A-45CC-B814-57D397372F12";
paths = (
{
closed = 1;
nodes = (
"140 432 LINE",
"120 341 LINE",
"507 488 LINE",
"531 579 LINE"
);
}
);
width = 545;
}
);
unicode = 0142;
},
{
color = 4;
glyphname = m;
lastChange = "2023-07-14 09:45:09 +0000";
layers = (
{
anchors = (
{
name = bottom;
position = "{213, 0}";
},
{
name = top;
position = "{332, 562}";
}
);
background = {
paths = (
{
closed = 1;
nodes = (
"16 0 LINE",
"96 375 LINE SMOOTH",
"120 486 OFFCURVE",
"154 524 OFFCURVE",
"232 524 CURVE SMOOTH",
"286 524 OFFCURVE",
"294 487 OFFCURVE",
"268 365 CURVE SMOOTH",
"190 0 LINE",
"235 0 LINE",
"315 375 LINE SMOOTH",
"339 486 OFFCURVE",
"373 524 OFFCURVE",
"451 524 CURVE SMOOTH",
"505 524 OFFCURVE",
"513 488 OFFCURVE",
"488 371 CURVE SMOOTH",
"409 0 LINE",
"455 0 LINE",
"533 367 LINE SMOOTH",
"566 523 OFFCURVE",
"547 574 OFFCURVE",
"459 574 CURVE SMOOTH",
"399 574 OFFCURVE",
"366 555 OFFCURVE",
"319 489 CURVE",
"316 552 OFFCURVE",
"296 574 OFFCURVE",
"240 574 CURVE SMOOTH",
"186 574 OFFCURVE",
"159 560 OFFCURVE",
"125 511 CURVE",
"136 562 LINE",
"91 562 LINE",
"-29 0 LINE"
);
}
);
};
layerId = "7C079D0C-96CD-4BD8-8800-0621C7635A78";
paths = (
{
closed = 1;
nodes = (
"480 -13 OFFCURVE",
"512 -2 OFFCURVE",
"529 15 CURVE",
"507 48 LINE",
"495 36 OFFCURVE",
"479 29 OFFCURVE",
"465 29 CURVE SMOOTH",
"445 29 OFFCURVE",
"432 41 OFFCURVE",
"432 59 CURVE SMOOTH",
"432 108 OFFCURVE",
"461 230 OFFCURVE",
"505 365 CURVE SMOOTH",
"553 513 OFFCURVE",
"533 575 OFFCURVE",
"452 575 CURVE SMOOTH",
"401 575 OFFCURVE",
"360 541 OFFCURVE",
"327 475 CURVE",
"328 520 OFFCURVE",
"338 575 OFFCURVE",
"256 575 CURVE SMOOTH",
"205 575 OFFCURVE",
"165 526 OFFCURVE",
"151 494 CURVE",
"156 538 OFFCURVE",
"148 575 OFFCURVE",
"96 575 CURVE SMOOTH",
"65 575 OFFCURVE",
"34 564 OFFCURVE",
"16 547 CURVE",
"38 514 LINE",
"50 525 OFFCURVE",
"71 533 OFFCURVE",
"84 533 CURVE SMOOTH",
"104 533 OFFCURVE",
"114 521 OFFCURVE",
"114 503 CURVE SMOOTH",
"114 498 OFFCURVE",
"113 491 OFFCURVE",
"112 485 CURVE SMOOTH",
"8 0 LINE",
"54 0 LINE",
"111 267 LINE SMOOTH",
"160 496 OFFCURVE",
"188 533 OFFCURVE",
"255 533 CURVE SMOOTH",
"310 533 OFFCURVE",
"295 480 OFFCURVE",
"272 368 CURVE SMOOTH",
"195 0 LINE",
"240 0 LINE",
"296 269 LINE SMOOTH",
"344 496 OFFCURVE",
"380 533 OFFCURVE",
"451 533 CURVE SMOOTH",
"494 533 OFFCURVE",
"496 487 OFFCURVE",
"460 368 CURVE SMOOTH",
"415 223 OFFCURVE",
"385 91 OFFCURVE",
"385 40 CURVE SMOOTH",
"385 8 OFFCURVE",
"410 -13 OFFCURVE",
"449 -13 CURVE SMOOTH"
);
}
);
width = 545;
},
{
anchors = (
{
name = bottom;
position = "{213, 0}";
},
{
name = top;
position = "{332, 562}";
}
);
layerId = "291433DC-531A-45CC-B814-57D397372F12";
paths = (
{
closed = 1;
nodes = (
"478 -13 OFFCURVE",
"528 6 OFFCURVE",
"545 36 CURVE",
"507 110 LINE",
"495 86 OFFCURVE",
"476 71 OFFCURVE",
"461 71 CURVE SMOOTH",
"451 71 OFFCURVE",
"444 75 OFFCURVE",
"443 85 CURVE SMOOTH",
"438 132 OFFCURVE",
"462 222 OFFCURVE",
"507 349 CURVE SMOOTH",
"561 499 OFFCURVE",
"536 575 OFFCURVE",
"438 575 CURVE SMOOTH",
"396 575 OFFCURVE",
"379 556 OFFCURVE",
"343 516 CURVE",
"336 544 OFFCURVE",
"322 575 OFFCURVE",
"256 575 CURVE SMOOTH",
"230 575 OFFCURVE",
"211 563 OFFCURVE",
"180 534 CURVE",
"171 556 OFFCURVE",
"145 575 OFFCURVE",
"110 575 CURVE SMOOTH",
"67 575 OFFCURVE",
"17 555 OFFCURVE",
"1 525 CURVE",
"37 458 LINE",
"65 485 OFFCURVE",
"75 491 OFFCURVE",
"85 491 CURVE SMOOTH",
"94 491 OFFCURVE",
"99 486 OFFCURVE",
"102 478 CURVE SMOOTH",
"104 472 OFFCURVE",
"100 466 OFFCURVE",
"100 463 CURVE",
"0 0 LINE",
"89 0 LINE",
"145 265 LINE SMOOTH",
"185 461 OFFCURVE",
"195 491 OFFCURVE",
"246 491 CURVE SMOOTH",
"276 491 OFFCURVE",
"270 463 OFFCURVE",
"248 356 CURVE SMOOTH",
"173 0 LINE",
"262 0 LINE",
"316 266 LINE SMOOTH",
"352 442 OFFCURVE",
"364 491 OFFCURVE",
"428 491 CURVE SMOOTH",
"452 491 OFFCURVE",
"455 456 OFFCURVE",
"425 359 CURVE SMOOTH",
"379 203 OFFCURVE",
"354 107 OFFCURVE",
"355 56 CURVE SMOOTH",
"357 15 OFFCURVE",
"386 -13 OFFCURVE",
"435 -13 CURVE SMOOTH"
);
}
);
width = 545;
}
);
unicode = 006D;
},
{
color = 4;
glyphname = n;
lastChange = "2023-07-14 09:45:09 +0000";
layers = (
{
anchors = (
{
name = bottom;
position = "{213, 0}";
},
{
name = top;
position = "{332, 562}";
}
);
background = {
paths = (
{
closed = 1;
nodes = (
"266 570 OFFCURVE",
"225 555 OFFCURVE",
"181 505 CURVE",
"195 562 LINE",
"149 562 LINE",
"29 0 LINE",
"75 0 LINE",
"155 375 LINE SMOOTH",
"182 502 OFFCURVE",
"228 528 OFFCURVE",
"355 528 CURVE SMOOTH",
"446 528 OFFCURVE",
"465 491 OFFCURVE",
"439 368 CURVE SMOOTH",
"361 0 LINE",
"406 0 LINE",
"485 365 LINE SMOOTH",
"517 519 OFFCURVE",
"485 570 OFFCURVE",
"355 570 CURVE SMOOTH"
);
}
);
};
layerId = "7C079D0C-96CD-4BD8-8800-0621C7635A78";
paths = (
{
closed = 1;
nodes = (
"457 36 OFFCURVE",
"441 29 OFFCURVE",
"427 29 CURVE SMOOTH",
"407 29 OFFCURVE",
"394 41 OFFCURVE",
"394 59 CURVE SMOOTH",
"394 108 OFFCURVE",
"423 230 OFFCURVE",
"466 365 CURVE SMOOTH",
"515 513 OFFCURVE",
"467 575 OFFCURVE",
"365 575 CURVE SMOOTH",
"295 575 OFFCURVE",
"222 505 OFFCURVE",
"170 407 CURVE",
"188 491 LINE SMOOTH",
"200 545 OFFCURVE",
"164 575 OFFCURVE",
"126 575 CURVE SMOOTH",
"95 575 OFFCURVE",
"64 564 OFFCURVE",
"46 547 CURVE",
"68 514 LINE",
"80 525 OFFCURVE",
"97 533 OFFCURVE",
"110 533 CURVE SMOOTH",
"130 533 OFFCURVE",
"144 521 OFFCURVE",
"144 503 CURVE SMOOTH",
"144 498 OFFCURVE",
"143 491 OFFCURVE",
"142 485 CURVE",
"38 0 LINE",
"85 0 LINE",
"140 262 LINE SMOOTH",
"162 365 OFFCURVE",
"274 533 OFFCURVE",
"364 533 CURVE SMOOTH",
"428 533 OFFCURVE",
"457 487 OFFCURVE",
"421 368 CURVE SMOOTH",
"376 223 OFFCURVE",
"346 91 OFFCURVE",
"346 40 CURVE SMOOTH",
"346 8 OFFCURVE",
"372 -13 OFFCURVE",
"411 -13 CURVE SMOOTH",
"442 -13 OFFCURVE",
"474 -2 OFFCURVE",
"491 15 CURVE",
"469 48 LINE"
);
}
);
width = 545;
},
{
anchors = (
{
name = bottom;
position = "{213, 0}";
},
{
name = top;
position = "{333, 562}";
}
);
layerId = "291433DC-531A-45CC-B814-57D397372F12";
paths = (
{
closed = 1;
nodes = (
"472 86 OFFCURVE",
"454 71 OFFCURVE",
"438 71 CURVE SMOOTH",
"428 71 OFFCURVE",
"421 75 OFFCURVE",
"420 85 CURVE SMOOTH",
"415 132 OFFCURVE",
"445 232 OFFCURVE",
"485 350 CURVE SMOOTH",
"532 492 OFFCURVE",
"491 575 OFFCURVE",
"366 575 CURVE SMOOTH",
"317 575 OFFCURVE",
"258 543 OFFCURVE",
"205 480 CURVE",
"208 477 LINE",
"228 528 OFFCURVE",
"185 575 OFFCURVE",
"128 575 CURVE SMOOTH",
"85 575 OFFCURVE",
"35 555 OFFCURVE",
"19 525 CURVE",
"55 458 LINE",
"84 485 OFFCURVE",
"93 491 OFFCURVE",
"103 491 CURVE SMOOTH",
"112 491 OFFCURVE",
"117 486 OFFCURVE",
"120 478 CURVE SMOOTH",
"122 472 OFFCURVE",
"118 466 OFFCURVE",
"118 463 CURVE",
"18 0 LINE",
"108 0 LINE",
"164 269 LINE SMOOTH",
"185 375 OFFCURVE",
"295 491 OFFCURVE",
"356 491 CURVE SMOOTH",
"412 491 OFFCURVE",
"433 448 OFFCURVE",
"401 360 CURVE SMOOTH",
"350 218 OFFCURVE",
"331 108 OFFCURVE",
"333 56 CURVE SMOOTH",
"335 15 OFFCURVE",
"364 -13 OFFCURVE",
"413 -13 CURVE SMOOTH",
"455 -13 OFFCURVE",
"505 6 OFFCURVE",
"522 36 CURVE",
"485 110 LINE"
);
}
);
width = 545;
}
);
unicode = 006E;
},
{
color = 4;
glyphname = eng;
lastChange = "2023-07-14 09:45:09 +0000";
layers = (
{
components = (
{
name = n;
}
);
layerId = "7C079D0C-96CD-4BD8-8800-0621C7635A78";
paths = (
{
closed = 1;
nodes = (
"384 -141 OFFCURVE",
"420 -109 OFFCURVE",
"443 0 CURVE",
"398 0 LINE",
"379 -86 OFFCURVE",
"359 -99 OFFCURVE",
"291 -99 CURVE",
"286 -141 LINE"
);
}
);
width = 545;
},
{
components = (
{
name = n;
}
);
layerId = "291433DC-531A-45CC-B814-57D397372F12";
paths = (
{
closed = 1;
nodes = (
"405 -161 OFFCURVE",
"450 -119 OFFCURVE",
"475 0 CURVE",
"385 0 LINE",
"372 -55 OFFCURVE",
"351 -77 OFFCURVE",
"280 -77 CURVE",
"270 -161 LINE"
);
}
);
width = 545;
}
);
unicode = 014B;
},
{
color = 4;
glyphname = o;
lastChange = "2023-07-14 09:45:09 +0000";
layers = (
{
anchors = (
{
name = bottom;
position = "{213, 0}";
},
{
name = center;
position = "{273, 281}";
},
{
name = ogonek;
position = "{433, 9}";
},
{
name = top;
position = "{333, 562}";
},
{
name = topright;
position = "{587, 562}";
}
);
layerId = "7C079D0C-96CD-4BD8-8800-0621C7635A78";
paths = (
{
closed = 1;
nodes = (
"330 -13 OFFCURVE",
"431 104 OFFCURVE",
"467 277 CURVE SMOOTH",
"515 502 OFFCURVE",
"482 575 OFFCURVE",
"331 575 CURVE SMOOTH",
"215 575 OFFCURVE",
"115 458 OFFCURVE",
"78 285 CURVE SMOOTH",
"30 60 OFFCURVE",
"64 -13 OFFCURVE",
"215 -13 CURVE SMOOTH"
);
},
{
closed = 1;
nodes = (
"104 29 OFFCURVE",
"82 87 OFFCURVE",
"122 277 CURVE SMOOTH",
"155 431 OFFCURVE",
"237 533 OFFCURVE",
"330 533 CURVE SMOOTH",
"442 533 OFFCURVE",
"464 475 OFFCURVE",
"424 285 CURVE SMOOTH",
"391 131 OFFCURVE",
"308 29 OFFCURVE",
"215 29 CURVE SMOOTH"
);
}
);
width = 545;
},
{
anchors = (
{
name = bottom;
position = "{213, 0}";
},
{
name = center;
position = "{273, 281}";
},
{
name = ogonek;
position = "{433, 9}";
},
{
name = top;
position = "{332, 562}";
},
{
name = topright;
position = "{587, 562}";
}
);
layerId = "291433DC-531A-45CC-B814-57D397372F12";
paths = (
{
closed = 1;
nodes = (
"345 -13 OFFCURVE",
"449 113 OFFCURVE",
"486 277 CURVE SMOOTH",
"535 492 OFFCURVE",
"496 575 OFFCURVE",
"331 575 CURVE SMOOTH",
"201 575 OFFCURVE",
"91 449 OFFCURVE",
"59 285 CURVE SMOOTH",
"16 70 OFFCURVE",
"49 -13 OFFCURVE",
"215 -13 CURVE SMOOTH"
);
},
{
closed = 1;
nodes = (
"128 71 OFFCURVE",
"105 119 OFFCURVE",
"141 277 CURVE SMOOTH",
"169 398 OFFCURVE",
"244 491 OFFCURVE",
"321 491 CURVE SMOOTH",
"417 491 OFFCURVE",
"435 443 OFFCURVE",
"405 285 CURVE SMOOTH",
"382 164 OFFCURVE",
"302 71 OFFCURVE",
"225 71 CURVE SMOOTH"
);
}
);
width = 545;
}
);
unicode = 006F;
},
{
color = 4;
glyphname = oslash;
lastChange = "2023-07-14 09:45:09 +0000";
layers = (
{
anchors = (
{
name = top;
position = "{332, 562}";
}
);
components = (
{
name = o;
}
);
layerId = "7C079D0C-96CD-4BD8-8800-0621C7635A78";
paths = (
{
closed = 1;
nodes = (
"541 591 LINE",
"488 591 LINE",
"3 -28 LINE",
"56 -28 LINE"
);
}
);
width = 545;
},
{
anchors = (
{
name = top;
position = "{332, 562}";
}
);
components = (
{
name = o;
}
);
layerId = "291433DC-531A-45CC-B814-57D397372F12";
paths = (
{
closed = 1;
nodes = (
"511 612 LINE",
"410 612 LINE",
"33 -49 LINE",
"135 -49 LINE"
);
}
);
width = 545;
}
);
unicode = 00F8;
},
{
color = 4;
glyphname = oe;
lastChange = "2023-07-14 09:45:09 +0000";
layers = (
{
anchors = (
{
name = bottom;
position = "{213, 0}";
},
{
name = top;
position = "{332, 562}";
}
);
layerId = "7C079D0C-96CD-4BD8-8800-0621C7635A78";
paths = (
{
closed = 1;
nodes = (
"403 575 OFFCURVE",
"345 525 OFFCURVE",
"313 452 CURVE",
"314 525 OFFCURVE",
"290 575 OFFCURVE",
"228 575 CURVE SMOOTH",
"142 575 OFFCURVE",
"57 458 OFFCURVE",
"15 285 CURVE SMOOTH",
"-27 106 OFFCURVE",
"2 -13 OFFCURVE",
"88 -13 CURVE SMOOTH",
"143 -13 OFFCURVE",
"201 27 OFFCURVE",
"234 88 CURVE",
"240 27 OFFCURVE",
"278 -13 OFFCURVE",
"329 -13 CURVE SMOOTH",
"371 -13 OFFCURVE",
"430 23 OFFCURVE",
"475 75 CURVE",
"442 105 LINE",
"402 59 OFFCURVE",
"357 29 OFFCURVE",
"330 29 CURVE SMOOTH",
"276 29 OFFCURVE",
"258 116 OFFCURVE",
"296 278 CURVE",
"530 278 LINE",
"568 456 OFFCURVE",
"539 575 OFFCURVE",
"456 575 CURVE SMOOTH"
);
},
{
closed = 1;
nodes = (
"40 29 OFFCURVE",
"23 128 OFFCURVE",
"59 277 CURVE SMOOTH",
"96 431 OFFCURVE",
"164 533 OFFCURVE",
"227 533 CURVE SMOOTH",
"273 533 OFFCURVE",
"279 434 OFFCURVE",
"251 285 CURVE SMOOTH",
"216 104 OFFCURVE",
"154 29 OFFCURVE",
"89 29 CURVE SMOOTH"
);
},
{
closed = 1;
nodes = (
"337 447 OFFCURVE",
"396 533 OFFCURVE",
"455 533 CURVE SMOOTH",
"501 533 OFFCURVE",
"516 447 OFFCURVE",
"494 320 CURVE",
"306 320 LINE"
);
}
);
width = 545;
},
{
anchors = (
{
name = bottom;
position = "{213, 0}";
},
{
name = top;
position = "{332, 562}";
}
);
layerId = "291433DC-531A-45CC-B814-57D397372F12";
paths = (
{
closed = 1;
nodes = (
"414 575 OFFCURVE",
"367 549 OFFCURVE",
"326 501 CURVE",
"317 544 OFFCURVE",
"282 575 OFFCURVE",
"228 575 CURVE SMOOTH",
"126 575 OFFCURVE",
"34 450 OFFCURVE",
"-4 285 CURVE SMOOTH",
"-43 113 OFFCURVE",
"-14 -13 OFFCURVE",
"88 -13 CURVE SMOOTH",
"135 -13 OFFCURVE",
"185 12 OFFCURVE",
"228 58 CURVE",
"244 15 OFFCURVE",
"280 -13 OFFCURVE",
"329 -13 CURVE SMOOTH",
"382 -13 OFFCURVE",
"456 33 OFFCURVE",
"509 102 CURVE",
"448 156 LINE",
"413 111 OFFCURVE",
"361 71 OFFCURVE",
"339 71 CURVE SMOOTH",
"306 71 OFFCURVE",
"295 156 OFFCURVE",
"312 257 CURVE",
"546 257 LINE",
"590 442 OFFCURVE",
"558 575 OFFCURVE",
"456 575 CURVE SMOOTH"
);
},
{
closed = 1;
nodes = (
"62 71 OFFCURVE",
"48 165 OFFCURVE",
"78 276 CURVE SMOOTH",
"110 394 OFFCURVE",
"172 491 OFFCURVE",
"218 491 CURVE SMOOTH",
"245 491 OFFCURVE",
"251 393 OFFCURVE",
"232 285 CURVE SMOOTH",
"211 167 OFFCURVE",
"145 71 OFFCURVE",
"98 71 CURVE SMOOTH"
);
},
{
closed = 1;
nodes = (
"355 425 OFFCURVE",
"405 491 OFFCURVE",
"446 491 CURVE SMOOTH",
"476 491 OFFCURVE",
"490 427 OFFCURVE",
"478 348 CURVE",
"331 341 LINE"
);
}
);
width = 545;
}
);
unicode = 0153;
},
{
color = 4;
glyphname = p;
lastChange = "2023-07-14 09:45:09 +0000";
layers = (
{
anchors = (
{
name = bottom;
position = "{213, 0}";
},
{
name = top;
position = "{332, 562}";
}
);
background = {
paths = (
{
closed = 1;
nodes = (
"85 71 LINE",
"95 9 OFFCURVE",
"146 -13 OFFCURVE",
"221 -13 CURVE SMOOTH",
"366 -13 OFFCURVE",
"427 56 OFFCURVE",
"474 278 CURVE SMOOTH",
"522 503 OFFCURVE",
"488 575 OFFCURVE",
"337 575 CURVE SMOOTH",
"270 575 OFFCURVE",
"214 562 OFFCURVE",
"177 516 CURVE",
"188 562 LINE",
"143 562 LINE",
"-12 -165 LINE",
"34 -165 LINE"
);
},
{
closed = 1;
nodes = (
"448 533 OFFCURVE",
"470 475 OFFCURVE",
"430 285 CURVE SMOOTH",
"389 92 OFFCURVE",
"337 29 OFFCURVE",
"222 29 CURVE SMOOTH",
"135 29 OFFCURVE",
"83 67 OFFCURVE",
"107 182 CURVE",
"165 451 LINE",
"177 513 OFFCURVE",
"255 533 OFFCURVE",
"336 533 CURVE SMOOTH"
);
}
);
};
layerId = "7C079D0C-96CD-4BD8-8800-0621C7635A78";
paths = (
{
closed = 1;
nodes = (
"295 575 OFFCURVE",
"224 544 OFFCURVE",
"199 490 CURVE",
"208 553 OFFCURVE",
"176 575 OFFCURVE",
"138 575 CURVE SMOOTH",
"107 575 OFFCURVE",
"75 564 OFFCURVE",
"58 547 CURVE",
"80 514 LINE",
"92 525 OFFCURVE",
"108 533 OFFCURVE",
"122 533 CURVE SMOOTH",
"142 533 OFFCURVE",
"155 521 OFFCURVE",
"155 503 CURVE SMOOTH",
"155 499 OFFCURVE",
"155 492 OFFCURVE",
"154 485 CURVE SMOOTH",
"115 304 LINE SMOOTH",
"114 297 OFFCURVE",
"112 291 OFFCURVE",
"111 285 CURVE SMOOTH",
"109 276 OFFCURVE",
"107 268 OFFCURVE",
"106 261 CURVE SMOOTH",
"15 -165 LINE",
"61 -165 LINE",
"105 41 LINE",
"108 3 OFFCURVE",
"169 -13 OFFCURVE",
"238 -13 CURVE SMOOTH",
"354 -13 OFFCURVE",
"445 104 OFFCURVE",
"482 277 CURVE SMOOTH",
"529 502 OFFCURVE",
"505 575 OFFCURVE",
"355 575 CURVE SMOOTH"
);
},
{
closed = 1;
nodes = (
"405 131 OFFCURVE",
"332 29 OFFCURVE",
"239 29 CURVE SMOOTH",
"137 29 OFFCURVE",
"107 41 OFFCURVE",
"145 229 CURVE SMOOTH",
"161 305 LINE",
"199 490 OFFCURVE",
"266 533 OFFCURVE",
"354 533 CURVE SMOOTH",
"465 533 OFFCURVE",
"478 475 OFFCURVE",
"438 285 CURVE SMOOTH"
);
}
);
width = 545;
},
{
anchors = (
{
name = bottom;
position = "{213, 0}";
},
{
name = top;
position = "{332, 562}";
}
);
layerId = "291433DC-531A-45CC-B814-57D397372F12";
paths = (
{
closed = 1;
nodes = (
"307 575 OFFCURVE",
"256 558 OFFCURVE",
"216 525 CURVE",
"215 560 OFFCURVE",
"191 575 OFFCURVE",
"138 575 CURVE SMOOTH",
"95 575 OFFCURVE",
"45 555 OFFCURVE",
"29 525 CURVE",
"66 452 LINE",
"79 475 OFFCURVE",
"97 491 OFFCURVE",
"113 491 CURVE SMOOTH",
"122 491 OFFCURVE",
"128 486 OFFCURVE",
"130 478 CURVE SMOOTH",
"129 472 OFFCURVE",
"128 467 OFFCURVE",
"128 463 CURVE",
"95 305 LINE",
"92 295 OFFCURVE",
"92 288 OFFCURVE",
"91 285 CURVE",
"87 274 OFFCURVE",
"85 265 OFFCURVE",
"85 260 CURVE SMOOTH",
"-6 -165 LINE",
"84 -165 LINE",
"125 8 LINE",
"149 -5 OFFCURVE",
"186 -13 OFFCURVE",
"238 -13 CURVE SMOOTH",
"365 -13 OFFCURVE",
"468 109 OFFCURVE",
"501 277 CURVE SMOOTH",
"545 498 OFFCURVE",
"516 575 OFFCURVE",
"355 575 CURVE SMOOTH"
);
},
{
closed = 1;
nodes = (
"390 159 OFFCURVE",
"323 71 OFFCURVE",
"248 71 CURVE SMOOTH",
"148 71 OFFCURVE",
"138 90 OFFCURVE",
"166 229 CURVE SMOOTH",
"181 305 LINE SMOOTH",
"207 435 OFFCURVE",
"256 491 OFFCURVE",
"345 491 CURVE SMOOTH",
"437 491 OFFCURVE",
"456 449 OFFCURVE",
"419 285 CURVE SMOOTH"
);
}
);
width = 545;
}
);
unicode = 0070;
},
{
color = 4;
glyphname = thorn;
lastChange = "2023-07-14 09:45:09 +0000";
layers = (
{
anchors = (
{
name = bottom;
position = "{213, 0}";
},
{
name = top;
position = "{332, 562}";
}
);
layerId = "7C079D0C-96CD-4BD8-8800-0621C7635A78";
paths = (
{
closed = 1;
nodes = (
"276 575 OFFCURVE",
"205 543 OFFCURVE",
"180 488 CURVE",
"232 727 LINE",
"186 727 LINE",
"-3 -165 LINE",
"43 -165 LINE",
"87 41 LINE",
"90 3 OFFCURVE",
"151 -13 OFFCURVE",
"220 -13 CURVE SMOOTH",
"335 -13 OFFCURVE",
"427 104 OFFCURVE",
"464 277 CURVE SMOOTH",
"511 502 OFFCURVE",
"487 575 OFFCURVE",
"336 575 CURVE SMOOTH"
);
},
{
closed = 1;
nodes = (
"387 131 OFFCURVE",
"314 29 OFFCURVE",
"221 29 CURVE SMOOTH",
"109 29 OFFCURVE",
"87 41 OFFCURVE",
"136 277 CURVE SMOOTH",
"180 488 OFFCURVE",
"243 533 OFFCURVE",
"335 533 CURVE SMOOTH",
"447 533 OFFCURVE",
"460 475 OFFCURVE",
"420 285 CURVE SMOOTH"
);
}
);
width = 545;
},
{
anchors = (
{
name = bottom;
position = "{213, 0}";
},
{
name = top;
position = "{332, 562}";
}
);
layerId = "291433DC-531A-45CC-B814-57D397372F12";
paths = (
{
closed = 1;
nodes = (
"294 575 OFFCURVE",
"248 561 OFFCURVE",
"211 535 CURVE",
"254 727 LINE",
"164 727 LINE",
"-25 -165 LINE",
"65 -165 LINE",
"106 8 LINE",
"131 -5 OFFCURVE",
"168 -13 OFFCURVE",
"220 -13 CURVE SMOOTH",
"347 -13 OFFCURVE",
"445 109 OFFCURVE",
"483 277 CURVE SMOOTH",
"532 498 OFFCURVE",
"498 575 OFFCURVE",
"336 575 CURVE SMOOTH"
);
},
{
closed = 1;
nodes = (
"377 159 OFFCURVE",
"305 71 OFFCURVE",
"230 71 CURVE SMOOTH",
"125 71 OFFCURVE",
"116 87 OFFCURVE",
"156 277 CURVE SMOOTH",
"190 434 OFFCURVE",
"235 491 OFFCURVE",
"326 491 CURVE SMOOTH",
"419 491 OFFCURVE",
"432 449 OFFCURVE",
"401 285 CURVE SMOOTH"
);
}
);
width = 545;
}
);
unicode = 00FE;
},
{
color = 4;
glyphname = q;
lastChange = "2023-07-14 09:45:09 +0000";
layers = (
{
anchors = (
{
name = bottom;
position = "{213, 0}";
},
{
name = top;
position = "{332, 562}";
}
);
layerId = "7C079D0C-96CD-4BD8-8800-0621C7635A78";
paths = (
{
closed = 1;
nodes = (
"451 505 LINE",
"448 543 OFFCURVE",
"409 575 OFFCURVE",
"322 575 CURVE SMOOTH",
"206 575 OFFCURVE",
"115 458 OFFCURVE",
"78 285 CURVE SMOOTH",
"31 60 OFFCURVE",
"55 -13 OFFCURVE",
"205 -13 CURVE SMOOTH",
"271 -13 OFFCURVE",
"340 25 OFFCURVE",
"360 67 CURVE",
"310 -165 LINE",
"355 -165 LINE",
"510 562 LINE",
"465 562 LINE"
);
},
{
closed = 1;
nodes = (
"95 29 OFFCURVE",
"82 87 OFFCURVE",
"122 277 CURVE SMOOTH",
"155 431 OFFCURVE",
"228 533 OFFCURVE",
"321 533 CURVE SMOOTH",
"425 533 OFFCURVE",
"451 505 OFFCURVE",
"414 325 CURVE SMOOTH",
"402 267 LINE SMOOTH",
"361 67 OFFCURVE",
"295 29 OFFCURVE",
"206 29 CURVE SMOOTH"
);
}
);
width = 545;
},
{
anchors = (
{
name = bottom;
position = "{213, 0}";
},
{
name = top;
position = "{332, 562}";
}
);
layerId = "291433DC-531A-45CC-B814-57D397372F12";
paths = (
{
closed = 1;
nodes = (
"435 545 LINE",
"413 564 OFFCURVE",
"374 575 OFFCURVE",
"322 575 CURVE SMOOTH",
"195 575 OFFCURVE",
"92 453 OFFCURVE",
"59 285 CURVE SMOOTH",
"15 64 OFFCURVE",
"44 -13 OFFCURVE",
"205 -13 CURVE SMOOTH",
"246 -13 OFFCURVE",
"293 1 OFFCURVE",
"329 25 CURVE",
"288 -165 LINE",
"378 -165 LINE",
"532 562 LINE",
"443 562 LINE"
);
},
{
closed = 1;
nodes = (
"123 71 OFFCURVE",
"104 113 OFFCURVE",
"141 277 CURVE SMOOTH",
"170 403 OFFCURVE",
"237 491 OFFCURVE",
"312 491 CURVE SMOOTH",
"407 491 OFFCURVE",
"414 464 OFFCURVE",
"387 304 CURVE SMOOTH",
"382 266 LINE SMOOTH",
"359 125 OFFCURVE",
"306 71 OFFCURVE",
"215 71 CURVE SMOOTH"
);
}
);
width = 545;
}
);
unicode = 0071;
},
{
color = 4;
glyphname = r;
lastChange = "2023-07-14 09:45:09 +0000";
layers = (
{
anchors = (
{
name = bottom;
position = "{331, 0}";
},
{
name = top;
position = "{332, 562}";
}
);
background = {
paths = (
{
closed = 1;
nodes = (
"101 0 LINE",
"167 308 LINE",
"254 477 OFFCURVE",
"309 533 OFFCURVE",
"396 533 CURVE SMOOTH",
"426 533 OFFCURVE",
"441 515 OFFCURVE",
"458 451 CURVE",
"502 468 LINE",
"479 547 OFFCURVE",
"455 575 OFFCURVE",
"397 575 CURVE SMOOTH",
"309 575 OFFCURVE",
"261 545 OFFCURVE",
"195 448 CURVE",
"221 562 LINE",
"175 562 LINE",
"55 0 LINE"
);
}
);
};
layerId = "7C079D0C-96CD-4BD8-8800-0621C7635A78";
paths = (
{
closed = 1;
nodes = (
"175 344 OFFCURVE",
"220 434 OFFCURVE",
"220 490 CURVE SMOOTH",
"220 541 OFFCURVE",
"192 575 OFFCURVE",
"150 575 CURVE SMOOTH",
"102 575 OFFCURVE",
"70 545 OFFCURVE",
"70 503 CURVE SMOOTH",
"70 449 OFFCURVE",
"129 413 OFFCURVE",
"218 413 CURVE SMOOTH",
"265 413 OFFCURVE",
"335 434 OFFCURVE",
"394 465 CURVE",
"316 340 OFFCURVE",
"265 188 OFFCURVE",
"265 84 CURVE SMOOTH",
"265 25 OFFCURVE",
"300 -13 OFFCURVE",
"354 -13 CURVE SMOOTH",
"406 -13 OFFCURVE",
"455 22 OFFCURVE",
"477 74 CURVE",
"435 90 LINE",
"419 54 OFFCURVE",
"386 29 OFFCURVE",
"354 29 CURVE SMOOTH",
"327 29 OFFCURVE",
"310 51 OFFCURVE",
"310 84 CURVE SMOOTH",
"310 194 OFFCURVE",
"378 368 OFFCURVE",
"481 521 CURVE",
"448 544 LINE",
"365 490 OFFCURVE",
"273 455 OFFCURVE",
"218 455 CURVE SMOOTH",
"156 455 OFFCURVE",
"115 474 OFFCURVE",
"115 503 CURVE SMOOTH",
"115 521 OFFCURVE",
"129 533 OFFCURVE",
"145 533 CURVE SMOOTH",
"165 533 OFFCURVE",
"175 516 OFFCURVE",
"175 492 CURVE SMOOTH",
"175 439 OFFCURVE",
"135 363 OFFCURVE",
"77 301 CURVE",
"105 265 LINE"
);
}
);
width = 545;
},
{
anchors = (
{
name = bottom;
position = "{331, 0}";
},
{
name = top;
position = "{332, 562}";
}
);
layerId = "291433DC-531A-45CC-B814-57D397372F12";
paths = (
{
closed = 1;
nodes = (
"182 299 OFFCURVE",
"236 406 OFFCURVE",
"235 474 CURVE SMOOTH",
"237 534 OFFCURVE",
"203 575 OFFCURVE",
"150 575 CURVE SMOOTH",
"88 575 OFFCURVE",
"44 534 OFFCURVE",
"46 477 CURVE SMOOTH",
"45 414 OFFCURVE",
"109 371 OFFCURVE",
"209 371 CURVE SMOOTH",
"242 371 OFFCURVE",
"291 381 OFFCURVE",
"345 404 CURVE",
"276 282 OFFCURVE",
"247 191 OFFCURVE",
"249 100 CURVE SMOOTH",
"248 33 OFFCURVE",
"289 -13 OFFCURVE",
"354 -13 CURVE SMOOTH",
"422 -13 OFFCURVE",
"487 37 OFFCURVE",
"508 111 CURVE",
"427 137 LINE",
"419 99 OFFCURVE",
"391 71 OFFCURVE",
"363 71 CURVE SMOOTH",
"348 71 OFFCURVE",
"336 85 OFFCURVE",
"334 109 CURVE SMOOTH",
"333 220 OFFCURVE",
"402 359 OFFCURVE",
"505 508 CURVE",
"448 548 LINE",
"367 494 OFFCURVE",
"273 455 OFFCURVE",
"218 455 CURVE SMOOTH",
"154 455 OFFCURVE",
"110 458 OFFCURVE",
"110 491 CURVE SMOOTH",
"110 506 OFFCURVE",
"122 519 OFFCURVE",
"139 519 CURVE SMOOTH",
"154 519 OFFCURVE",
"163 502 OFFCURVE",
"163 478 CURVE SMOOTH",
"163 428 OFFCURVE",
"115 348 OFFCURVE",
"45 279 CURVE",
"95 209 LINE"
);
}
);
width = 545;
}
);
unicode = 0072;
},
{
color = 4;
glyphname = s;
lastChange = "2023-07-14 09:45:09 +0000";
layers = (
{
anchors = (
{
name = bottom;
position = "{204, 0}";
},
{
name = top;
position = "{324, 562}";
}
);
background = {
paths = (
{
closed = 1;
nodes = (
"482 555 OFFCURVE",
"445 575 OFFCURVE",
"354 575 CURVE SMOOTH",
"204 575 OFFCURVE",
"149 539 OFFCURVE",
"125 422 CURVE SMOOTH",
"107 341 OFFCURVE",
"141 291 OFFCURVE",
"280 274 CURVE SMOOTH",
"391 259 OFFCURVE",
"420 233 OFFCURVE",
"404 155 CURVE SMOOTH",
"383 60 OFFCURVE",
"331 29 OFFCURVE",
"193 29 CURVE SMOOTH",
"128 29 OFFCURVE",
"102 46 OFFCURVE",
"85 105 CURVE",
"45 80 LINE",
"70 11 OFFCURVE",
"105 -13 OFFCURVE",
"192 -13 CURVE SMOOTH",
"360 -13 OFFCURVE",
"421 25 OFFCURVE",
"447 148 CURVE SMOOTH",
"470 256 OFFCURVE",
"430 297 OFFCURVE",
"281 316 CURVE SMOOTH",
"182 331 OFFCURVE",
"157 364 OFFCURVE",
"168 415 CURVE SMOOTH",
"187 504 OFFCURVE",
"233 533 OFFCURVE",
"353 533 CURVE SMOOTH",
"423 533 OFFCURVE",
"452 518 OFFCURVE",
"473 468 CURVE",
"510 496 LINE"
);
}
);
};
layerId = "7C079D0C-96CD-4BD8-8800-0621C7635A78";
paths = (
{
closed = 1;
nodes = (
"311 -13 OFFCURVE",
"423 28 OFFCURVE",
"476 89 CURVE",
"448 118 LINE",
"424 91 OFFCURVE",
"365 62 OFFCURVE",
"324 48 CURVE",
"375 102 OFFCURVE",
"403 174 OFFCURVE",
"403 256 CURVE SMOOTH",
"403 314 OFFCURVE",
"381 380 OFFCURVE",
"347 422 CURVE",
"367 449 OFFCURVE",
"377 485 OFFCURVE",
"377 508 CURVE SMOOTH",
"377 548 OFFCURVE",
"351 575 OFFCURVE",
"307 575 CURVE SMOOTH",
"266 575 OFFCURVE",
"243 548 OFFCURVE",
"243 511 CURVE SMOOTH",
"243 488 OFFCURVE",
"262 451 OFFCURVE",
"295 419 CURVE",
"254 356 OFFCURVE",
"175 310 OFFCURVE",
"97 302 CURVE",
"105 260 LINE",
"189 270 OFFCURVE",
"276 319 OFFCURVE",
"323 383 CURVE",
"344 354 OFFCURVE",
"357 305 OFFCURVE",
"357 262 CURVE SMOOTH",
"357 138 OFFCURVE",
"297 29 OFFCURVE",
"188 29 CURVE SMOOTH",
"135 29 OFFCURVE",
"82 60 OFFCURVE",
"55 107 CURVE",
"15 89 LINE",
"51 27 OFFCURVE",
"116 -13 OFFCURVE",
"197 -13 CURVE SMOOTH"
);
},
{
closed = 1;
nodes = (
"297 475 OFFCURVE",
"286 492 OFFCURVE",
"286 512 CURVE SMOOTH",
"286 527 OFFCURVE",
"295 537 OFFCURVE",
"309 537 CURVE SMOOTH",
"325 537 OFFCURVE",
"334 525 OFFCURVE",
"334 505 CURVE SMOOTH",
"334 491 OFFCURVE",
"330 475 OFFCURVE",
"317 452 CURVE"
);
}
);
width = 545;
},
{
anchors = (
{
name = bottom;
position = "{222, 0}";
},
{
name = top;
position = "{342, 562}";
}
);
layerId = "291433DC-531A-45CC-B814-57D397372F12";
paths = (
{
closed = 1;
nodes = (
"325 -13 OFFCURVE",
"455 38 OFFCURVE",
"508 115 CURVE",
"457 172 LINE",
"435 147 OFFCURVE",
"407 127 OFFCURVE",
"381 111 CURVE",
"415 162 OFFCURVE",
"423 200 OFFCURVE",
"423 261 CURVE SMOOTH",
"425 320 OFFCURVE",
"398 363 OFFCURVE",
"368 405 CURVE",
"387 435 OFFCURVE",
"395 469 OFFCURVE",
"393 492 CURVE",
"393 542 OFFCURVE",
"361 575 OFFCURVE",
"307 575 CURVE SMOOTH",
"254 575 OFFCURVE",
"216 537 OFFCURVE",
"218 485 CURVE",
"215 458 OFFCURVE",
"236 422 OFFCURVE",
"263 394 CURVE",
"220 339 OFFCURVE",
"143 300 OFFCURVE",
"69 300 CURVE",
"78 216 LINE",
"160 220 OFFCURVE",
"252 262 OFFCURVE",
"313 324 CURVE",
"325 299 OFFCURVE",
"335 286 OFFCURVE",
"337 257 CURVE",
"337 145 OFFCURVE",
"281 71 OFFCURVE",
"197 71 CURVE SMOOTH",
"146 71 OFFCURVE",
"92 105 OFFCURVE",
"71 157 CURVE",
"-11 115 LINE",
"26 36 OFFCURVE",
"105 -13 OFFCURVE",
"197 -13 CURVE SMOOTH"
);
},
{
closed = 1;
nodes = (
"292 462 OFFCURVE",
"284 477 OFFCURVE",
"284 495 CURVE SMOOTH",
"284 510 OFFCURVE",
"294 519 OFFCURVE",
"305 518 CURVE SMOOTH",
"321 517 OFFCURVE",
"330 505 OFFCURVE",
"327 487 CURVE SMOOTH",
"325 474 OFFCURVE",
"322 460 OFFCURVE",
"308 439 CURVE"
);
}
);
width = 545;
}
);
unicode = 0073;
},
{
color = 4;
glyphname = germandbls;
lastChange = "2023-07-14 09:45:09 +0000";
layers = (
{
anchors = (
{
name = bottom;
position = "{213, 0}";
},
{
name = top;
position = "{332, 562}";
}
);
layerId = "7C079D0C-96CD-4BD8-8800-0621C7635A78";
paths = (
{
closed = 1;
nodes = (
"462 420 OFFCURVE",
"486 457 OFFCURVE",
"505 544 CURVE SMOOTH",
"536 692 OFFCURVE",
"497 740 OFFCURVE",
"347 740 CURVE SMOOTH",
"218 740 OFFCURVE",
"169 695 OFFCURVE",
"138 549 CURVE SMOOTH",
"21 0 LINE",
"66 0 LINE",
"183 545 LINE SMOOTH",
"207 660 OFFCURVE",
"248 698 OFFCURVE",
"346 698 CURVE SMOOTH",
"458 698 OFFCURVE",
"485 664 OFFCURVE",
"461 551 CURVE SMOOTH",
"438 443 OFFCURVE",
"392 407 OFFCURVE",
"278 407 CURVE SMOOTH",
"272 407 LINE",
"263 365 LINE",
"296 365 LINE SMOOTH",
"410 365 OFFCURVE",
"436 328 OFFCURVE",
"411 207 CURVE SMOOTH",
"385 83 OFFCURVE",
"337 42 OFFCURVE",
"224 42 CURVE SMOOTH",
"175 42 LINE",
"166 0 LINE",
"218 0 LINE SMOOTH",
"366 0 OFFCURVE",
"422 47 OFFCURVE",
"455 200 CURVE SMOOTH",
"479 314 OFFCURVE",
"464 360 OFFCURVE",
"397 389 CURVE"
);
}
);
width = 545;
},
{
anchors = (
{
name = bottom;
position = "{213, 0}";
},
{
name = top;
position = "{332, 562}";
}
);
layerId = "291433DC-531A-45CC-B814-57D397372F12";
paths = (
{
closed = 1;
nodes = (
"489 425 OFFCURVE",
"505 458 OFFCURVE",
"522 532 CURVE SMOOTH",
"555 683 OFFCURVE",
"510 740 OFFCURVE",
"347 740 CURVE SMOOTH",
"205 740 OFFCURVE",
"146 686 OFFCURVE",
"115 537 CURVE SMOOTH",
"-1 0 LINE",
"88 0 LINE",
"201 534 LINE SMOOTH",
"221 628 OFFCURVE",
"253 656 OFFCURVE",
"337 656 CURVE SMOOTH",
"436 656 OFFCURVE",
"456 631 OFFCURVE",
"438 539 CURVE SMOOTH",
"420 444 OFFCURVE",
"385 428 OFFCURVE",
"283 428 CURVE SMOOTH",
"254 428 LINE",
"236 345 LINE",
"292 345 LINE SMOOTH",
"393 345 OFFCURVE",
"419 326 OFFCURVE",
"394 218 CURVE SMOOTH",
"370 115 OFFCURVE",
"334 84 OFFCURVE",
"233 84 CURVE SMOOTH",
"163 84 LINE",
"145 0 LINE",
"218 0 LINE SMOOTH",
"380 0 OFFCURVE",
"445 57 OFFCURVE",
"476 211 CURVE SMOOTH",
"497 316 OFFCURVE",
"488 359 OFFCURVE",
"439 391 CURVE"
);
}
);
width = 545;
}
);
unicode = 00DF;
},
{
color = 4;
glyphname = t;
lastChange = "2023-07-14 09:45:09 +0000";
layers = (
{
anchors = (
{
name = bottom;
position = "{258, 0}";
},
{
name = center;
position = "{273, 281}";
},
{
name = top;
position = "{332, 562}";
},
{
name = topright;
position = "{587, 562}";
}
);
background = {
paths = (
{
closed = 1;
nodes = (
"363 0 OFFCURVE",
"401 17 OFFCURVE",
"438 79 CURVE",
"397 97 LINE",
"373 56 OFFCURVE",
"343 42 OFFCURVE",
"277 42 CURVE SMOOTH",
"196 42 OFFCURVE",
"179 75 OFFCURVE",
"202 184 CURVE SMOOTH",
"274 520 LINE",
"463 520 LINE",
"472 562 LINE",
"283 562 LINE",
"320 740 LINE",
"275 740 LINE",
"237 562 LINE",
"125 562 LINE",
"115 520 LINE",
"228 520 LINE",
"157 187 LINE SMOOTH",
"127 46 OFFCURVE",
"156 0 OFFCURVE",
"276 0 CURVE SMOOTH"
);
}
);
};
layerId = "7C079D0C-96CD-4BD8-8800-0621C7635A78";
paths = (
{
closed = 1;
nodes = (
"360 -13 OFFCURVE",
"398 5 OFFCURVE",
"435 66 CURVE",
"395 85 LINE",
"370 44 OFFCURVE",
"340 29 OFFCURVE",
"275 29 CURVE SMOOTH",
"194 29 OFFCURVE",
"179 75 OFFCURVE",
"202 184 CURVE SMOOTH",
"274 520 LINE",
"463 520 LINE",
"472 562 LINE",
"283 562 LINE",
"317 727 LINE",
"272 727 LINE",
"237 562 LINE",
"125 562 LINE",
"115 520 LINE",
"228 520 LINE",
"157 187 LINE SMOOTH",
"127 46 OFFCURVE",
"154 -13 OFFCURVE",
"274 -13 CURVE SMOOTH"
);
}
);
width = 545;
},
{
anchors = (
{
name = bottom;
position = "{258, 0}";
},
{
name = center;
position = "{273, 281}";
},
{
name = top;
position = "{332, 562}";
},
{
name = topright;
position = "{587, 562}";
}
);
layerId = "291433DC-531A-45CC-B814-57D397372F12";
paths = (
{
closed = 1;
nodes = (
"377 -13 OFFCURVE",
"425 14 OFFCURVE",
"469 99 CURVE",
"392 134 LINE",
"366 85 OFFCURVE",
"352 71 OFFCURVE",
"284 71 CURVE SMOOTH",
"221 71 OFFCURVE",
"205 102 OFFCURVE",
"227 205 CURVE SMOOTH",
"286 478 LINE",
"475 478 LINE",
"494 562 LINE",
"305 562 LINE",
"339 727 LINE",
"249 727 LINE",
"215 562 LINE",
"103 562 LINE",
"85 478 LINE",
"197 478 LINE",
"141 208 LINE SMOOTH",
"108 51 OFFCURVE",
"144 -13 OFFCURVE",
"274 -13 CURVE SMOOTH"
);
}
);
width = 545;
}
);
unicode = 0074;
},
{
color = 4;
glyphname = tbar;
lastChange = "2023-07-14 09:45:09 +0000";
layers = (
{
components = (
{
name = t;
}
);
layerId = "7C079D0C-96CD-4BD8-8800-0621C7635A78";
paths = (
{
closed = 1;
nodes = (
"421 322 LINE",
"429 364 LINE",
"82 364 LINE",
"74 322 LINE"
);
}
);
width = 545;
},
{
components = (
{
name = t;
}
);
layerId = "291433DC-531A-45CC-B814-57D397372F12";
paths = (
{
closed = 1;
nodes = (
"435 280 LINE",
"452 364 LINE",
"59 364 LINE",
"42 280 LINE"
);
}
);
width = 545;
}
);
unicode = 0167;
},
{
color = 4;
glyphname = u;
lastChange = "2023-07-14 09:45:09 +0000";
layers = (
{
anchors = (
{
name = bottom;
position = "{176, 0}";
},
{
name = ogonek;
position = "{467, 14}";
},
{
name = top;
position = "{324, 562}";
},
{
name = topright;
position = "{583, 562}";
}
);
layerId = "7C079D0C-96CD-4BD8-8800-0621C7635A78";
paths = (
{
closed = 1;
nodes = (
"81 525 OFFCURVE",
"97 533 OFFCURVE",
"111 533 CURVE SMOOTH",
"131 533 OFFCURVE",
"145 521 OFFCURVE",
"145 503 CURVE SMOOTH",
"145 454 OFFCURVE",
"115 332 OFFCURVE",
"72 197 CURVE SMOOTH",
"24 49 OFFCURVE",
"71 -13 OFFCURVE",
"183 -13 CURVE SMOOTH",
"253 -13 OFFCURVE",
"316 57 OFFCURVE",
"368 155 CURVE",
"350 71 LINE SMOOTH",
"338 16 OFFCURVE",
"375 -13 OFFCURVE",
"412 -13 CURVE SMOOTH",
"443 -13 OFFCURVE",
"475 -2 OFFCURVE",
"492 15 CURVE",
"470 48 LINE",
"458 36 OFFCURVE",
"441 29 OFFCURVE",
"428 29 CURVE SMOOTH",
"408 29 OFFCURVE",
"395 41 OFFCURVE",
"395 59 CURVE SMOOTH",
"395 64 OFFCURVE",
"395 71 OFFCURVE",
"396 77 CURVE",
"500 562 LINE",
"454 562 LINE",
"398 300 LINE SMOOTH",
"376 196 OFFCURVE",
"274 29 OFFCURVE",
"184 29 CURVE SMOOTH",
"110 29 OFFCURVE",
"81 75 OFFCURVE",
"117 194 CURVE SMOOTH",
"162 339 OFFCURVE",
"192 471 OFFCURVE",
"192 522 CURVE SMOOTH",
"192 554 OFFCURVE",
"166 575 OFFCURVE",
"127 575 CURVE SMOOTH",
"96 575 OFFCURVE",
"65 564 OFFCURVE",
"47 547 CURVE",
"69 514 LINE"
);
}
);
width = 545;
},
{
anchors = (
{
name = bottom;
position = "{176, 0}";
},
{
name = ogonek;
position = "{443, 10}";
},
{
name = top;
position = "{332, 562}";
},
{
name = topright;
position = "{610, 562}";
}
);
layerId = "291433DC-531A-45CC-B814-57D397372F12";
paths = (
{
closed = 1;
nodes = (
"68 475 OFFCURVE",
"86 491 OFFCURVE",
"102 491 CURVE SMOOTH",
"112 491 OFFCURVE",
"119 486 OFFCURVE",
"120 477 CURVE SMOOTH",
"125 430 OFFCURVE",
"95 330 OFFCURVE",
"55 212 CURVE SMOOTH",
"8 70 OFFCURVE",
"49 -13 OFFCURVE",
"183 -13 CURVE SMOOTH",
"232 -13 OFFCURVE",
"282 19 OFFCURVE",
"335 82 CURVE",
"332 85 LINE",
"312 34 OFFCURVE",
"355 -13 OFFCURVE",
"412 -13 CURVE SMOOTH",
"455 -13 OFFCURVE",
"505 6 OFFCURVE",
"521 36 CURVE",
"485 104 LINE",
"456 77 OFFCURVE",
"447 71 OFFCURVE",
"437 71 CURVE SMOOTH",
"428 71 OFFCURVE",
"423 75 OFFCURVE",
"420 84 CURVE SMOOTH",
"418 90 OFFCURVE",
"422 95 OFFCURVE",
"422 99 CURVE",
"522 562 LINE",
"432 562 LINE",
"376 293 LINE SMOOTH",
"355 187 OFFCURVE",
"255 71 OFFCURVE",
"193 71 CURVE SMOOTH",
"128 71 OFFCURVE",
"107 114 OFFCURVE",
"139 202 CURVE SMOOTH",
"190 344 OFFCURVE",
"209 454 OFFCURVE",
"207 505 CURVE SMOOTH",
"205 547 OFFCURVE",
"176 575 OFFCURVE",
"127 575 CURVE SMOOTH",
"85 575 OFFCURVE",
"35 555 OFFCURVE",
"18 525 CURVE",
"55 452 LINE"
);
}
);
width = 545;
}
);
unicode = 0075;
},
{
color = 4;
glyphname = v;
lastChange = "2023-07-14 09:45:09 +0000";
layers = (
{
anchors = (
{
name = bottom;
position = "{213, 0}";
},
{
name = top;
position = "{332, 562}";
}
);
layerId = "7C079D0C-96CD-4BD8-8800-0621C7635A78";
paths = (
{
closed = 1;
nodes = (
"237 0 LINE",
"339 187 OFFCURVE",
"495 375 OFFCURVE",
"543 562 CURVE",
"495 562 LINE",
"460 400 OFFCURVE",
"317 232 OFFCURVE",
"228 70 CURVE",
"167 562 LINE",
"122 562 LINE",
"188 0 LINE"
);
}
);
width = 545;
},
{
anchors = (
{
name = bottom;
position = "{213, 0}";
},
{
name = top;
position = "{332, 562}";
}
);
layerId = "291433DC-531A-45CC-B814-57D397372F12";
paths = (
{
closed = 1;
nodes = (
"254 0 LINE",
"358 199 OFFCURVE",
"525 368 OFFCURVE",
"564 562 CURVE",
"475 562 LINE",
"451 423 OFFCURVE",
"334 292 OFFCURVE",
"242 144 CURVE",
"183 562 LINE",
"92 562 LINE",
"172 -1 LINE"
);
}
);
width = 545;
}
);
unicode = 0076;
},
{
color = 4;
glyphname = w;
lastChange = "2023-07-14 09:45:09 +0000";
layers = (
{
anchors = (
{
name = bottom;
position = "{213, 0}";
},
{
name = top;
position = "{332, 562}";
}
);
layerId = "7C079D0C-96CD-4BD8-8800-0621C7635A78";
paths = (
{
closed = 1;
nodes = (
"481 375 OFFCURVE",
"381 187 OFFCURVE",
"310 0 CURVE",
"354 0 LINE",
"316 380 LINE",
"271 380 LINE",
"243 254 OFFCURVE",
"139 126 OFFCURVE",
"73 0 CURVE",
"116 0 LINE",
"141 562 LINE",
"95 562 LINE",
"73 0 LINE",
"116 0 LINE",
"184 126 OFFCURVE",
"287 254 OFFCURVE",
"315 380 CURVE",
"274 380 LINE",
"310 0 LINE",
"354 0 LINE",
"426 187 OFFCURVE",
"527 375 OFFCURVE",
"570 562 CURVE",
"523 562 LINE"
);
}
);
width = 545;
},
{
anchors = (
{
name = bottom;
position = "{213, 0}";
},
{
name = top;
position = "{332, 562}";
}
);
layerId = "291433DC-531A-45CC-B814-57D397372F12";
paths = (
{
closed = 1;
nodes = (
"460 355 OFFCURVE",
"365 206 OFFCURVE",
"292 0 CURVE",
"380 0 LINE",
"337 401 LINE",
"254 401 LINE",
"232 262 OFFCURVE",
"124 150 OFFCURVE",
"54 0 CURVE",
"140 0 LINE",
"159 562 LINE",
"69 562 LINE",
"54 0 LINE",
"142 0 LINE",
"212 143 OFFCURVE",
"319 259 OFFCURVE",
"341 401 CURVE",
"248 401 LINE",
"292 0 LINE",
"380 0 LINE",
"457 208 OFFCURVE",
"551 359 OFFCURVE",
"591 562 CURVE",
"503 562 LINE"
);
}
);
width = 545;
}
);
unicode = 0077;
},
{
color = 4;
glyphname = x;
lastChange = "2023-07-14 09:45:09 +0000";
layers = (
{
anchors = (
{
name = bottom;
position = "{213, 0}";
},
{
name = top;
position = "{332, 562}";
}
);
layerId = "7C079D0C-96CD-4BD8-8800-0621C7635A78";
paths = (
{
closed = 1;
nodes = (
"177 187 OFFCURVE",
"448 375 OFFCURVE",
"528 562 CURVE",
"475 562 LINE",
"395 375 OFFCURVE",
"125 187 OFFCURVE",
"17 0 CURVE",
"70 0 LINE"
);
},
{
closed = 1;
nodes = (
"188 562 LINE",
"137 562 LINE",
"357 0 LINE",
"408 0 LINE"
);
}
);
width = 545;
},
{
anchors = (
{
name = bottom;
position = "{213, 0}";
},
{
name = top;
position = "{332, 562}";
}
);
layerId = "291433DC-531A-45CC-B814-57D397372F12";
paths = (
{
closed = 1;
nodes = (
"190 196 OFFCURVE",
"489 360 OFFCURVE",
"553 562 CURVE",
"458 562 LINE",
"384 361 OFFCURVE",
"87 208 OFFCURVE",
"-13 0 CURVE",
"85 0 LINE"
);
},
{
closed = 1;
nodes = (
"202 562 LINE",
"99 562 LINE",
"344 0 LINE",
"446 0 LINE"
);
}
);
width = 545;
}
);
unicode = 0078;
},
{
color = 4;
glyphname = y;
lastChange = "2023-07-14 09:45:09 +0000";
layers = (
{
anchors = (
{
name = bottom;
position = "{409, -43}";
},
{
name = top;
position = "{332, 562}";
}
);
layerId = "7C079D0C-96CD-4BD8-8800-0621C7635A78";
paths = (
{
closed = 1;
nodes = (
"217 -187 OFFCURVE",
"323 -136 OFFCURVE",
"368 -59 CURVE",
"392 -59 OFFCURVE",
"427 -59 OFFCURVE",
"457 -51 CURVE",
"466 -10 LINE",
"443 -16 OFFCURVE",
"424 -18 OFFCURVE",
"386 -18 CURVE",
"408 24 OFFCURVE",
"448 215 OFFCURVE",
"521 562 CURVE",
"475 562 LINE",
"399 199 LINE SMOOTH",
"377 95 OFFCURVE",
"312 84 OFFCURVE",
"241 84 CURVE SMOOTH",
"178 84 OFFCURVE",
"139 128 OFFCURVE",
"161 199 CURVE SMOOTH",
"204 337 OFFCURVE",
"232 466 OFFCURVE",
"232 522 CURVE SMOOTH",
"232 554 OFFCURVE",
"206 575 OFFCURVE",
"169 575 CURVE SMOOTH",
"138 575 OFFCURVE",
"106 564 OFFCURVE",
"89 547 CURVE",
"111 514 LINE",
"123 525 OFFCURVE",
"139 533 OFFCURVE",
"153 533 CURVE SMOOTH",
"173 533 OFFCURVE",
"186 521 OFFCURVE",
"186 503 CURVE SMOOTH",
"186 452 OFFCURVE",
"158 330 OFFCURVE",
"115 199 CURVE SMOOTH",
"91 123 OFFCURVE",
"145 42 OFFCURVE",
"241 42 CURVE SMOOTH",
"288 42 OFFCURVE",
"365 54 OFFCURVE",
"379 96 CURVE",
"375 70 OFFCURVE",
"359 13 OFFCURVE",
"341 -18 CURVE",
"135 -18 OFFCURVE",
"7 -58 OFFCURVE",
"7 -124 CURVE SMOOTH",
"7 -162 OFFCURVE",
"46 -187 OFFCURVE",
"105 -187 CURVE SMOOTH"
);
},
{
closed = 1;
nodes = (
"78 -145 OFFCURVE",
"53 -136 OFFCURVE",
"53 -124 CURVE SMOOTH",
"53 -89 OFFCURVE",
"159 -64 OFFCURVE",
"317 -59 CURVE",
"272 -111 OFFCURVE",
"191 -145 OFFCURVE",
"115 -145 CURVE SMOOTH"
);
}
);
width = 545;
},
{
anchors = (
{
name = bottom;
position = "{407, -48}";
},
{
name = top;
position = "{332, 562}";
}
);
layerId = "291433DC-531A-45CC-B814-57D397372F12";
paths = (
{
closed = 1;
nodes = (
"218 -187 OFFCURVE",
"327 -139 OFFCURVE",
"383 -61 CURVE",
"416 -59 OFFCURVE",
"454 -55 OFFCURVE",
"477 -45 CURVE",
"506 45 LINE",
"467 30 OFFCURVE",
"455 24 OFFCURVE",
"419 22 CURVE",
"441 80 OFFCURVE",
"466 208 OFFCURVE",
"541 562 CURVE",
"454 562 LINE",
"384 220 LINE SMOOTH",
"369 148 OFFCURVE",
"335 125 OFFCURVE",
"250 125 CURVE SMOOTH",
"196 125 OFFCURVE",
"169 163 OFFCURVE",
"185 217 CURVE",
"227 347 OFFCURVE",
"249 447 OFFCURVE",
"247 505 CURVE SMOOTH",
"248 546 OFFCURVE",
"216 575 OFFCURVE",
"169 575 CURVE SMOOTH",
"126 575 OFFCURVE",
"76 555 OFFCURVE",
"60 525 CURVE",
"97 452 LINE",
"110 475 OFFCURVE",
"128 491 OFFCURVE",
"144 491 CURVE SMOOTH",
"154 491 OFFCURVE",
"161 486 OFFCURVE",
"162 477 CURVE SMOOTH",
"161 427 OFFCURVE",
"136 333 OFFCURVE",
"101 224 CURVE SMOOTH",
"71 130 OFFCURVE",
"136 42 OFFCURVE",
"241 42 CURVE SMOOTH",
"281 42 OFFCURVE",
"321 48 OFFCURVE",
"352 65 CURVE",
"345 54 OFFCURVE",
"341 39 OFFCURVE",
"336 28 CURVE",
"128 24 OFFCURVE",
"-9 -27 OFFCURVE",
"-8 -107 CURVE SMOOTH",
"-10 -155 OFFCURVE",
"35 -187 OFFCURVE",
"105 -187 CURVE SMOOTH"
);
},
{
closed = 1;
nodes = (
"101 -104 OFFCURVE",
"78 -99 OFFCURVE",
"78 -98 CURVE SMOOTH",
"79 -89 OFFCURVE",
"170 -69 OFFCURVE",
"267 -62 CURVE",
"227 -86 OFFCURVE",
"176 -104 OFFCURVE",
"125 -104 CURVE SMOOTH"
);
}
);
width = 545;
}
);
unicode = 0079;
},
{
color = 4;
glyphname = z;
lastChange = "2023-07-14 09:45:09 +0000";
layers = (
{
anchors = (
{
name = bottom;
position = "{213, 0}";
},
{
name = center;
position = "{273, 281}";
},
{
name = top;
position = "{332, 562}";
}
);
layerId = "7C079D0C-96CD-4BD8-8800-0621C7635A78";
paths = (
{
closed = 1;
nodes = (
"298 3 OFFCURVE",
"255 50 OFFCURVE",
"182 50 CURVE SMOOTH",
"140 50 OFFCURVE",
"126 44 OFFCURVE",
"104 42 CURVE",
"506 534 LINE",
"512 562 LINE",
"153 562 LINE",
"144 520 LINE",
"441 520 LINE",
"37 28 LINE",
"32 0 LINE",
"125 0 OFFCURVE",
"145 8 OFFCURVE",
"172 8 CURVE SMOOTH",
"237 8 OFFCURVE",
"288 -39 OFFCURVE",
"365 -39 CURVE SMOOTH",
"487 -39 OFFCURVE",
"518 0 OFFCURVE",
"577 0 CURVE",
"586 42 LINE",
"504 42 OFFCURVE",
"469 3 OFFCURVE",
"374 3 CURVE SMOOTH"
);
}
);
width = 545;
},
{
anchors = (
{
name = bottom;
position = "{213, 0}";
},
{
name = center;
position = "{273, 281}";
},
{
name = top;
position = "{332, 562}";
}
);
layerId = "291433DC-531A-45CC-B814-57D397372F12";
paths = (
{
closed = 1;
nodes = (
"326 45 OFFCURVE",
"306 95 OFFCURVE",
"216 95 CURVE SMOOTH",
"204 95 OFFCURVE",
"188 94 OFFCURVE",
"157 92 CURVE",
"523 507 LINE",
"535 562 LINE",
"131 562 LINE",
"113 478 LINE",
"394 478 LINE",
"22 55 LINE",
"6 0 LINE",
"143 -2 OFFCURVE",
"167 11 OFFCURVE",
"197 11 CURVE SMOOTH",
"259 11 OFFCURVE",
"292 -39 OFFCURVE",
"383 -39 CURVE SMOOTH",
"504 -39 OFFCURVE",
"522 -1 OFFCURVE",
"595 -1 CURVE",
"621 83 LINE",
"494 83 OFFCURVE",
"488 45 OFFCURVE",
"401 45 CURVE SMOOTH"
);
}
);
width = 545;
}
);
unicode = 007A;
},
{
color = 4;
glyphname = a.ss01;
lastChange = "2023-07-14 09:45:09 +0000";
layers = (
{
anchors = (
{
name = bottom;
position = "{213, 0}";
},
{
name = ogonek;
position = "{429, 2}";
},
{
name = top;
position = "{333, 562}";
}
);
layerId = "7C079D0C-96CD-4BD8-8800-0621C7635A78";
paths = (
{
closed = 1;
nodes = (
"438 36 OFFCURVE",
"422 29 OFFCURVE",
"408 29 CURVE SMOOTH",
"373 29 OFFCURVE",
"373 52 OFFCURVE",
"378 86 CURVE",
"449 421 OFFCURVE",
"462 482 OFFCURVE",
"462 495 CURVE SMOOTH",
"462 558 OFFCURVE",
"406 575 OFFCURVE",
"330 575 CURVE SMOOTH",
"193 575 OFFCURVE",
"29 330 OFFCURVE",
"29 145 CURVE SMOOTH",
"29 50 OFFCURVE",
"90 -13 OFFCURVE",
"182 -13 CURVE SMOOTH",
"241 -13 OFFCURVE",
"303 34 OFFCURVE",
"337 103 CURVE",
"333 90 OFFCURVE",
"329 65 OFFCURVE",
"329 40 CURVE SMOOTH",
"329 8 OFFCURVE",
"355 -13 OFFCURVE",
"392 -13 CURVE SMOOTH",
"423 -13 OFFCURVE",
"455 -2 OFFCURVE",
"472 15 CURVE",
"450 48 LINE"
);
},
{
closed = 1;
nodes = (
"117 29 OFFCURVE",
"75 75 OFFCURVE",
"75 145 CURVE SMOOTH",
"75 305 OFFCURVE",
"220 533 OFFCURVE",
"330 533 CURVE SMOOTH",
"391 533 OFFCURVE",
"416 524 OFFCURVE",
"416 491 CURVE SMOOTH",
"416 471 OFFCURVE",
"396 377 OFFCURVE",
"365 234 CURVE",
"327 111 OFFCURVE",
"254 29 OFFCURVE",
"182 29 CURVE SMOOTH"
);
}
);
width = 545;
},
{
anchors = (
{
name = bottom;
position = "{213, 0}";
},
{
name = ogonek;
position = "{423, 10}";
},
{
name = top;
position = "{332, 562}";
}
);
layerId = "291433DC-531A-45CC-B814-57D397372F12";
paths = (
{
closed = 1;
nodes = (
"451 86 OFFCURVE",
"433 71 OFFCURVE",
"417 71 CURVE SMOOTH",
"395 71 OFFCURVE",
"396 81 OFFCURVE",
"402 109 CURVE",
"475 437 OFFCURVE",
"479 464 OFFCURVE",
"477 479 CURVE SMOOTH",
"477 545 OFFCURVE",
"431 575 OFFCURVE",
"330 575 CURVE SMOOTH",
"180 575 OFFCURVE",
"14 365 OFFCURVE",
"15 161 CURVE SMOOTH",
"12 57 OFFCURVE",
"79 -13 OFFCURVE",
"182 -13 CURVE SMOOTH",
"225 -13 OFFCURVE",
"272 8 OFFCURVE",
"308 45 CURVE",
"306 47 OFFCURVE",
"309 45 OFFCURVE",
"311 49 CURVE",
"313 15 OFFCURVE",
"345 -13 OFFCURVE",
"392 -13 CURVE SMOOTH",
"435 -13 OFFCURVE",
"485 6 OFFCURVE",
"501 36 CURVE",
"464 110 LINE"
);
},
{
closed = 1;
nodes = (
"137 71 OFFCURVE",
"100 110 OFFCURVE",
"98 170 CURVE SMOOTH",
"100 318 OFFCURVE",
"230 491 OFFCURVE",
"321 491 CURVE SMOOTH",
"375 491 OFFCURVE",
"390 485 OFFCURVE",
"392 466 CURVE SMOOTH",
"391 447 OFFCURVE",
"370 355 OFFCURVE",
"346 235 CURVE",
"315 145 OFFCURVE",
"249 71 OFFCURVE",
"191 71 CURVE SMOOTH"
);
}
);
width = 545;
}
);
},
{
color = 4;
glyphname = Q_j.liga;
lastChange = "2023-07-14 09:45:09 +0000";
layers = (
{
components = (
{
name = j;
}
);
layerId = "7C079D0C-96CD-4BD8-8800-0621C7635A78";
paths = (
{
closed = 1;
nodes = (
"-173 -13 OFFCURVE",
"-106 67 OFFCURVE",
"-52 325 CURVE SMOOTH",
"-36 398 LINE SMOOTH",
"19 656 OFFCURVE",
"-16 740 OFFCURVE",
"-179 740 CURVE SMOOTH",
"-338 740 OFFCURVE",
"-404 660 OFFCURVE",
"-459 402 CURVE SMOOTH",
"-475 329 LINE SMOOTH",
"-529 71 OFFCURVE",
"-495 -13 OFFCURVE",
"-331 -13 CURVE SMOOTH"
);
},
{
closed = 1;
nodes = (
"-54 -166 OFFCURVE",
"-14 -78 OFFCURVE",
"156 -66 CURVE",
"165 -24 LINE",
"-16 -35 OFFCURVE",
"-68 -125 OFFCURVE",
"-155 -125 CURVE SMOOTH",
"-267 -125 OFFCURVE",
"-263 -11 OFFCURVE",
"-394 38 CURVE SMOOTH",
"-449 58 OFFCURVE",
"-495 43 OFFCURVE",
"-514 -7 CURVE SMOOTH",
"-534 -60 OFFCURVE",
"-508 -95 OFFCURVE",
"-450 -95 CURVE SMOOTH",
"-388 -95 OFFCURVE",
"-367 -42 OFFCURVE",
"-268 -7 CURVE",
"-277 34 LINE",
"-393 -3 OFFCURVE",
"-412 -54 OFFCURVE",
"-450 -54 CURVE SMOOTH",
"-474 -54 OFFCURVE",
"-483 -40 OFFCURVE",
"-474 -20 CURVE SMOOTH",
"-465 0 OFFCURVE",
"-441 7 OFFCURVE",
"-415 -2 CURVE SMOOTH",
"-288 -45 OFFCURVE",
"-291 -166 OFFCURVE",
"-155 -166 CURVE SMOOTH"
);
},
{
closed = 1;
nodes = (
"-454 29 OFFCURVE",
"-477 99 OFFCURVE",
"-430 325 CURVE SMOOTH",
"-415 398 LINE SMOOTH",
"-367 625 OFFCURVE",
"-309 698 OFFCURVE",
"-180 698 CURVE SMOOTH",
"-55 698 OFFCURVE",
"-33 628 OFFCURVE",
"-81 402 CURVE SMOOTH",
"-96 329 LINE SMOOTH",
"-145 103 OFFCURVE",
"-202 29 OFFCURVE",
"-330 29 CURVE SMOOTH"
);
}
);
width = 545;
},
{
components = (
{
name = j;
}
);
layerId = "291433DC-531A-45CC-B814-57D397372F12";
paths = (
{
closed = 1;
nodes = (
"-158 -13 OFFCURVE",
"-80 77 OFFCURVE",
"-31 325 CURVE SMOOTH",
"-16 398 LINE SMOOTH",
"34 646 OFFCURVE",
"-1 740 OFFCURVE",
"-179 740 CURVE SMOOTH",
"-353 740 OFFCURVE",
"-431 651 OFFCURVE",
"-481 402 CURVE SMOOTH",
"-495 329 LINE SMOOTH",
"-545 80 OFFCURVE",
"-509 -13 OFFCURVE",
"-331 -13 CURVE SMOOTH"
);
},
{
closed = 1;
nodes = (
"-9 -166 OFFCURVE",
"-9 -65 OFFCURVE",
"167 -65 CURVE",
"189 20 LINE",
"-29 14 OFFCURVE",
"-21 -83 OFFCURVE",
"-145 -83 CURVE SMOOTH",
"-298 -83 OFFCURVE",
"-353 92 OFFCURVE",
"-426 99 CURVE SMOOTH",
"-478 105 OFFCURVE",
"-536 65 OFFCURVE",
"-548 8 CURVE SMOOTH",
"-561 -57 OFFCURVE",
"-526 -105 OFFCURVE",
"-459 -105 CURVE SMOOTH",
"-359 -105 OFFCURVE",
"-305 -5 OFFCURVE",
"-241 -1 CURVE",
"-250 82 LINE",
"-411 38 OFFCURVE",
"-410 -21 OFFCURVE",
"-450 -21 CURVE SMOOTH",
"-464 -21 OFFCURVE",
"-469 -9 OFFCURVE",
"-464 1 CURVE SMOOTH",
"-459 10 OFFCURVE",
"-445 10 OFFCURVE",
"-429 1 CURVE SMOOTH",
"-392 -20 OFFCURVE",
"-302 -166 OFFCURVE",
"-155 -166 CURVE SMOOTH"
);
},
{
closed = 1;
nodes = (
"-429 71 OFFCURVE",
"-447 131 OFFCURVE",
"-409 325 CURVE SMOOTH",
"-395 398 LINE SMOOTH",
"-355 593 OFFCURVE",
"-302 656 OFFCURVE",
"-189 656 CURVE SMOOTH",
"-81 656 OFFCURVE",
"-64 596 OFFCURVE",
"-103 402 CURVE SMOOTH",
"-117 329 LINE SMOOTH",
"-156 134 OFFCURVE",
"-209 71 OFFCURVE",
"-321 71 CURVE SMOOTH"
);
}
);
width = 545;
}
);
rightMetricsKey = j;
},
{
color = 4;
glyphname = a_e.liga;
lastChange = "2023-07-14 09:45:09 +0000";
layers = (
{
anchors = (
{
name = bottom;
position = "{213, 0}";
},
{
name = ogonek;
position = "{233, 9}";
},
{
name = top;
position = "{333, 562}";
}
);
layerId = "7C079D0C-96CD-4BD8-8800-0621C7635A78";
paths = (
{
closed = 1;
nodes = (
"-305 -13 OFFCURVE",
"-243 34 OFFCURVE",
"-208 103 CURVE",
"-213 90 OFFCURVE",
"-216 65 OFFCURVE",
"-216 40 CURVE SMOOTH",
"-216 8 OFFCURVE",
"-191 -13 OFFCURVE",
"-163 -13 CURVE SMOOTH",
"-86 -13 OFFCURVE",
"-51 63 OFFCURVE",
"17 130 CURVE SMOOTH",
"102 214 OFFCURVE",
"485 214 OFFCURVE",
"485 458 CURVE SMOOTH",
"485 540 OFFCURVE",
"436 575 OFFCURVE",
"365 575 CURVE SMOOTH",
"200 575 OFFCURVE",
"82 395 OFFCURVE",
"82 148 CURVE SMOOTH",
"82 53 OFFCURVE",
"147 -13 OFFCURVE",
"231 -13 CURVE SMOOTH",
"303 -13 OFFCURVE",
"389 22 OFFCURVE",
"447 75 CURVE",
"424 112 LINE",
"372 64 OFFCURVE",
"297 32 OFFCURVE",
"236 32 CURVE SMOOTH",
"176 32 OFFCURVE",
"127 78 OFFCURVE",
"127 145 CURVE SMOOTH",
"127 368 OFFCURVE",
"227 533 OFFCURVE",
"364 533 CURVE SMOOTH",
"403 533 OFFCURVE",
"439 509 OFFCURVE",
"439 458 CURVE SMOOTH",
"439 251 OFFCURVE",
"79 252 OFFCURVE",
"-9 160 CURVE SMOOTH",
"-75 91 OFFCURVE",
"-115 29 OFFCURVE",
"-146 29 CURVE SMOOTH",
"-173 29 OFFCURVE",
"-173 52 OFFCURVE",
"-167 86 CURVE",
"-96 421 OFFCURVE",
"-84 482 OFFCURVE",
"-84 495 CURVE SMOOTH",
"-84 558 OFFCURVE",
"-139 575 OFFCURVE",
"-215 575 CURVE SMOOTH",
"-353 575 OFFCURVE",
"-516 330 OFFCURVE",
"-516 145 CURVE SMOOTH",
"-516 50 OFFCURVE",
"-455 -13 OFFCURVE",
"-364 -13 CURVE SMOOTH"
);
},
{
closed = 1;
nodes = (
"-428 29 OFFCURVE",
"-471 75 OFFCURVE",
"-471 145 CURVE SMOOTH",
"-471 305 OFFCURVE",
"-325 533 OFFCURVE",
"-215 533 CURVE SMOOTH",
"-155 533 OFFCURVE",
"-129 524 OFFCURVE",
"-129 491 CURVE SMOOTH",
"-129 471 OFFCURVE",
"-149 377 OFFCURVE",
"-180 234 CURVE",
"-218 111 OFFCURVE",
"-292 29 OFFCURVE",
"-364 29 CURVE SMOOTH"
);
}
);
width = 545;
},
{
anchors = (
{
name = bottom;
position = "{213, 0}";
},
{
name = ogonek;
position = "{224, 9}";
},
{
name = top;
position = "{333, 562}";
}
);
layerId = "291433DC-531A-45CC-B814-57D397372F12";
paths = (
{
closed = 1;
nodes = (
"-320 -13 OFFCURVE",
"-274 8 OFFCURVE",
"-237 45 CURVE",
"-239 47 OFFCURVE",
"-236 45 OFFCURVE",
"-235 49 CURVE",
"-233 15 OFFCURVE",
"-201 -13 OFFCURVE",
"-154 -13 CURVE SMOOTH",
"-56 -13 OFFCURVE",
"-38 56 OFFCURVE",
"21 108 CURVE SMOOTH",
"156 226 OFFCURVE",
"500 197 OFFCURVE",
"500 442 CURVE SMOOTH",
"500 527 OFFCURVE",
"454 575 OFFCURVE",
"365 575 CURVE SMOOTH",
"184 575 OFFCURVE",
"66 414 OFFCURVE",
"66 162 CURVE SMOOTH",
"66 60 OFFCURVE",
"135 -13 OFFCURVE",
"231 -13 CURVE SMOOTH",
"313 -13 OFFCURVE",
"415 30 OFFCURVE",
"479 95 CURVE",
"438 169 LINE",
"391 114 OFFCURVE",
"310 74 OFFCURVE",
"245 74 CURVE SMOOTH",
"194 74 OFFCURVE",
"151 112 OFFCURVE",
"151 167 CURVE SMOOTH",
"151 368 OFFCURVE",
"236 491 OFFCURVE",
"355 491 CURVE SMOOTH",
"389 491 OFFCURVE",
"415 468 OFFCURVE",
"415 432 CURVE SMOOTH",
"415 251 OFFCURVE",
"121 305 OFFCURVE",
"-15 180 CURVE SMOOTH",
"-67 132 OFFCURVE",
"-104 71 OFFCURVE",
"-128 71 CURVE SMOOTH",
"-151 71 OFFCURVE",
"-149 81 OFFCURVE",
"-144 109 CURVE SMOOTH",
"-71 437 OFFCURVE",
"-66 464 OFFCURVE",
"-68 479 CURVE",
"-68 545 OFFCURVE",
"-115 575 OFFCURVE",
"-215 575 CURVE SMOOTH",
"-365 575 OFFCURVE",
"-532 365 OFFCURVE",
"-531 161 CURVE SMOOTH",
"-534 57 OFFCURVE",
"-466 -13 OFFCURVE",
"-364 -13 CURVE SMOOTH"
);
},
{
closed = 1;
nodes = (
"-408 71 OFFCURVE",
"-445 110 OFFCURVE",
"-447 170 CURVE SMOOTH",
"-445 318 OFFCURVE",
"-315 491 OFFCURVE",
"-225 491 CURVE SMOOTH",
"-171 491 OFFCURVE",
"-155 485 OFFCURVE",
"-154 466 CURVE",
"-155 447 OFFCURVE",
"-175 355 OFFCURVE",
"-199 235 CURVE",
"-231 145 OFFCURVE",
"-296 71 OFFCURVE",
"-355 71 CURVE SMOOTH"
);
}
);
width = 545;
}
);
rightMetricsKey = e;
},
{
color = 4;
glyphname = a_l.liga;
lastChange = "2023-07-14 09:45:09 +0000";
layers = (
{
anchors = (
{
name = bottom;
position = "{204, 0}";
},
{
name = center;
position = "{301, 455}";
},
{
name = ogonek;
position = "{-152, 15}";
},
{
name = top;
position = "{373, 727}";
},
{
name = topright;
position = "{615, 727}";
}
);
layerId = "7C079D0C-96CD-4BD8-8800-0621C7635A78";
paths = (
{
closed = 1;
nodes = (
"-74 30 OFFCURVE",
"-105 29 OFFCURVE",
"-119 29 CURVE SMOOTH",
"-155 29 OFFCURVE",
"-173 52 OFFCURVE",
"-167 86 CURVE",
"-96 421 OFFCURVE",
"-84 482 OFFCURVE",
"-84 495 CURVE SMOOTH",
"-84 558 OFFCURVE",
"-139 575 OFFCURVE",
"-215 575 CURVE SMOOTH",
"-353 575 OFFCURVE",
"-516 330 OFFCURVE",
"-516 145 CURVE SMOOTH",
"-516 50 OFFCURVE",
"-455 -13 OFFCURVE",
"-364 -13 CURVE SMOOTH",
"-305 -13 OFFCURVE",
"-243 34 OFFCURVE",
"-208 103 CURVE",
"-213 90 OFFCURVE",
"-216 65 OFFCURVE",
"-216 40 CURVE SMOOTH",
"-216 8 OFFCURVE",
"-173 -13 OFFCURVE",
"-135 -13 CURVE SMOOTH",
"-105 -13 OFFCURVE",
"-49 -7 OFFCURVE",
"-8 11 CURVE",
"-26 49 LINE"
);
},
{
closed = 1;
nodes = (
"-428 29 OFFCURVE",
"-471 75 OFFCURVE",
"-471 145 CURVE SMOOTH",
"-471 305 OFFCURVE",
"-325 533 OFFCURVE",
"-215 533 CURVE SMOOTH",
"-155 533 OFFCURVE",
"-129 524 OFFCURVE",
"-129 491 CURVE SMOOTH",
"-129 471 OFFCURVE",
"-149 377 OFFCURVE",
"-180 234 CURVE",
"-218 111 OFFCURVE",
"-292 29 OFFCURVE",
"-364 29 CURVE SMOOTH"
);
},
{
closed = 1;
nodes = (
"352 -13 OFFCURVE",
"411 22 OFFCURVE",
"450 73 CURVE",
"414 98 LINE",
"383 56 OFFCURVE",
"338 29 OFFCURVE",
"303 29 CURVE SMOOTH",
"259 29 OFFCURVE",
"230 79 OFFCURVE",
"230 154 CURVE SMOOTH",
"230 480 OFFCURVE",
"281 697 OFFCURVE",
"372 697 CURVE",
"404 697 OFFCURVE",
"422 671 OFFCURVE",
"422 632 CURVE SMOOTH",
"422 379 OFFCURVE",
"204 153 OFFCURVE",
"-26 49 CURVE",
"-8 11 LINE",
"238 120 OFFCURVE",
"467 362 OFFCURVE",
"467 632 CURVE SMOOTH",
"467 696 OFFCURVE",
"434 740 OFFCURVE",
"379 740 CURVE SMOOTH",
"230 740 OFFCURVE",
"185 495 OFFCURVE",
"185 126 CURVE SMOOTH",
"185 43 OFFCURVE",
"232 -13 OFFCURVE",
"303 -13 CURVE SMOOTH"
);
}
);
width = 545;
},
{
anchors = (
{
name = bottom;
position = "{204, 0}";
},
{
name = center;
position = "{301, 455}";
},
{
name = ogonek;
position = "{-131, 25}";
},
{
name = top;
position = "{391, 727}";
},
{
name = topright;
position = "{615, 727}";
}
);
layerId = "291433DC-531A-45CC-B814-57D397372F12";
paths = (
{
closed = 1;
nodes = (
"-76 73 OFFCURVE",
"-113 71 OFFCURVE",
"-128 71 CURVE SMOOTH",
"-151 71 OFFCURVE",
"-149 81 OFFCURVE",
"-144 109 CURVE",
"-71 437 OFFCURVE",
"-66 464 OFFCURVE",
"-68 479 CURVE SMOOTH",
"-68 545 OFFCURVE",
"-115 575 OFFCURVE",
"-215 575 CURVE SMOOTH",
"-365 575 OFFCURVE",
"-532 365 OFFCURVE",
"-531 161 CURVE SMOOTH",
"-534 57 OFFCURVE",
"-466 -13 OFFCURVE",
"-364 -13 CURVE SMOOTH",
"-320 -13 OFFCURVE",
"-274 8 OFFCURVE",
"-237 45 CURVE",
"-239 47 OFFCURVE",
"-236 45 OFFCURVE",
"-235 49 CURVE",
"-233 15 OFFCURVE",
"-201 -13 OFFCURVE",
"-154 -13 CURVE SMOOTH",
"-111 -13 OFFCURVE",
"-55 -5 OFFCURVE",
"0 16 CURVE",
"-28 92 LINE"
);
},
{
closed = 1;
nodes = (
"-408 71 OFFCURVE",
"-445 110 OFFCURVE",
"-447 170 CURVE SMOOTH",
"-445 318 OFFCURVE",
"-315 491 OFFCURVE",
"-225 491 CURVE SMOOTH",
"-171 491 OFFCURVE",
"-155 485 OFFCURVE",
"-154 466 CURVE SMOOTH",
"-155 447 OFFCURVE",
"-175 355 OFFCURVE",
"-199 235 CURVE",
"-231 145 OFFCURVE",
"-296 71 OFFCURVE",
"-355 71 CURVE SMOOTH"
);
},
{
closed = 1;
nodes = (
"358 -13 OFFCURVE",
"433 32 OFFCURVE",
"477 101 CURVE",
"409 151 LINE",
"385 106 OFFCURVE",
"339 71 OFFCURVE",
"305 71 CURVE SMOOTH",
"275 71 OFFCURVE",
"252 116 OFFCURVE",
"249 181 CURVE SMOOTH",
"239 407 OFFCURVE",
"280 655 OFFCURVE",
"365 655 CURVE SMOOTH",
"391 655 OFFCURVE",
"401 641 OFFCURVE",
"401 606 CURVE SMOOTH",
"401 373 OFFCURVE",
"220 194 OFFCURVE",
"-28 92 CURVE",
"0 16 LINE",
"290 134 OFFCURVE",
"490 325 OFFCURVE",
"490 612 CURVE SMOOTH",
"490 691 OFFCURVE",
"445 740 OFFCURVE",
"373 740 CURVE SMOOTH",
"211 740 OFFCURVE",
"159 523 OFFCURVE",
"163 143 CURVE SMOOTH",
"164 50 OFFCURVE",
"215 -13 OFFCURVE",
"296 -13 CURVE SMOOTH"
);
}
);
width = 545;
}
);
rightMetricsKey = l;
},
{
color = 4;
glyphname = d_e.liga;
lastChange = "2023-07-14 09:45:09 +0000";
layers = (
{
anchors = (
{
name = bottom;
position = "{213, 0}";
},
{
name = center;
position = "{-273, 281}";
},
{
name = ogonek;
position = "{233, 9}";
},
{
name = top;
position = "{333, 562}";
},
{
name = topright;
position = "{42, 562}";
}
);
layerId = "7C079D0C-96CD-4BD8-8800-0621C7635A78";
paths = (
{
closed = 1;
nodes = (
"-288 -13 OFFCURVE",
"-223 5 OFFCURVE",
"-190 49 CURVE",
"-190 6 OFFCURVE",
"-167 -13 OFFCURVE",
"-127 -13 CURVE SMOOTH",
"-96 -13 OFFCURVE",
"-68 0 OFFCURVE",
"-5 79 CURVE SMOOTH",
"93 200 OFFCURVE",
"485 214 OFFCURVE",
"485 458 CURVE SMOOTH",
"485 540 OFFCURVE",
"436 575 OFFCURVE",
"365 575 CURVE SMOOTH",
"200 575 OFFCURVE",
"82 395 OFFCURVE",
"82 148 CURVE SMOOTH",
"82 53 OFFCURVE",
"147 -13 OFFCURVE",
"231 -13 CURVE SMOOTH",
"303 -13 OFFCURVE",
"389 22 OFFCURVE",
"447 75 CURVE",
"424 112 LINE",
"372 64 OFFCURVE",
"297 32 OFFCURVE",
"236 32 CURVE SMOOTH",
"176 32 OFFCURVE",
"127 78 OFFCURVE",
"127 145 CURVE SMOOTH",
"127 368 OFFCURVE",
"227 533 OFFCURVE",
"364 533 CURVE SMOOTH",
"403 533 OFFCURVE",
"439 509 OFFCURVE",
"439 458 CURVE SMOOTH",
"439 251 OFFCURVE",
"74 244 OFFCURVE",
"-26 115 CURVE SMOOTH",
"-79 46 OFFCURVE",
"-97 29 OFFCURVE",
"-111 29 CURVE SMOOTH",
"-146 29 OFFCURVE",
"-146 52 OFFCURVE",
"-141 86 CURVE",
"-5 727 LINE",
"-50 727 LINE",
"-101 491 LINE",
"-111 541 OFFCURVE",
"-158 575 OFFCURVE",
"-219 575 CURVE SMOOTH",
"-353 575 OFFCURVE",
"-454 458 OFFCURVE",
"-490 284 CURVE SMOOTH",
"-537 58 OFFCURVE",
"-505 -13 OFFCURVE",
"-372 -13 CURVE SMOOTH"
);
},
{
closed = 1;
nodes = (
"-465 29 OFFCURVE",
"-486 88 OFFCURVE",
"-446 276 CURVE SMOOTH",
"-414 430 OFFCURVE",
"-330 533 OFFCURVE",
"-220 533 CURVE SMOOTH",
"-148 533 OFFCURVE",
"-109 472 OFFCURVE",
"-123 380 CURVE",
"-182 111 LINE",
"-206 62 OFFCURVE",
"-282 29 OFFCURVE",
"-371 29 CURVE SMOOTH"
);
}
);
width = 545;
},
{
anchors = (
{
name = bottom;
position = "{213, 0}";
},
{
name = center;
position = "{-273, 281}";
},
{
name = ogonek;
position = "{224, 9}";
},
{
name = top;
position = "{333, 562}";
},
{
name = topright;
position = "{42, 562}";
}
);
layerId = "291433DC-531A-45CC-B814-57D397372F12";
paths = (
{
closed = 1;
nodes = (
"-273 -13 OFFCURVE",
"-233 9 OFFCURVE",
"-206 43 CURVE",
"-205 3 OFFCURVE",
"-176 -13 OFFCURVE",
"-127 -13 CURVE SMOOTH",
"-85 -13 OFFCURVE",
"-46 15 OFFCURVE",
"7 81 CURVE SMOOTH",
"98 194 OFFCURVE",
"500 197 OFFCURVE",
"500 442 CURVE SMOOTH",
"500 527 OFFCURVE",
"454 575 OFFCURVE",
"365 575 CURVE SMOOTH",
"184 575 OFFCURVE",
"66 414 OFFCURVE",
"66 162 CURVE SMOOTH",
"66 60 OFFCURVE",
"135 -13 OFFCURVE",
"231 -13 CURVE SMOOTH",
"313 -13 OFFCURVE",
"415 30 OFFCURVE",
"479 95 CURVE",
"438 169 LINE",
"391 114 OFFCURVE",
"310 74 OFFCURVE",
"245 74 CURVE SMOOTH",
"194 74 OFFCURVE",
"151 112 OFFCURVE",
"151 167 CURVE SMOOTH",
"151 368 OFFCURVE",
"236 491 OFFCURVE",
"355 491 CURVE SMOOTH",
"389 491 OFFCURVE",
"415 468 OFFCURVE",
"415 432 CURVE SMOOTH",
"415 251 OFFCURVE",
"81 289 OFFCURVE",
"-29 153 CURVE SMOOTH",
"-78 93 OFFCURVE",
"-86 71 OFFCURVE",
"-102 71 CURVE SMOOTH",
"-123 71 OFFCURVE",
"-120 85 OFFCURVE",
"-115 108 CURVE SMOOTH",
"17 727 LINE",
"-73 727 LINE",
"-116 536 LINE",
"-140 559 OFFCURVE",
"-175 575 OFFCURVE",
"-219 575 CURVE SMOOTH",
"-363 575 OFFCURVE",
"-475 456 OFFCURVE",
"-509 284 CURVE SMOOTH",
"-551 70 OFFCURVE",
"-522 -13 OFFCURVE",
"-372 -13 CURVE SMOOTH"
);
},
{
closed = 1;
nodes = (
"-442 71 OFFCURVE",
"-460 125 OFFCURVE",
"-426 276 CURVE SMOOTH",
"-398 405 OFFCURVE",
"-321 491 OFFCURVE",
"-229 491 CURVE SMOOTH",
"-170 491 OFFCURVE",
"-136 442 OFFCURVE",
"-146 370 CURVE",
"-198 135 LINE",
"-219 99 OFFCURVE",
"-283 71 OFFCURVE",
"-362 71 CURVE SMOOTH"
);
}
);
width = 545;
}
);
rightMetricsKey = e;
},
{
color = 4;
glyphname = d_l.liga;
lastChange = "2023-07-14 09:45:09 +0000";
layers = (
{
anchors = (
{
name = bottom;
position = "{204, 0}";
},
{
name = center;
position = "{301, 455}";
},
{
name = top;
position = "{373, 727}";
},
{
name = topright;
position = "{615, 727}";
}
);
layerId = "7C079D0C-96CD-4BD8-8800-0621C7635A78";
paths = (
{
closed = 1;
nodes = (
"-288 -13 OFFCURVE",
"-223 5 OFFCURVE",
"-190 49 CURVE",
"-190 6 OFFCURVE",
"-167 -13 OFFCURVE",
"-127 -13 CURVE SMOOTH",
"-96 -13 OFFCURVE",
"-41 -7 OFFCURVE",
"0 11 CURVE",
"-18 49 LINE",
"-65 30 OFFCURVE",
"-97 29 OFFCURVE",
"-111 29 CURVE SMOOTH",
"-146 29 OFFCURVE",
"-146 52 OFFCURVE",
"-141 86 CURVE SMOOTH",
"-5 727 LINE",
"-50 727 LINE",
"-101 491 LINE",
"-111 541 OFFCURVE",
"-158 575 OFFCURVE",
"-219 575 CURVE SMOOTH",
"-353 575 OFFCURVE",
"-454 458 OFFCURVE",
"-490 284 CURVE SMOOTH",
"-537 58 OFFCURVE",
"-505 -13 OFFCURVE",
"-372 -13 CURVE SMOOTH"
);
},
{
closed = 1;
nodes = (
"-465 29 OFFCURVE",
"-486 88 OFFCURVE",
"-446 276 CURVE SMOOTH",
"-414 430 OFFCURVE",
"-330 533 OFFCURVE",
"-220 533 CURVE SMOOTH",
"-148 533 OFFCURVE",
"-109 472 OFFCURVE",
"-123 380 CURVE",
"-182 111 LINE",
"-206 62 OFFCURVE",
"-282 29 OFFCURVE",
"-371 29 CURVE SMOOTH"
);
},
{
closed = 1;
nodes = (
"360 -13 OFFCURVE",
"419 22 OFFCURVE",
"458 73 CURVE",
"422 98 LINE",
"391 56 OFFCURVE",
"346 29 OFFCURVE",
"311 29 CURVE SMOOTH",
"267 29 OFFCURVE",
"238 79 OFFCURVE",
"238 154 CURVE SMOOTH",
"238 480 OFFCURVE",
"289 697 OFFCURVE",
"380 697 CURVE",
"412 697 OFFCURVE",
"430 671 OFFCURVE",
"430 632 CURVE SMOOTH",
"430 379 OFFCURVE",
"212 153 OFFCURVE",
"-18 49 CURVE",
"0 11 LINE",
"246 120 OFFCURVE",
"475 362 OFFCURVE",
"475 632 CURVE SMOOTH",
"475 696 OFFCURVE",
"442 740 OFFCURVE",
"387 740 CURVE SMOOTH",
"238 740 OFFCURVE",
"193 495 OFFCURVE",
"193 126 CURVE SMOOTH",
"193 43 OFFCURVE",
"240 -13 OFFCURVE",
"311 -13 CURVE SMOOTH"
);
}
);
width = 545;
},
{
anchors = (
{
name = bottom;
position = "{204, 0}";
},
{
name = center;
position = "{301, 455}";
},
{
name = top;
position = "{391, 727}";
},
{
name = topright;
position = "{615, 727}";
}
);
layerId = "291433DC-531A-45CC-B814-57D397372F12";
paths = (
{
closed = 1;
nodes = (
"-273 -13 OFFCURVE",
"-233 9 OFFCURVE",
"-206 43 CURVE",
"-205 3 OFFCURVE",
"-176 -13 OFFCURVE",
"-127 -13 CURVE SMOOTH",
"-85 -13 OFFCURVE",
"-56 -6 OFFCURVE",
"-1 14 CURVE",
"-27 90 LINE",
"-76 72 OFFCURVE",
"-85 70 OFFCURVE",
"-101 71 CURVE SMOOTH",
"-124 71 OFFCURVE",
"-121 81 OFFCURVE",
"-115 109 CURVE SMOOTH",
"17 727 LINE",
"-73 727 LINE",
"-116 536 LINE",
"-140 559 OFFCURVE",
"-175 575 OFFCURVE",
"-219 575 CURVE SMOOTH",
"-363 575 OFFCURVE",
"-475 456 OFFCURVE",
"-509 284 CURVE SMOOTH",
"-551 70 OFFCURVE",
"-522 -13 OFFCURVE",
"-372 -13 CURVE SMOOTH"
);
},
{
closed = 1;
nodes = (
"-442 71 OFFCURVE",
"-460 125 OFFCURVE",
"-426 276 CURVE SMOOTH",
"-398 405 OFFCURVE",
"-321 491 OFFCURVE",
"-229 491 CURVE SMOOTH",
"-170 491 OFFCURVE",
"-136 442 OFFCURVE",
"-146 370 CURVE",
"-198 135 LINE",
"-219 99 OFFCURVE",
"-283 71 OFFCURVE",
"-362 71 CURVE SMOOTH"
);
},
{
closed = 1;
nodes = (
"358 -13 OFFCURVE",
"433 32 OFFCURVE",
"477 101 CURVE",
"409 151 LINE",
"385 106 OFFCURVE",
"339 71 OFFCURVE",
"305 71 CURVE SMOOTH",
"275 71 OFFCURVE",
"252 116 OFFCURVE",
"249 181 CURVE SMOOTH",
"239 407 OFFCURVE",
"280 655 OFFCURVE",
"365 655 CURVE SMOOTH",
"391 655 OFFCURVE",
"401 641 OFFCURVE",
"401 606 CURVE SMOOTH",
"401 373 OFFCURVE",
"221 192 OFFCURVE",
"-27 90 CURVE",
"-1 14 LINE",
"289 131 OFFCURVE",
"490 325 OFFCURVE",
"490 612 CURVE SMOOTH",
"490 691 OFFCURVE",
"445 740 OFFCURVE",
"373 740 CURVE SMOOTH",
"211 740 OFFCURVE",
"159 523 OFFCURVE",
"163 143 CURVE SMOOTH",
"164 50 OFFCURVE",
"215 -13 OFFCURVE",
"296 -13 CURVE SMOOTH"
);
}
);
width = 545;
}
);
},
{
color = 4;
glyphname = e_e.liga;
lastChange = "2023-07-14 09:45:09 +0000";
layers = (
{
anchors = (
{
name = bottom;
position = "{213, 0}";
},
{
name = ogonek;
position = "{233, 9}";
},
{
name = top;
position = "{333, 562}";
}
);
layerId = "7C079D0C-96CD-4BD8-8800-0621C7635A78";
paths = (
{
closed = 1;
nodes = (
"-243 -13 OFFCURVE",
"-156 22 OFFCURVE",
"-30 109 CURVE SMOOTH",
"95 196 OFFCURVE",
"485 214 OFFCURVE",
"485 458 CURVE SMOOTH",
"485 540 OFFCURVE",
"436 575 OFFCURVE",
"365 575 CURVE SMOOTH",
"200 575 OFFCURVE",
"82 395 OFFCURVE",
"82 148 CURVE SMOOTH",
"82 53 OFFCURVE",
"147 -13 OFFCURVE",
"231 -13 CURVE SMOOTH",
"303 -13 OFFCURVE",
"389 22 OFFCURVE",
"447 75 CURVE",
"424 112 LINE",
"372 64 OFFCURVE",
"297 32 OFFCURVE",
"236 32 CURVE SMOOTH",
"176 32 OFFCURVE",
"127 78 OFFCURVE",
"127 145 CURVE SMOOTH",
"127 368 OFFCURVE",
"227 533 OFFCURVE",
"364 533 CURVE SMOOTH",
"403 533 OFFCURVE",
"439 509 OFFCURVE",
"439 458 CURVE SMOOTH",
"439 251 OFFCURVE",
"83 239 OFFCURVE",
"-53 146 CURVE SMOOTH",
"-174 64 OFFCURVE",
"-248 32 OFFCURVE",
"-309 32 CURVE SMOOTH",
"-369 32 OFFCURVE",
"-418 78 OFFCURVE",
"-418 145 CURVE SMOOTH",
"-418 368 OFFCURVE",
"-318 533 OFFCURVE",
"-182 533 CURVE SMOOTH",
"-143 533 OFFCURVE",
"-106 509 OFFCURVE",
"-106 458 CURVE SMOOTH",
"-106 251 OFFCURVE",
"-467 245 OFFCURVE",
"-530 181 CURVE",
"-508 144 LINE",
"-454 201 OFFCURVE",
"-61 214 OFFCURVE",
"-61 458 CURVE SMOOTH",
"-61 540 OFFCURVE",
"-109 575 OFFCURVE",
"-181 575 CURVE SMOOTH",
"-345 575 OFFCURVE",
"-464 395 OFFCURVE",
"-464 148 CURVE SMOOTH",
"-464 53 OFFCURVE",
"-398 -13 OFFCURVE",
"-315 -13 CURVE SMOOTH"
);
}
);
width = 545;
},
{
anchors = (
{
name = bottom;
position = "{213, 0}";
},
{
name = ogonek;
position = "{224, 9}";
},
{
name = top;
position = "{333, 562}";
}
);
layerId = "291433DC-531A-45CC-B814-57D397372F12";
paths = (
{
closed = 1;
nodes = (
"-233 -13 OFFCURVE",
"-130 30 OFFCURVE",
"-17 110 CURVE SMOOTH",
"99 193 OFFCURVE",
"500 197 OFFCURVE",
"500 442 CURVE SMOOTH",
"500 527 OFFCURVE",
"454 575 OFFCURVE",
"365 575 CURVE SMOOTH",
"184 575 OFFCURVE",
"66 414 OFFCURVE",
"66 162 CURVE SMOOTH",
"66 60 OFFCURVE",
"135 -13 OFFCURVE",
"231 -13 CURVE SMOOTH",
"313 -13 OFFCURVE",
"415 30 OFFCURVE",
"479 95 CURVE",
"438 169 LINE",
"391 114 OFFCURVE",
"310 74 OFFCURVE",
"245 74 CURVE SMOOTH",
"194 74 OFFCURVE",
"151 112 OFFCURVE",
"151 167 CURVE SMOOTH",
"151 368 OFFCURVE",
"236 491 OFFCURVE",
"355 491 CURVE SMOOTH",
"389 491 OFFCURVE",
"415 468 OFFCURVE",
"415 432 CURVE SMOOTH",
"415 251 OFFCURVE",
"60 263 OFFCURVE",
"-55 183 CURVE SMOOTH",
"-155 114 OFFCURVE",
"-235 74 OFFCURVE",
"-300 74 CURVE SMOOTH",
"-352 74 OFFCURVE",
"-395 112 OFFCURVE",
"-395 167 CURVE SMOOTH",
"-395 368 OFFCURVE",
"-309 491 OFFCURVE",
"-191 491 CURVE SMOOTH",
"-156 491 OFFCURVE",
"-131 468 OFFCURVE",
"-131 432 CURVE SMOOTH",
"-131 251 OFFCURVE",
"-508 288 OFFCURVE",
"-549 195 CURVE",
"-514 125 LINE",
"-448 194 OFFCURVE",
"-45 197 OFFCURVE",
"-45 442 CURVE SMOOTH",
"-45 527 OFFCURVE",
"-92 575 OFFCURVE",
"-181 575 CURVE SMOOTH",
"-362 575 OFFCURVE",
"-479 414 OFFCURVE",
"-479 162 CURVE SMOOTH",
"-479 60 OFFCURVE",
"-411 -13 OFFCURVE",
"-315 -13 CURVE SMOOTH"
);
}
);
width = 545;
}
);
rightMetricsKey = e;
},
{
color = 4;
glyphname = f_f.liga;
lastChange = "2023-07-14 09:45:09 +0000";
layers = (
{
components = (
{
name = f;
transform = "{1, 0, 0, 1, -545, 0}";
},
{
name = f;
}
);
layerId = "7C079D0C-96CD-4BD8-8800-0621C7635A78";
paths = (
{
closed = 1;
nodes = (
"-189 360 LINE",
"203 360 LINE",
"203 402 LINE",
"-189 402 LINE"
);
}
);
width = 545;
},
{
components = (
{
name = f;
transform = "{1, 0, 0, 1, -545, 0}";
},
{
name = f;
}
);
layerId = "291433DC-531A-45CC-B814-57D397372F12";
paths = (
{
closed = 1;
nodes = (
"-189 339 LINE",
"203 339 LINE",
"203 423 LINE",
"-189 423 LINE"
);
}
);
width = 545;
}
);
},
{
color = 4;
glyphname = f_f_i.liga;
lastChange = "2023-07-14 09:45:09 +0000";
layers = (
{
components = (
{
name = f;
transform = "{1, 0, 0, 1, -1091, 0}";
},
{
name = f;
transform = "{1, 0, 0, 1, -545, 0}";
},
{
name = dotaccentcomb;
transform = "{1, 0, 0, 1, -56, 0}";
}
);
layerId = "7C079D0C-96CD-4BD8-8800-0621C7635A78";
paths = (
{
closed = 1;
nodes = (
"-735 360 LINE",
"-343 360 LINE",
"-343 402 LINE",
"-735 402 LINE"
);
},
{
closed = 1;
nodes = (
"369 -13 OFFCURVE",
"405 8 OFFCURVE",
"455 73 CURVE",
"418 98 LINE",
"379 45 OFFCURVE",
"353 29 OFFCURVE",
"307 29 CURVE SMOOTH",
"213 29 OFFCURVE",
"185 81 OFFCURVE",
"225 238 CURVE SMOOTH",
"305 562 LINE",
"259 562 LINE",
"226 410 OFFCURVE",
"-40 402 OFFCURVE",
"-82 402 CURVE",
"-91 360 LINE",
"-69 360 OFFCURVE",
"152 364 OFFCURVE",
"236 454 CURVE",
"179 238 LINE SMOOTH",
"129 50 OFFCURVE",
"171 -13 OFFCURVE",
"307 -13 CURVE SMOOTH"
);
}
);
width = 545;
},
{
components = (
{
name = f;
transform = "{1, 0, 0, 1, -1091, 0}";
},
{
name = f;
transform = "{1, 0, 0, 1, -545, 0}";
},
{
name = dotaccentcomb;
transform = "{1, 0, 0, 1, -40, 0}";
}
);
layerId = "291433DC-531A-45CC-B814-57D397372F12";
paths = (
{
closed = 1;
nodes = (
"-735 339 LINE",
"-343 339 LINE",
"-343 423 LINE",
"-735 423 LINE"
);
},
{
closed = 1;
nodes = (
"391 -13 OFFCURVE",
"436 15 OFFCURVE",
"497 102 CURVE",
"430 149 LINE",
"385 86 OFFCURVE",
"367 71 OFFCURVE",
"325 71 CURVE SMOOTH",
"245 71 OFFCURVE",
"222 106 OFFCURVE",
"255 238 CURVE SMOOTH",
"335 562 LINE",
"248 562 LINE",
"235 410 OFFCURVE",
"5 423 OFFCURVE",
"-55 423 CURVE",
"-74 339 LINE",
"-32 339 OFFCURVE",
"106 328 OFFCURVE",
"211 387 CURVE",
"168 238 LINE SMOOTH",
"115 51 OFFCURVE",
"165 -13 OFFCURVE",
"316 -13 CURVE SMOOTH"
);
}
);
width = 545;
}
);
},
{
color = 4;
glyphname = f_i.liga;
lastChange = "2023-07-14 09:45:09 +0000";
layers = (
{
components = (
{
name = f;
transform = "{1, 0, 0, 1, -545, 0}";
},
{
name = dotaccentcomb;
transform = "{1, 0, 0, 1, -55, 0}";
}
);
layerId = "7C079D0C-96CD-4BD8-8800-0621C7635A78";
paths = (
{
closed = 1;
nodes = (
"369 -13 OFFCURVE",
"405 8 OFFCURVE",
"455 73 CURVE",
"418 98 LINE",
"379 45 OFFCURVE",
"353 29 OFFCURVE",
"307 29 CURVE SMOOTH",
"213 29 OFFCURVE",
"185 81 OFFCURVE",
"225 238 CURVE SMOOTH",
"305 562 LINE",
"259 562 LINE",
"226 410 OFFCURVE",
"-40 402 OFFCURVE",
"-82 402 CURVE",
"-91 360 LINE",
"-69 360 OFFCURVE",
"152 364 OFFCURVE",
"236 454 CURVE",
"179 238 LINE SMOOTH",
"129 50 OFFCURVE",
"171 -13 OFFCURVE",
"307 -13 CURVE SMOOTH"
);
}
);
width = 545;
},
{
components = (
{
name = f;
transform = "{1, 0, 0, 1, -545, 0}";
},
{
name = dotaccentcomb;
transform = "{1, 0, 0, 1, -39, 0}";
}
);
layerId = "291433DC-531A-45CC-B814-57D397372F12";
paths = (
{
closed = 1;
nodes = (
"391 -13 OFFCURVE",
"436 15 OFFCURVE",
"497 102 CURVE",
"430 149 LINE",
"385 86 OFFCURVE",
"367 71 OFFCURVE",
"325 71 CURVE SMOOTH",
"245 71 OFFCURVE",
"222 106 OFFCURVE",
"255 238 CURVE SMOOTH",
"335 562 LINE",
"248 562 LINE",
"235 410 OFFCURVE",
"5 423 OFFCURVE",
"-55 423 CURVE",
"-74 339 LINE",
"-32 339 OFFCURVE",
"106 328 OFFCURVE",
"211 387 CURVE",
"168 238 LINE SMOOTH",
"115 51 OFFCURVE",
"165 -13 OFFCURVE",
"316 -13 CURVE SMOOTH"
);
}
);
width = 545;
}
);
},
{
color = 4;
glyphname = f_j.liga;
lastChange = "2023-07-14 09:45:09 +0000";
layers = (
{
anchors = (
{
name = bottom;
position = "{166, -227}";
},
{
name = top;
position = "{461, 730}";
}
);
layerId = "7C079D0C-96CD-4BD8-8800-0621C7635A78";
paths = (
{
closed = 1;
nodes = (
"-274 -187 OFFCURVE",
"-206 -84 OFFCURVE",
"-206 71 CURVE SMOOTH",
"-206 166 OFFCURVE",
"-261 241 OFFCURVE",
"-343 304 CURVE",
"-336 325 OFFCURVE",
"-329 347 OFFCURVE",
"-325 360 CURVE",
"-91 360 LINE",
"-82 402 LINE",
"-310 402 LINE",
"-252 580 OFFCURVE",
"-213 698 OFFCURVE",
"-125 698 CURVE SMOOTH",
"-62 698 OFFCURVE",
"-44 660 OFFCURVE",
"-35 602 CURVE",
"6 616 LINE",
"-5 691 OFFCURVE",
"-43 740 OFFCURVE",
"-133 740 CURVE SMOOTH",
"-239 740 OFFCURVE",
"-294 605 OFFCURVE",
"-355 402 CURVE",
"-419 402 LINE SMOOTH",
"-465 402 OFFCURVE",
"-487 388 OFFCURVE",
"-487 368 CURVE SMOOTH",
"-487 340 OFFCURVE",
"-450 315 OFFCURVE",
"-394 282 CURVE",
"-435 136 OFFCURVE",
"-462 -14 OFFCURVE",
"-462 -94 CURVE SMOOTH",
"-462 -150 OFFCURVE",
"-427 -187 OFFCURVE",
"-375 -187 CURVE SMOOTH"
);
},
{
closed = 1;
nodes = (
"-400 -145 OFFCURVE",
"-416 -125 OFFCURVE",
"-416 -94 CURVE SMOOTH",
"-416 -13 OFFCURVE",
"-393 128 OFFCURVE",
"-357 258 CURVE",
"-294 206 OFFCURVE",
"-252 150 OFFCURVE",
"-252 71 CURVE SMOOTH",
"-252 -59 OFFCURVE",
"-302 -145 OFFCURVE",
"-376 -145 CURVE SMOOTH"
);
},
{
closed = 1;
nodes = (
"-410 335 OFFCURVE",
"-455 355 OFFCURVE",
"-448 365 CURVE SMOOTH",
"-443 373 OFFCURVE",
"-391 360 OFFCURVE",
"-369 360 CURVE",
"-382 322 LINE"
);
},
{
closed = 1;
nodes = (
"165 -187 OFFCURVE",
"270 -136 OFFCURVE",
"315 -59 CURVE",
"339 -59 OFFCURVE",
"375 -59 OFFCURVE",
"405 -51 CURVE",
"414 -10 LINE",
"390 -16 OFFCURVE",
"371 -18 OFFCURVE",
"334 -18 CURVE",
"355 24 OFFCURVE",
"374 196 OFFCURVE",
"460 562 CURVE",
"415 562 LINE",
"346 290 OFFCURVE",
"306 13 OFFCURVE",
"288 -18 CURVE",
"82 -18 OFFCURVE",
"-45 -58 OFFCURVE",
"-45 -124 CURVE SMOOTH",
"-45 -162 OFFCURVE",
"-6 -187 OFFCURVE",
"52 -187 CURVE SMOOTH"
);
},
{
closed = 1;
nodes = (
"25 -145 OFFCURVE",
"0 -136 OFFCURVE",
"0 -124 CURVE SMOOTH",
"0 -89 OFFCURVE",
"106 -64 OFFCURVE",
"265 -59 CURVE",
"219 -111 OFFCURVE",
"138 -145 OFFCURVE",
"63 -145 CURVE SMOOTH"
);
},
{
closed = 1;
nodes = (
"496 669 OFFCURVE",
"512 681 OFFCURVE",
"520 723 CURVE SMOOTH",
"530 768 OFFCURVE",
"516 784 OFFCURVE",
"468 784 CURVE SMOOTH",
"424 784 OFFCURVE",
"409 772 OFFCURVE",
"400 730 CURVE SMOOTH",
"390 685 OFFCURVE",
"404 669 OFFCURVE",
"452 669 CURVE SMOOTH"
);
},
{
closed = 1;
nodes = (
"460 562 LINE",
"415 562 LINE",
"382 410 OFFCURVE",
"-40 402 OFFCURVE",
"-82 402 CURVE",
"-91 360 LINE",
"-69 360 OFFCURVE",
"307 376 OFFCURVE",
"392 466 CURVE"
);
}
);
width = 545;
},
{
anchors = (
{
name = bottom;
position = "{165, -227}";
},
{
name = top;
position = "{468, 730}";
}
);
layerId = "291433DC-531A-45CC-B814-57D397372F12";
paths = (
{
closed = 1;
nodes = (
"-257 -187 OFFCURVE",
"-185 -73 OFFCURVE",
"-185 85 CURVE SMOOTH",
"-185 166 OFFCURVE",
"-238 249 OFFCURVE",
"-318 315 CURVE",
"-314 324 OFFCURVE",
"-313 331 OFFCURVE",
"-310 339 CURVE",
"-73 339 LINE",
"-55 423 LINE",
"-282 423 LINE",
"-218 607 OFFCURVE",
"-186 656 OFFCURVE",
"-135 656 CURVE SMOOTH",
"-85 656 OFFCURVE",
"-65 629 OFFCURVE",
"-59 548 CURVE",
"26 586 LINE",
"15 688 OFFCURVE",
"-35 740 OFFCURVE",
"-133 740 CURVE SMOOTH",
"-235 740 OFFCURVE",
"-297 651 OFFCURVE",
"-370 424 CURVE",
"-414 423 LINE SMOOTH",
"-466 423 OFFCURVE",
"-508 400 OFFCURVE",
"-508 364 CURVE SMOOTH",
"-509 336 OFFCURVE",
"-469 301 OFFCURVE",
"-418 270 CURVE",
"-458 124 OFFCURVE",
"-479 -4 OFFCURVE",
"-477 -77 CURVE SMOOTH",
"-479 -144 OFFCURVE",
"-438 -187 OFFCURVE",
"-375 -187 CURVE SMOOTH"
);
},
{
closed = 1;
nodes = (
"-380 -104 OFFCURVE",
"-390 -90 OFFCURVE",
"-392 -68 CURVE",
"-391 2 OFFCURVE",
"-375 106 OFFCURVE",
"-346 214 CURVE",
"-299 167 OFFCURVE",
"-269 123 OFFCURVE",
"-269 75 CURVE SMOOTH",
"-269 -28 OFFCURVE",
"-311 -104 OFFCURVE",
"-367 -104 CURVE SMOOTH"
);
},
{
closed = 1;
nodes = (
"-426 340 OFFCURVE",
"-455 353 OFFCURVE",
"-447 363 CURVE SMOOTH",
"-441 371 OFFCURVE",
"-409 360 OFFCURVE",
"-391 355 CURVE",
"-399 331 LINE"
);
},
{
closed = 1;
nodes = (
"164 -187 OFFCURVE",
"273 -139 OFFCURVE",
"328 -61 CURVE",
"362 -59 OFFCURVE",
"399 -55 OFFCURVE",
"423 -45 CURVE",
"452 45 LINE",
"413 30 OFFCURVE",
"401 24 OFFCURVE",
"365 22 CURVE",
"388 86 OFFCURVE",
"419 198 OFFCURVE",
"489 562 CURVE",
"403 562 LINE",
"347 269 OFFCURVE",
"302 94 OFFCURVE",
"280 28 CURVE",
"73 24 OFFCURVE",
"-64 -28 OFFCURVE",
"-63 -107 CURVE SMOOTH",
"-65 -155 OFFCURVE",
"-19 -187 OFFCURVE",
"50 -187 CURVE SMOOTH"
);
},
{
closed = 1;
nodes = (
"46 -104 OFFCURVE",
"24 -99 OFFCURVE",
"24 -98 CURVE SMOOTH",
"25 -89 OFFCURVE",
"115 -69 OFFCURVE",
"213 -62 CURVE",
"173 -86 OFFCURVE",
"122 -104 OFFCURVE",
"70 -104 CURVE SMOOTH"
);
},
{
closed = 1;
nodes = (
"513 642 OFFCURVE",
"537 661 OFFCURVE",
"548 713 CURVE SMOOTH",
"561 772 OFFCURVE",
"538 798 OFFCURVE",
"475 798 CURVE SMOOTH",
"420 798 OFFCURVE",
"395 779 OFFCURVE",
"384 727 CURVE SMOOTH",
"372 668 OFFCURVE",
"395 642 OFFCURVE",
"457 642 CURVE SMOOTH"
);
},
{
closed = 1;
nodes = (
"489 562 LINE",
"403 562 LINE",
"390 410 OFFCURVE",
"5 423 OFFCURVE",
"-55 423 CURVE",
"-74 339 LINE",
"-32 339 OFFCURVE",
"261 328 OFFCURVE",
"365 387 CURVE"
);
}
);
width = 545;
}
);
},
{
color = 4;
glyphname = f_r.liga;
lastChange = "2023-07-14 09:45:09 +0000";
layers = (
{
anchors = (
{
name = bottom;
position = "{333, 0}";
},
{
name = top;
position = "{335, 562}";
}
);
layerId = "7C079D0C-96CD-4BD8-8800-0621C7635A78";
paths = (
{
closed = 1;
nodes = (
"175 321 OFFCURVE",
"222 434 OFFCURVE",
"222 490 CURVE SMOOTH",
"222 541 OFFCURVE",
"194 575 OFFCURVE",
"152 575 CURVE SMOOTH",
"104 575 OFFCURVE",
"72 545 OFFCURVE",
"72 503 CURVE SMOOTH",
"72 449 OFFCURVE",
"131 413 OFFCURVE",
"220 413 CURVE SMOOTH",
"266 413 OFFCURVE",
"336 434 OFFCURVE",
"395 465 CURVE",
"318 340 OFFCURVE",
"266 188 OFFCURVE",
"266 84 CURVE SMOOTH",
"266 25 OFFCURVE",
"302 -13 OFFCURVE",
"355 -13 CURVE SMOOTH",
"408 -13 OFFCURVE",
"457 22 OFFCURVE",
"479 74 CURVE",
"437 90 LINE",
"421 54 OFFCURVE",
"388 29 OFFCURVE",
"355 29 CURVE SMOOTH",
"329 29 OFFCURVE",
"312 51 OFFCURVE",
"312 84 CURVE SMOOTH",
"312 194 OFFCURVE",
"380 368 OFFCURVE",
"483 521 CURVE",
"450 544 LINE",
"366 490 OFFCURVE",
"275 455 OFFCURVE",
"220 455 CURVE SMOOTH",
"158 455 OFFCURVE",
"117 474 OFFCURVE",
"117 503 CURVE SMOOTH",
"117 521 OFFCURVE",
"131 533 OFFCURVE",
"146 533 CURVE SMOOTH",
"166 533 OFFCURVE",
"176 516 OFFCURVE",
"176 492 CURVE SMOOTH",
"176 439 OFFCURVE",
"136 366 OFFCURVE",
"-82 384 CURVE SMOOTH",
"-310 402 LINE",
"-252 580 OFFCURVE",
"-213 698 OFFCURVE",
"-125 698 CURVE SMOOTH",
"-62 698 OFFCURVE",
"-44 660 OFFCURVE",
"-35 602 CURVE",
"6 616 LINE",
"-5 691 OFFCURVE",
"-43 740 OFFCURVE",
"-133 740 CURVE SMOOTH",
"-239 740 OFFCURVE",
"-294 605 OFFCURVE",
"-355 402 CURVE",
"-419 402 LINE SMOOTH",
"-465 402 OFFCURVE",
"-487 388 OFFCURVE",
"-487 368 CURVE SMOOTH",
"-487 340 OFFCURVE",
"-450 315 OFFCURVE",
"-394 282 CURVE",
"-435 136 OFFCURVE",
"-462 -14 OFFCURVE",
"-462 -94 CURVE SMOOTH",
"-462 -150 OFFCURVE",
"-427 -187 OFFCURVE",
"-375 -187 CURVE SMOOTH",
"-274 -187 OFFCURVE",
"-206 -84 OFFCURVE",
"-206 71 CURVE SMOOTH",
"-206 166 OFFCURVE",
"-261 241 OFFCURVE",
"-343 304 CURVE",
"-336 325 OFFCURVE",
"-329 347 OFFCURVE",
"-325 360 CURVE",
"-91 342 LINE SMOOTH"
);
},
{
closed = 1;
nodes = (
"-400 -145 OFFCURVE",
"-416 -125 OFFCURVE",
"-416 -94 CURVE SMOOTH",
"-416 -13 OFFCURVE",
"-393 128 OFFCURVE",
"-357 258 CURVE",
"-294 206 OFFCURVE",
"-252 150 OFFCURVE",
"-252 71 CURVE SMOOTH",
"-252 -59 OFFCURVE",
"-302 -145 OFFCURVE",
"-376 -145 CURVE SMOOTH"
);
},
{
closed = 1;
nodes = (
"-410 335 OFFCURVE",
"-455 355 OFFCURVE",
"-448 365 CURVE SMOOTH",
"-443 373 OFFCURVE",
"-391 360 OFFCURVE",
"-369 360 CURVE",
"-382 322 LINE"
);
}
);
width = 545;
},
{
anchors = (
{
name = bottom;
position = "{331, 0}";
},
{
name = top;
position = "{333, 562}";
}
);
layerId = "291433DC-531A-45CC-B814-57D397372F12";
paths = (
{
closed = 1;
nodes = (
"153 286 OFFCURVE",
"236 406 OFFCURVE",
"235 474 CURVE SMOOTH",
"237 534 OFFCURVE",
"203 575 OFFCURVE",
"150 575 CURVE SMOOTH",
"88 575 OFFCURVE",
"44 534 OFFCURVE",
"46 477 CURVE SMOOTH",
"45 414 OFFCURVE",
"109 371 OFFCURVE",
"209 371 CURVE SMOOTH",
"242 371 OFFCURVE",
"291 381 OFFCURVE",
"345 404 CURVE",
"276 282 OFFCURVE",
"247 191 OFFCURVE",
"249 100 CURVE SMOOTH",
"248 33 OFFCURVE",
"289 -13 OFFCURVE",
"354 -13 CURVE SMOOTH",
"422 -13 OFFCURVE",
"487 37 OFFCURVE",
"508 111 CURVE",
"427 137 LINE",
"419 99 OFFCURVE",
"391 71 OFFCURVE",
"363 71 CURVE SMOOTH",
"348 71 OFFCURVE",
"336 85 OFFCURVE",
"334 109 CURVE SMOOTH",
"333 220 OFFCURVE",
"402 359 OFFCURVE",
"505 508 CURVE",
"448 548 LINE",
"367 494 OFFCURVE",
"273 455 OFFCURVE",
"218 455 CURVE SMOOTH",
"154 455 OFFCURVE",
"110 458 OFFCURVE",
"110 491 CURVE SMOOTH",
"110 506 OFFCURVE",
"122 519 OFFCURVE",
"139 519 CURVE SMOOTH",
"154 519 OFFCURVE",
"163 502 OFFCURVE",
"163 478 CURVE SMOOTH",
"163 428 OFFCURVE",
"115 375 OFFCURVE",
"-55 395 CURVE SMOOTH",
"-282 423 LINE",
"-218 607 OFFCURVE",
"-186 656 OFFCURVE",
"-135 656 CURVE SMOOTH",
"-85 656 OFFCURVE",
"-65 629 OFFCURVE",
"-59 548 CURVE",
"26 586 LINE",
"15 688 OFFCURVE",
"-35 740 OFFCURVE",
"-133 740 CURVE SMOOTH",
"-235 740 OFFCURVE",
"-297 651 OFFCURVE",
"-370 424 CURVE",
"-414 423 LINE",
"-466 423 OFFCURVE",
"-508 400 OFFCURVE",
"-508 364 CURVE SMOOTH",
"-509 336 OFFCURVE",
"-469 301 OFFCURVE",
"-418 270 CURVE",
"-458 124 OFFCURVE",
"-479 -4 OFFCURVE",
"-477 -77 CURVE SMOOTH",
"-479 -144 OFFCURVE",
"-438 -187 OFFCURVE",
"-375 -187 CURVE SMOOTH",
"-257 -187 OFFCURVE",
"-185 -73 OFFCURVE",
"-185 85 CURVE SMOOTH",
"-185 166 OFFCURVE",
"-238 249 OFFCURVE",
"-318 315 CURVE",
"-314 324 OFFCURVE",
"-313 331 OFFCURVE",
"-310 339 CURVE",
"-73 312 LINE SMOOTH"
);
},
{
closed = 1;
nodes = (
"-380 -104 OFFCURVE",
"-390 -90 OFFCURVE",
"-392 -68 CURVE SMOOTH",
"-391 2 OFFCURVE",
"-375 106 OFFCURVE",
"-346 214 CURVE",
"-299 167 OFFCURVE",
"-269 123 OFFCURVE",
"-269 75 CURVE SMOOTH",
"-269 -28 OFFCURVE",
"-311 -104 OFFCURVE",
"-367 -104 CURVE SMOOTH"
);
},
{
closed = 1;
nodes = (
"-426 340 OFFCURVE",
"-455 353 OFFCURVE",
"-447 363 CURVE SMOOTH",
"-441 371 OFFCURVE",
"-409 360 OFFCURVE",
"-391 355 CURVE",
"-399 331 LINE"
);
}
);
width = 545;
}
);
},
{
color = 4;
glyphname = f_s.liga;
lastChange = "2023-07-14 09:45:09 +0000";
layers = (
{
anchors = (
{
name = bottom;
position = "{205, 0}";
},
{
name = top;
position = "{325, 562}";
}
);
layerId = "7C079D0C-96CD-4BD8-8800-0621C7635A78";
paths = (
{
closed = 1;
nodes = (
"-274 -187 OFFCURVE",
"-206 -84 OFFCURVE",
"-206 71 CURVE SMOOTH",
"-206 166 OFFCURVE",
"-261 241 OFFCURVE",
"-343 304 CURVE",
"-336 325 OFFCURVE",
"-329 347 OFFCURVE",
"-325 360 CURVE",
"-91 360 LINE",
"-82 402 LINE",
"-310 402 LINE",
"-252 580 OFFCURVE",
"-213 698 OFFCURVE",
"-125 698 CURVE SMOOTH",
"-62 698 OFFCURVE",
"-44 660 OFFCURVE",
"-35 602 CURVE",
"6 616 LINE",
"-5 691 OFFCURVE",
"-43 740 OFFCURVE",
"-133 740 CURVE SMOOTH",
"-239 740 OFFCURVE",
"-294 605 OFFCURVE",
"-355 402 CURVE",
"-419 402 LINE SMOOTH",
"-465 402 OFFCURVE",
"-487 388 OFFCURVE",
"-487 368 CURVE SMOOTH",
"-487 340 OFFCURVE",
"-450 315 OFFCURVE",
"-394 282 CURVE",
"-435 136 OFFCURVE",
"-462 -14 OFFCURVE",
"-462 -94 CURVE SMOOTH",
"-462 -150 OFFCURVE",
"-427 -187 OFFCURVE",
"-375 -187 CURVE SMOOTH"
);
},
{
closed = 1;
nodes = (
"-400 -145 OFFCURVE",
"-416 -125 OFFCURVE",
"-416 -94 CURVE SMOOTH",
"-416 -13 OFFCURVE",
"-393 128 OFFCURVE",
"-357 258 CURVE",
"-294 206 OFFCURVE",
"-252 150 OFFCURVE",
"-252 71 CURVE SMOOTH",
"-252 -59 OFFCURVE",
"-302 -145 OFFCURVE",
"-376 -145 CURVE SMOOTH"
);
},
{
closed = 1;
nodes = (
"-410 335 OFFCURVE",
"-455 355 OFFCURVE",
"-448 365 CURVE SMOOTH",
"-443 373 OFFCURVE",
"-391 360 OFFCURVE",
"-369 360 CURVE",
"-382 322 LINE"
);
},
{
closed = 1;
nodes = (
"313 -13 OFFCURVE",
"425 28 OFFCURVE",
"478 89 CURVE",
"450 118 LINE",
"425 91 OFFCURVE",
"366 62 OFFCURVE",
"325 48 CURVE",
"376 102 OFFCURVE",
"405 174 OFFCURVE",
"405 256 CURVE SMOOTH",
"405 314 OFFCURVE",
"383 380 OFFCURVE",
"349 422 CURVE",
"369 449 OFFCURVE",
"379 485 OFFCURVE",
"379 508 CURVE SMOOTH",
"379 548 OFFCURVE",
"353 575 OFFCURVE",
"309 575 CURVE SMOOTH",
"268 575 OFFCURVE",
"245 548 OFFCURVE",
"245 511 CURVE SMOOTH",
"245 488 OFFCURVE",
"264 451 OFFCURVE",
"296 419 CURVE",
"229 355 OFFCURVE",
"132 401 OFFCURVE",
"-82 402 CURVE",
"-91 360 LINE",
"146 360 OFFCURVE",
"251 319 OFFCURVE",
"325 383 CURVE",
"345 354 OFFCURVE",
"359 305 OFFCURVE",
"359 262 CURVE SMOOTH",
"359 138 OFFCURVE",
"299 29 OFFCURVE",
"190 29 CURVE SMOOTH",
"137 29 OFFCURVE",
"84 60 OFFCURVE",
"56 107 CURVE",
"16 89 LINE",
"53 27 OFFCURVE",
"118 -13 OFFCURVE",
"199 -13 CURVE SMOOTH"
);
},
{
closed = 1;
nodes = (
"299 475 OFFCURVE",
"288 492 OFFCURVE",
"288 512 CURVE SMOOTH",
"288 527 OFFCURVE",
"296 537 OFFCURVE",
"311 537 CURVE SMOOTH",
"327 537 OFFCURVE",
"335 525 OFFCURVE",
"335 505 CURVE SMOOTH",
"335 491 OFFCURVE",
"332 475 OFFCURVE",
"319 452 CURVE"
);
}
);
width = 545;
},
{
anchors = (
{
name = bottom;
position = "{222, 0}";
},
{
name = top;
position = "{342, 562}";
}
);
layerId = "291433DC-531A-45CC-B814-57D397372F12";
paths = (
{
closed = 1;
nodes = (
"-257 -187 OFFCURVE",
"-185 -73 OFFCURVE",
"-185 85 CURVE SMOOTH",
"-185 166 OFFCURVE",
"-238 249 OFFCURVE",
"-318 315 CURVE",
"-314 324 OFFCURVE",
"-313 331 OFFCURVE",
"-310 339 CURVE",
"-73 339 LINE",
"-55 423 LINE",
"-282 423 LINE",
"-218 607 OFFCURVE",
"-186 656 OFFCURVE",
"-135 656 CURVE SMOOTH",
"-85 656 OFFCURVE",
"-65 629 OFFCURVE",
"-59 548 CURVE",
"26 586 LINE",
"15 688 OFFCURVE",
"-35 740 OFFCURVE",
"-133 740 CURVE SMOOTH",
"-235 740 OFFCURVE",
"-297 651 OFFCURVE",
"-370 424 CURVE",
"-414 423 LINE",
"-466 423 OFFCURVE",
"-508 400 OFFCURVE",
"-508 364 CURVE SMOOTH",
"-509 336 OFFCURVE",
"-469 301 OFFCURVE",
"-418 270 CURVE",
"-458 124 OFFCURVE",
"-479 -4 OFFCURVE",
"-477 -77 CURVE SMOOTH",
"-479 -144 OFFCURVE",
"-438 -187 OFFCURVE",
"-375 -187 CURVE SMOOTH"
);
},
{
closed = 1;
nodes = (
"-380 -104 OFFCURVE",
"-390 -90 OFFCURVE",
"-392 -68 CURVE SMOOTH",
"-391 2 OFFCURVE",
"-375 106 OFFCURVE",
"-346 214 CURVE",
"-299 167 OFFCURVE",
"-269 123 OFFCURVE",
"-269 75 CURVE SMOOTH",
"-269 -28 OFFCURVE",
"-311 -104 OFFCURVE",
"-367 -104 CURVE SMOOTH"
);
},
{
closed = 1;
nodes = (
"-426 340 OFFCURVE",
"-455 353 OFFCURVE",
"-447 363 CURVE SMOOTH",
"-441 371 OFFCURVE",
"-409 360 OFFCURVE",
"-391 355 CURVE",
"-399 331 LINE"
);
},
{
closed = 1;
nodes = (
"325 -13 OFFCURVE",
"455 38 OFFCURVE",
"508 115 CURVE",
"457 172 LINE",
"435 147 OFFCURVE",
"407 127 OFFCURVE",
"381 111 CURVE",
"415 162 OFFCURVE",
"423 200 OFFCURVE",
"423 261 CURVE SMOOTH",
"425 320 OFFCURVE",
"398 363 OFFCURVE",
"368 405 CURVE",
"387 435 OFFCURVE",
"395 469 OFFCURVE",
"393 492 CURVE",
"393 542 OFFCURVE",
"361 575 OFFCURVE",
"307 575 CURVE SMOOTH",
"254 575 OFFCURVE",
"216 537 OFFCURVE",
"218 485 CURVE",
"215 458 OFFCURVE",
"236 422 OFFCURVE",
"263 394 CURVE",
"220 339 OFFCURVE",
"143 423 OFFCURVE",
"-55 423 CURVE",
"-73 339 LINE",
"160 340 OFFCURVE",
"252 262 OFFCURVE",
"313 324 CURVE",
"325 299 OFFCURVE",
"335 286 OFFCURVE",
"337 257 CURVE",
"337 145 OFFCURVE",
"281 71 OFFCURVE",
"197 71 CURVE SMOOTH",
"146 71 OFFCURVE",
"92 105 OFFCURVE",
"71 157 CURVE",
"-11 115 LINE",
"26 36 OFFCURVE",
"105 -13 OFFCURVE",
"197 -13 CURVE SMOOTH"
);
},
{
closed = 1;
nodes = (
"292 462 OFFCURVE",
"284 477 OFFCURVE",
"284 495 CURVE SMOOTH",
"284 510 OFFCURVE",
"294 519 OFFCURVE",
"305 518 CURVE SMOOTH",
"321 517 OFFCURVE",
"330 505 OFFCURVE",
"327 487 CURVE SMOOTH",
"325 474 OFFCURVE",
"322 460 OFFCURVE",
"308 439 CURVE"
);
}
);
width = 545;
}
);
},
{
color = 4;
glyphname = f_y.liga;
lastChange = "2023-07-14 09:45:09 +0000";
layers = (
{
anchors = (
{
name = bottom;
position = "{411, -43}";
},
{
name = top;
position = "{335, 562}";
}
);
layerId = "7C079D0C-96CD-4BD8-8800-0621C7635A78";
paths = (
{
closed = 1;
nodes = (
"-400 -145 OFFCURVE",
"-416 -125 OFFCURVE",
"-416 -94 CURVE SMOOTH",
"-416 -13 OFFCURVE",
"-393 128 OFFCURVE",
"-357 258 CURVE",
"-294 206 OFFCURVE",
"-252 150 OFFCURVE",
"-252 71 CURVE SMOOTH",
"-252 -59 OFFCURVE",
"-302 -145 OFFCURVE",
"-376 -145 CURVE SMOOTH"
);
},
{
closed = 1;
nodes = (
"-410 335 OFFCURVE",
"-455 355 OFFCURVE",
"-448 365 CURVE SMOOTH",
"-443 373 OFFCURVE",
"-391 360 OFFCURVE",
"-369 360 CURVE",
"-382 322 LINE"
);
},
{
closed = 1;
nodes = (
"80 -145 OFFCURVE",
"55 -136 OFFCURVE",
"55 -124 CURVE SMOOTH",
"55 -89 OFFCURVE",
"161 -64 OFFCURVE",
"319 -59 CURVE",
"274 -111 OFFCURVE",
"193 -145 OFFCURVE",
"117 -145 CURVE SMOOTH"
);
},
{
closed = 1;
nodes = (
"55 575 OFFCURVE",
"-32 402 OFFCURVE",
"-310 402 CURVE",
"-252 580 OFFCURVE",
"-213 698 OFFCURVE",
"-125 698 CURVE SMOOTH",
"-62 698 OFFCURVE",
"-44 660 OFFCURVE",
"-35 602 CURVE",
"6 616 LINE",
"-5 691 OFFCURVE",
"-43 740 OFFCURVE",
"-133 740 CURVE SMOOTH",
"-239 740 OFFCURVE",
"-294 605 OFFCURVE",
"-355 402 CURVE",
"-419 402 LINE SMOOTH",
"-465 402 OFFCURVE",
"-487 388 OFFCURVE",
"-487 368 CURVE SMOOTH",
"-487 340 OFFCURVE",
"-450 315 OFFCURVE",
"-394 282 CURVE",
"-435 136 OFFCURVE",
"-462 -14 OFFCURVE",
"-462 -94 CURVE SMOOTH",
"-462 -150 OFFCURVE",
"-427 -187 OFFCURVE",
"-375 -187 CURVE SMOOTH",
"-274 -187 OFFCURVE",
"-206 -84 OFFCURVE",
"-206 71 CURVE SMOOTH",
"-206 166 OFFCURVE",
"-261 241 OFFCURVE",
"-343 304 CURVE",
"-336 325 OFFCURVE",
"-329 347 OFFCURVE",
"-325 360 CURVE",
"-18 360 OFFCURVE",
"84 533 OFFCURVE",
"155 533 CURVE SMOOTH",
"175 533 OFFCURVE",
"188 521 OFFCURVE",
"188 503 CURVE SMOOTH",
"188 452 OFFCURVE",
"160 330 OFFCURVE",
"117 199 CURVE SMOOTH",
"93 123 OFFCURVE",
"147 42 OFFCURVE",
"243 42 CURVE SMOOTH",
"290 42 OFFCURVE",
"367 54 OFFCURVE",
"381 96 CURVE",
"376 70 OFFCURVE",
"361 13 OFFCURVE",
"343 -18 CURVE",
"136 -18 OFFCURVE",
"9 -58 OFFCURVE",
"9 -124 CURVE SMOOTH",
"9 -162 OFFCURVE",
"48 -187 OFFCURVE",
"106 -187 CURVE SMOOTH",
"219 -187 OFFCURVE",
"325 -136 OFFCURVE",
"370 -59 CURVE",
"394 -59 OFFCURVE",
"429 -59 OFFCURVE",
"459 -51 CURVE",
"468 -10 LINE",
"445 -16 OFFCURVE",
"425 -18 OFFCURVE",
"388 -18 CURVE",
"410 24 OFFCURVE",
"450 215 OFFCURVE",
"523 562 CURVE",
"477 562 LINE",
"401 199 LINE SMOOTH",
"379 95 OFFCURVE",
"314 84 OFFCURVE",
"243 84 CURVE SMOOTH",
"180 84 OFFCURVE",
"141 128 OFFCURVE",
"163 199 CURVE SMOOTH",
"205 337 OFFCURVE",
"234 466 OFFCURVE",
"234 522 CURVE SMOOTH",
"234 554 OFFCURVE",
"206 575 OFFCURVE",
"162 575 CURVE SMOOTH"
);
}
);
width = 545;
},
{
anchors = (
{
name = bottom;
position = "{407, -48}";
},
{
name = top;
position = "{333, 562}";
}
);
layerId = "291433DC-531A-45CC-B814-57D397372F12";
paths = (
{
closed = 1;
nodes = (
"-380 -104 OFFCURVE",
"-390 -90 OFFCURVE",
"-392 -68 CURVE SMOOTH",
"-391 2 OFFCURVE",
"-375 106 OFFCURVE",
"-346 214 CURVE",
"-299 167 OFFCURVE",
"-269 123 OFFCURVE",
"-269 75 CURVE SMOOTH",
"-269 -28 OFFCURVE",
"-311 -104 OFFCURVE",
"-367 -104 CURVE SMOOTH"
);
},
{
closed = 1;
nodes = (
"-426 340 OFFCURVE",
"-455 353 OFFCURVE",
"-447 363 CURVE SMOOTH",
"-441 371 OFFCURVE",
"-409 360 OFFCURVE",
"-391 355 CURVE",
"-399 331 LINE"
);
},
{
closed = 1;
nodes = (
"101 -104 OFFCURVE",
"78 -99 OFFCURVE",
"78 -98 CURVE SMOOTH",
"79 -89 OFFCURVE",
"170 -69 OFFCURVE",
"267 -62 CURVE",
"227 -86 OFFCURVE",
"176 -104 OFFCURVE",
"125 -104 CURVE SMOOTH"
);
},
{
closed = 1;
nodes = (
"46 575 OFFCURVE",
"-32 423 OFFCURVE",
"-282 423 CURVE",
"-218 607 OFFCURVE",
"-186 656 OFFCURVE",
"-135 656 CURVE SMOOTH",
"-85 656 OFFCURVE",
"-65 629 OFFCURVE",
"-59 548 CURVE",
"26 586 LINE",
"15 688 OFFCURVE",
"-35 740 OFFCURVE",
"-133 740 CURVE SMOOTH",
"-235 740 OFFCURVE",
"-297 651 OFFCURVE",
"-370 424 CURVE",
"-414 423 LINE",
"-466 423 OFFCURVE",
"-508 400 OFFCURVE",
"-508 364 CURVE SMOOTH",
"-509 336 OFFCURVE",
"-469 301 OFFCURVE",
"-418 270 CURVE",
"-458 124 OFFCURVE",
"-479 -4 OFFCURVE",
"-477 -77 CURVE SMOOTH",
"-479 -144 OFFCURVE",
"-438 -187 OFFCURVE",
"-375 -187 CURVE SMOOTH",
"-257 -187 OFFCURVE",
"-185 -73 OFFCURVE",
"-185 85 CURVE SMOOTH",
"-185 166 OFFCURVE",
"-238 249 OFFCURVE",
"-318 315 CURVE",
"-314 324 OFFCURVE",
"-313 331 OFFCURVE",
"-310 339 CURVE",
"-9 339 OFFCURVE",
"83 491 OFFCURVE",
"144 491 CURVE SMOOTH",
"154 491 OFFCURVE",
"161 486 OFFCURVE",
"162 477 CURVE SMOOTH",
"161 427 OFFCURVE",
"136 333 OFFCURVE",
"101 224 CURVE SMOOTH",
"71 130 OFFCURVE",
"136 42 OFFCURVE",
"241 42 CURVE SMOOTH",
"281 42 OFFCURVE",
"321 48 OFFCURVE",
"352 65 CURVE",
"345 54 OFFCURVE",
"341 39 OFFCURVE",
"336 28 CURVE",
"128 24 OFFCURVE",
"-9 -27 OFFCURVE",
"-8 -107 CURVE SMOOTH",
"-10 -155 OFFCURVE",
"35 -187 OFFCURVE",
"105 -187 CURVE SMOOTH",
"218 -187 OFFCURVE",
"327 -139 OFFCURVE",
"383 -61 CURVE",
"416 -59 OFFCURVE",
"454 -55 OFFCURVE",
"477 -45 CURVE",
"506 45 LINE",
"467 30 OFFCURVE",
"455 24 OFFCURVE",
"419 22 CURVE",
"441 80 OFFCURVE",
"466 208 OFFCURVE",
"541 562 CURVE",
"454 562 LINE",
"384 220 LINE SMOOTH",
"369 148 OFFCURVE",
"335 125 OFFCURVE",
"250 125 CURVE SMOOTH",
"196 125 OFFCURVE",
"169 163 OFFCURVE",
"185 217 CURVE",
"227 347 OFFCURVE",
"249 447 OFFCURVE",
"247 505 CURVE SMOOTH",
"248 546 OFFCURVE",
"215 575 OFFCURVE",
"160 575 CURVE SMOOTH"
);
}
);
width = 545;
}
);
},
{
color = 4;
glyphname = h_e.liga;
lastChange = "2023-07-14 09:45:09 +0000";
layers = (
{
anchors = (
{
name = bottom;
position = "{213, 0}";
},
{
name = center;
position = "{-235, 455}";
},
{
name = ogonek;
position = "{233, 9}";
},
{
name = top;
position = "{333, 562}";
}
);
layerId = "7C079D0C-96CD-4BD8-8800-0621C7635A78";
paths = (
{
closed = 1;
nodes = (
"91 202 OFFCURVE",
"485 214 OFFCURVE",
"485 458 CURVE SMOOTH",
"485 540 OFFCURVE",
"436 575 OFFCURVE",
"365 575 CURVE SMOOTH",
"200 575 OFFCURVE",
"82 395 OFFCURVE",
"82 148 CURVE SMOOTH",
"82 53 OFFCURVE",
"147 -13 OFFCURVE",
"231 -13 CURVE SMOOTH",
"303 -13 OFFCURVE",
"389 22 OFFCURVE",
"447 75 CURVE",
"424 112 LINE",
"372 64 OFFCURVE",
"297 32 OFFCURVE",
"236 32 CURVE SMOOTH",
"176 32 OFFCURVE",
"127 78 OFFCURVE",
"127 145 CURVE SMOOTH",
"127 368 OFFCURVE",
"227 533 OFFCURVE",
"364 533 CURVE SMOOTH",
"403 533 OFFCURVE",
"439 509 OFFCURVE",
"439 458 CURVE SMOOTH",
"439 251 OFFCURVE",
"74 249 OFFCURVE",
"-40 115 CURVE SMOOTH",
"-106 36 OFFCURVE",
"-123 29 OFFCURVE",
"-136 29 CURVE SMOOTH",
"-156 29 OFFCURVE",
"-170 41 OFFCURVE",
"-170 59 CURVE SMOOTH",
"-170 108 OFFCURVE",
"-141 230 OFFCURVE",
"-97 365 CURVE SMOOTH",
"-49 513 OFFCURVE",
"-96 575 OFFCURVE",
"-208 575 CURVE SMOOTH",
"-287 575 OFFCURVE",
"-360 505 OFFCURVE",
"-412 407 CURVE",
"-344 727 LINE",
"-389 727 LINE",
"-544 0 LINE",
"-497 0 LINE",
"-442 262 LINE SMOOTH",
"-420 365 OFFCURVE",
"-308 533 OFFCURVE",
"-209 533 CURVE SMOOTH",
"-135 533 OFFCURVE",
"-106 487 OFFCURVE",
"-143 368 CURVE SMOOTH",
"-187 223 OFFCURVE",
"-217 91 OFFCURVE",
"-217 40 CURVE SMOOTH",
"-217 8 OFFCURVE",
"-192 -13 OFFCURVE",
"-153 -13 CURVE SMOOTH",
"-122 -13 OFFCURVE",
"-90 -2 OFFCURVE",
"-18 79 CURVE SMOOTH"
);
}
);
width = 545;
},
{
anchors = (
{
name = bottom;
position = "{213, 0}";
},
{
name = center;
position = "{-235, 455}";
},
{
name = ogonek;
position = "{224, 9}";
},
{
name = top;
position = "{333, 562}";
}
);
layerId = "291433DC-531A-45CC-B814-57D397372F12";
paths = (
{
closed = 1;
nodes = (
"83 205 OFFCURVE",
"500 197 OFFCURVE",
"500 442 CURVE SMOOTH",
"500 527 OFFCURVE",
"454 575 OFFCURVE",
"365 575 CURVE SMOOTH",
"184 575 OFFCURVE",
"66 414 OFFCURVE",
"66 162 CURVE SMOOTH",
"66 60 OFFCURVE",
"135 -13 OFFCURVE",
"231 -13 CURVE SMOOTH",
"313 -13 OFFCURVE",
"415 30 OFFCURVE",
"479 95 CURVE",
"438 169 LINE",
"391 114 OFFCURVE",
"310 74 OFFCURVE",
"245 74 CURVE SMOOTH",
"194 74 OFFCURVE",
"151 112 OFFCURVE",
"151 167 CURVE SMOOTH",
"151 368 OFFCURVE",
"236 491 OFFCURVE",
"355 491 CURVE SMOOTH",
"389 491 OFFCURVE",
"415 468 OFFCURVE",
"415 432 CURVE SMOOTH",
"415 251 OFFCURVE",
"53 277 OFFCURVE",
"-43 153 CURVE SMOOTH",
"-94 86 OFFCURVE",
"-112 71 OFFCURVE",
"-127 71 CURVE SMOOTH",
"-137 71 OFFCURVE",
"-145 75 OFFCURVE",
"-145 85 CURVE SMOOTH",
"-145 132 OFFCURVE",
"-115 232 OFFCURVE",
"-81 349 CURVE SMOOTH",
"-38 495 OFFCURVE",
"-75 575 OFFCURVE",
"-208 575 CURVE SMOOTH",
"-265 575 OFFCURVE",
"-322 545 OFFCURVE",
"-373 486 CURVE",
"-322 727 LINE",
"-412 727 LINE",
"-565 0 LINE",
"-475 0 LINE",
"-424 250 LINE SMOOTH",
"-400 365 OFFCURVE",
"-289 491 OFFCURVE",
"-218 491 CURVE SMOOTH",
"-154 491 OFFCURVE",
"-137 448 OFFCURVE",
"-164 359 CURVE SMOOTH",
"-206 215 OFFCURVE",
"-235 108 OFFCURVE",
"-233 56 CURVE SMOOTH",
"-234 15 OFFCURVE",
"-202 -13 OFFCURVE",
"-153 -13 CURVE SMOOTH",
"-110 -13 OFFCURVE",
"-60 6 OFFCURVE",
"-6 81 CURVE SMOOTH"
);
}
);
width = 545;
}
);
rightMetricsKey = e;
},
{
color = 4;
glyphname = h_l.liga;
lastChange = "2023-07-14 09:45:09 +0000";
layers = (
{
anchors = (
{
name = bottom;
position = "{204, 0}";
},
{
name = center;
position = "{301, 455}";
},
{
name = top;
position = "{373, 727}";
},
{
name = topright;
position = "{615, 727}";
}
);
layerId = "7C079D0C-96CD-4BD8-8800-0621C7635A78";
paths = (
{
closed = 1;
nodes = (
"187 -13 OFFCURVE",
"467 362 OFFCURVE",
"467 632 CURVE SMOOTH",
"467 696 OFFCURVE",
"434 740 OFFCURVE",
"379 740 CURVE SMOOTH",
"230 740 OFFCURVE",
"185 495 OFFCURVE",
"185 126 CURVE SMOOTH",
"185 43 OFFCURVE",
"232 -13 OFFCURVE",
"303 -13 CURVE SMOOTH",
"352 -13 OFFCURVE",
"411 22 OFFCURVE",
"450 73 CURVE",
"414 98 LINE",
"383 56 OFFCURVE",
"338 29 OFFCURVE",
"303 29 CURVE SMOOTH",
"259 29 OFFCURVE",
"230 79 OFFCURVE",
"230 154 CURVE SMOOTH",
"230 480 OFFCURVE",
"281 697 OFFCURVE",
"372 697 CURVE SMOOTH",
"404 697 OFFCURVE",
"422 671 OFFCURVE",
"422 632 CURVE SMOOTH",
"422 379 OFFCURVE",
"150 29 OFFCURVE",
"-136 29 CURVE SMOOTH",
"-156 29 OFFCURVE",
"-170 41 OFFCURVE",
"-170 59 CURVE SMOOTH",
"-170 108 OFFCURVE",
"-141 230 OFFCURVE",
"-97 365 CURVE SMOOTH",
"-49 513 OFFCURVE",
"-96 575 OFFCURVE",
"-208 575 CURVE SMOOTH",
"-287 575 OFFCURVE",
"-360 505 OFFCURVE",
"-412 407 CURVE",
"-344 727 LINE",
"-389 727 LINE",
"-544 0 LINE",
"-497 0 LINE",
"-442 262 LINE SMOOTH",
"-420 365 OFFCURVE",
"-308 533 OFFCURVE",
"-209 533 CURVE SMOOTH",
"-135 533 OFFCURVE",
"-106 487 OFFCURVE",
"-143 368 CURVE SMOOTH",
"-187 223 OFFCURVE",
"-217 91 OFFCURVE",
"-217 40 CURVE SMOOTH",
"-217 8 OFFCURVE",
"-192 -13 OFFCURVE",
"-153 -13 CURVE SMOOTH"
);
}
);
width = 545;
},
{
anchors = (
{
name = bottom;
position = "{204, 0}";
},
{
name = center;
position = "{301, 455}";
},
{
name = top;
position = "{391, 727}";
},
{
name = topright;
position = "{615, 727}";
}
);
layerId = "291433DC-531A-45CC-B814-57D397372F12";
paths = (
{
closed = 1;
nodes = (
"187 -13 OFFCURVE",
"490 325 OFFCURVE",
"490 612 CURVE SMOOTH",
"490 691 OFFCURVE",
"445 740 OFFCURVE",
"373 740 CURVE SMOOTH",
"211 740 OFFCURVE",
"159 523 OFFCURVE",
"163 143 CURVE SMOOTH",
"164 50 OFFCURVE",
"215 -13 OFFCURVE",
"296 -13 CURVE SMOOTH",
"358 -13 OFFCURVE",
"433 32 OFFCURVE",
"477 101 CURVE",
"409 151 LINE",
"385 106 OFFCURVE",
"339 71 OFFCURVE",
"305 71 CURVE SMOOTH",
"275 71 OFFCURVE",
"252 116 OFFCURVE",
"249 181 CURVE SMOOTH",
"239 407 OFFCURVE",
"280 655 OFFCURVE",
"365 655 CURVE SMOOTH",
"391 655 OFFCURVE",
"401 641 OFFCURVE",
"401 606 CURVE SMOOTH",
"401 373 OFFCURVE",
"131 71 OFFCURVE",
"-127 71 CURVE SMOOTH",
"-137 71 OFFCURVE",
"-145 75 OFFCURVE",
"-145 85 CURVE",
"-145 132 OFFCURVE",
"-115 232 OFFCURVE",
"-81 349 CURVE SMOOTH",
"-38 495 OFFCURVE",
"-75 575 OFFCURVE",
"-208 575 CURVE SMOOTH",
"-265 575 OFFCURVE",
"-322 545 OFFCURVE",
"-373 486 CURVE",
"-322 727 LINE",
"-412 727 LINE",
"-565 0 LINE",
"-475 0 LINE",
"-424 250 LINE SMOOTH",
"-400 365 OFFCURVE",
"-289 491 OFFCURVE",
"-218 491 CURVE SMOOTH",
"-154 491 OFFCURVE",
"-137 448 OFFCURVE",
"-164 359 CURVE SMOOTH",
"-206 215 OFFCURVE",
"-235 108 OFFCURVE",
"-233 56 CURVE",
"-234 15 OFFCURVE",
"-202 -13 OFFCURVE",
"-153 -13 CURVE SMOOTH"
);
}
);
width = 545;
}
);
rightMetricsKey = l;
},
{
color = 4;
glyphname = i_e.liga;
lastChange = "2023-07-14 09:45:09 +0000";
layers = (
{
anchors = (
{
name = bottom;
position = "{213, 0}";
},
{
name = ogonek;
position = "{233, 9}";
},
{
name = top;
position = "{333, 562}";
}
);
layerId = "7C079D0C-96CD-4BD8-8800-0621C7635A78";
paths = (
{
closed = 1;
nodes = (
"-176 -13 OFFCURVE",
"-141 8 OFFCURVE",
"-27 108 CURVE SMOOTH",
"85 208 OFFCURVE",
"485 214 OFFCURVE",
"485 458 CURVE SMOOTH",
"485 540 OFFCURVE",
"436 575 OFFCURVE",
"365 575 CURVE SMOOTH",
"200 575 OFFCURVE",
"82 395 OFFCURVE",
"82 148 CURVE SMOOTH",
"82 53 OFFCURVE",
"147 -13 OFFCURVE",
"231 -13 CURVE SMOOTH",
"303 -13 OFFCURVE",
"389 22 OFFCURVE",
"447 75 CURVE",
"424 112 LINE",
"372 64 OFFCURVE",
"297 32 OFFCURVE",
"236 32 CURVE SMOOTH",
"176 32 OFFCURVE",
"127 78 OFFCURVE",
"127 145 CURVE SMOOTH",
"127 368 OFFCURVE",
"227 533 OFFCURVE",
"364 533 CURVE SMOOTH",
"403 533 OFFCURVE",
"439 509 OFFCURVE",
"439 458 CURVE SMOOTH",
"439 251 OFFCURVE",
"73 251 OFFCURVE",
"-56 140 CURVE SMOOTH",
"-166 45 OFFCURVE",
"-193 29 OFFCURVE",
"-238 29 CURVE SMOOTH",
"-333 29 OFFCURVE",
"-364 82 OFFCURVE",
"-321 238 CURVE SMOOTH",
"-261 460 LINE",
"-252 515 OFFCURVE",
"-279 549 OFFCURVE",
"-340 562 CURVE",
"-351 520 LINE",
"-306 510 OFFCURVE",
"-302 484 OFFCURVE",
"-308 448 CURVE",
"-366 238 LINE SMOOTH",
"-418 50 OFFCURVE",
"-375 -13 OFFCURVE",
"-238 -13 CURVE SMOOTH"
);
},
{
closed = 1;
nodes = (
"-199 669 OFFCURVE",
"-184 681 OFFCURVE",
"-175 723 CURVE SMOOTH",
"-165 768 OFFCURVE",
"-179 784 OFFCURVE",
"-227 784 CURVE SMOOTH",
"-272 784 OFFCURVE",
"-286 772 OFFCURVE",
"-295 730 CURVE SMOOTH",
"-305 685 OFFCURVE",
"-292 669 OFFCURVE",
"-244 669 CURVE SMOOTH"
);
}
);
width = 545;
},
{
anchors = (
{
name = bottom;
position = "{213, 0}";
},
{
name = ogonek;
position = "{224, 9}";
},
{
name = top;
position = "{333, 562}";
}
);
layerId = "291433DC-531A-45CC-B814-57D397372F12";
paths = (
{
closed = 1;
nodes = (
"-173 -13 OFFCURVE",
"-127 15 OFFCURVE",
"-17 114 CURVE SMOOTH",
"87 206 OFFCURVE",
"500 197 OFFCURVE",
"500 442 CURVE SMOOTH",
"500 527 OFFCURVE",
"454 575 OFFCURVE",
"365 575 CURVE SMOOTH",
"184 575 OFFCURVE",
"66 414 OFFCURVE",
"66 162 CURVE SMOOTH",
"66 60 OFFCURVE",
"135 -13 OFFCURVE",
"231 -13 CURVE SMOOTH",
"313 -13 OFFCURVE",
"415 30 OFFCURVE",
"479 95 CURVE",
"438 169 LINE",
"391 114 OFFCURVE",
"310 74 OFFCURVE",
"245 74 CURVE SMOOTH",
"194 74 OFFCURVE",
"151 112 OFFCURVE",
"151 167 CURVE SMOOTH",
"151 368 OFFCURVE",
"236 491 OFFCURVE",
"355 491 CURVE SMOOTH",
"389 491 OFFCURVE",
"415 468 OFFCURVE",
"415 432 CURVE SMOOTH",
"415 251 OFFCURVE",
"55 270 OFFCURVE",
"-69 173 CURVE SMOOTH",
"-178 86 OFFCURVE",
"-196 71 OFFCURVE",
"-238 71 CURVE SMOOTH",
"-319 71 OFFCURVE",
"-346 106 OFFCURVE",
"-309 238 CURVE SMOOTH",
"-254 436 LINE SMOOTH",
"-234 506 OFFCURVE",
"-276 550 OFFCURVE",
"-358 562 CURVE",
"-380 478 LINE",
"-345 473 OFFCURVE",
"-334 456 OFFCURVE",
"-343 425 CURVE SMOOTH",
"-395 238 LINE SMOOTH",
"-448 51 OFFCURVE",
"-399 -13 OFFCURVE",
"-247 -13 CURVE SMOOTH"
);
},
{
closed = 1;
nodes = (
"-192 642 OFFCURVE",
"-167 661 OFFCURVE",
"-156 713 CURVE SMOOTH",
"-144 772 OFFCURVE",
"-166 798 OFFCURVE",
"-229 798 CURVE SMOOTH",
"-285 798 OFFCURVE",
"-310 779 OFFCURVE",
"-321 727 CURVE SMOOTH",
"-333 668 OFFCURVE",
"-310 642 OFFCURVE",
"-247 642 CURVE SMOOTH"
);
}
);
width = 545;
}
);
rightMetricsKey = e;
},
{
color = 4;
glyphname = i_l.liga;
lastChange = "2023-07-14 09:45:09 +0000";
layers = (
{
anchors = (
{
name = bottom;
position = "{204, 0}";
},
{
name = center;
position = "{301, 455}";
},
{
name = ogonek;
position = "{-267, 9}";
},
{
name = top;
position = "{373, 727}";
},
{
name = topright;
position = "{615, 727}";
}
);
layerId = "7C079D0C-96CD-4BD8-8800-0621C7635A78";
paths = (
{
closed = 1;
nodes = (
"69 -13 OFFCURVE",
"467 362 OFFCURVE",
"467 632 CURVE SMOOTH",
"467 696 OFFCURVE",
"434 740 OFFCURVE",
"379 740 CURVE SMOOTH",
"230 740 OFFCURVE",
"185 495 OFFCURVE",
"185 126 CURVE SMOOTH",
"185 43 OFFCURVE",
"232 -13 OFFCURVE",
"303 -13 CURVE SMOOTH",
"352 -13 OFFCURVE",
"411 22 OFFCURVE",
"450 73 CURVE",
"414 98 LINE",
"383 56 OFFCURVE",
"338 29 OFFCURVE",
"303 29 CURVE SMOOTH",
"259 29 OFFCURVE",
"230 79 OFFCURVE",
"230 154 CURVE SMOOTH",
"230 480 OFFCURVE",
"281 697 OFFCURVE",
"372 697 CURVE SMOOTH",
"404 697 OFFCURVE",
"422 671 OFFCURVE",
"422 632 CURVE SMOOTH",
"422 379 OFFCURVE",
"25 29 OFFCURVE",
"-238 29 CURVE SMOOTH",
"-333 29 OFFCURVE",
"-364 82 OFFCURVE",
"-321 238 CURVE SMOOTH",
"-261 460 LINE",
"-252 515 OFFCURVE",
"-279 549 OFFCURVE",
"-340 562 CURVE",
"-351 520 LINE",
"-306 510 OFFCURVE",
"-302 484 OFFCURVE",
"-308 448 CURVE",
"-366 238 LINE SMOOTH",
"-418 50 OFFCURVE",
"-375 -13 OFFCURVE",
"-238 -13 CURVE SMOOTH"
);
},
{
closed = 1;
nodes = (
"-199 669 OFFCURVE",
"-184 681 OFFCURVE",
"-175 723 CURVE SMOOTH",
"-165 768 OFFCURVE",
"-179 784 OFFCURVE",
"-227 784 CURVE SMOOTH",
"-272 784 OFFCURVE",
"-286 772 OFFCURVE",
"-295 730 CURVE SMOOTH",
"-305 685 OFFCURVE",
"-292 669 OFFCURVE",
"-244 669 CURVE SMOOTH"
);
}
);
width = 545;
},
{
anchors = (
{
name = bottom;
position = "{204, 0}";
},
{
name = center;
position = "{301, 455}";
},
{
name = ogonek;
position = "{-267, 9}";
},
{
name = top;
position = "{391, 727}";
},
{
name = topright;
position = "{615, 727}";
}
);
layerId = "291433DC-531A-45CC-B814-57D397372F12";
paths = (
{
closed = 1;
nodes = (
"100 -13 OFFCURVE",
"490 325 OFFCURVE",
"490 612 CURVE SMOOTH",
"490 691 OFFCURVE",
"445 740 OFFCURVE",
"373 740 CURVE SMOOTH",
"211 740 OFFCURVE",
"159 523 OFFCURVE",
"163 143 CURVE SMOOTH",
"164 50 OFFCURVE",
"215 -13 OFFCURVE",
"296 -13 CURVE SMOOTH",
"358 -13 OFFCURVE",
"433 32 OFFCURVE",
"477 101 CURVE",
"409 151 LINE",
"385 106 OFFCURVE",
"339 71 OFFCURVE",
"305 71 CURVE SMOOTH",
"275 71 OFFCURVE",
"252 116 OFFCURVE",
"249 181 CURVE SMOOTH",
"239 407 OFFCURVE",
"280 655 OFFCURVE",
"365 655 CURVE SMOOTH",
"391 655 OFFCURVE",
"401 641 OFFCURVE",
"401 606 CURVE SMOOTH",
"401 373 OFFCURVE",
"40 71 OFFCURVE",
"-238 71 CURVE SMOOTH",
"-319 71 OFFCURVE",
"-346 106 OFFCURVE",
"-309 238 CURVE SMOOTH",
"-254 436 LINE SMOOTH",
"-234 506 OFFCURVE",
"-276 550 OFFCURVE",
"-358 562 CURVE",
"-380 478 LINE",
"-345 473 OFFCURVE",
"-334 456 OFFCURVE",
"-343 425 CURVE SMOOTH",
"-395 238 LINE SMOOTH",
"-448 51 OFFCURVE",
"-399 -13 OFFCURVE",
"-247 -13 CURVE SMOOTH"
);
},
{
closed = 1;
nodes = (
"-192 642 OFFCURVE",
"-167 661 OFFCURVE",
"-156 713 CURVE SMOOTH",
"-144 772 OFFCURVE",
"-166 798 OFFCURVE",
"-229 798 CURVE SMOOTH",
"-285 798 OFFCURVE",
"-310 779 OFFCURVE",
"-321 727 CURVE SMOOTH",
"-333 668 OFFCURVE",
"-310 642 OFFCURVE",
"-247 642 CURVE SMOOTH"
);
}
);
width = 545;
}
);
rightMetricsKey = l;
},
{
color = 4;
glyphname = k_e.liga;
lastChange = "2023-07-14 09:45:09 +0000";
layers = (
{
anchors = (
{
name = bottom;
position = "{213, 0}";
},
{
name = ogonek;
position = "{233, 9}";
},
{
name = top;
position = "{333, 562}";
}
);
layerId = "7C079D0C-96CD-4BD8-8800-0621C7635A78";
paths = (
{
closed = 1;
nodes = (
"89 204 OFFCURVE",
"485 214 OFFCURVE",
"485 458 CURVE SMOOTH",
"485 540 OFFCURVE",
"436 575 OFFCURVE",
"365 575 CURVE SMOOTH",
"200 575 OFFCURVE",
"82 395 OFFCURVE",
"82 148 CURVE SMOOTH",
"82 53 OFFCURVE",
"147 -13 OFFCURVE",
"231 -13 CURVE SMOOTH",
"303 -13 OFFCURVE",
"389 22 OFFCURVE",
"447 75 CURVE",
"424 112 LINE",
"372 64 OFFCURVE",
"297 32 OFFCURVE",
"236 32 CURVE SMOOTH",
"176 32 OFFCURVE",
"127 78 OFFCURVE",
"127 145 CURVE SMOOTH",
"127 368 OFFCURVE",
"227 533 OFFCURVE",
"364 533 CURVE SMOOTH",
"403 533 OFFCURVE",
"439 509 OFFCURVE",
"439 458 CURVE SMOOTH",
"439 251 OFFCURVE",
"72 252 OFFCURVE",
"-46 133 CURVE SMOOTH",
"-124 55 OFFCURVE",
"-155 29 OFFCURVE",
"-173 29 CURVE SMOOTH",
"-202 29 OFFCURVE",
"-202 79 OFFCURVE",
"-202 155 CURVE SMOOTH",
"-202 190 OFFCURVE",
"-215 233 OFFCURVE",
"-234 261 CURVE",
"-111 277 OFFCURVE",
"-29 357 OFFCURVE",
"-29 462 CURVE SMOOTH",
"-29 529 OFFCURVE",
"-88 575 OFFCURVE",
"-159 575 CURVE SMOOTH",
"-277 575 OFFCURVE",
"-403 454 OFFCURVE",
"-445 273 CURVE",
"-401 264 LINE",
"-366 425 OFFCURVE",
"-259 533 OFFCURVE",
"-161 533 CURVE SMOOTH",
"-116 533 OFFCURVE",
"-75 503 OFFCURVE",
"-75 457 CURVE SMOOTH",
"-75 364 OFFCURVE",
"-156 301 OFFCURVE",
"-278 301 CURVE",
"-297 265 LINE",
"-269 238 OFFCURVE",
"-251 194 OFFCURVE",
"-251 152 CURVE SMOOTH",
"-251 53 OFFCURVE",
"-232 -13 OFFCURVE",
"-174 -13 CURVE SMOOTH",
"-132 -13 OFFCURVE",
"-106 13 OFFCURVE",
"-20 97 CURVE SMOOTH"
);
},
{
closed = 1;
nodes = (
"-456 0 LINE",
"-302 727 LINE",
"-347 727 LINE",
"-502 0 LINE"
);
}
);
width = 545;
},
{
anchors = (
{
name = bottom;
position = "{213, 0}";
},
{
name = ogonek;
position = "{224, 9}";
},
{
name = top;
position = "{333, 562}";
}
);
layerId = "291433DC-531A-45CC-B814-57D397372F12";
paths = (
{
closed = 1;
nodes = (
"94 198 OFFCURVE",
"500 197 OFFCURVE",
"500 442 CURVE SMOOTH",
"500 527 OFFCURVE",
"454 575 OFFCURVE",
"365 575 CURVE SMOOTH",
"184 575 OFFCURVE",
"66 414 OFFCURVE",
"66 162 CURVE SMOOTH",
"66 60 OFFCURVE",
"135 -13 OFFCURVE",
"231 -13 CURVE SMOOTH",
"313 -13 OFFCURVE",
"415 30 OFFCURVE",
"479 95 CURVE",
"438 169 LINE",
"391 114 OFFCURVE",
"310 74 OFFCURVE",
"245 74 CURVE SMOOTH",
"194 74 OFFCURVE",
"151 112 OFFCURVE",
"151 167 CURVE SMOOTH",
"151 368 OFFCURVE",
"236 491 OFFCURVE",
"355 491 CURVE SMOOTH",
"389 491 OFFCURVE",
"415 468 OFFCURVE",
"415 432 CURVE SMOOTH",
"415 251 OFFCURVE",
"47 278 OFFCURVE",
"-60 173 CURVE SMOOTH",
"-132 102 OFFCURVE",
"-148 71 OFFCURVE",
"-167 71 CURVE SMOOTH",
"-177 71 OFFCURVE",
"-186 109 OFFCURVE",
"-189 167 CURVE SMOOTH",
"-190 187 OFFCURVE",
"-195 220 OFFCURVE",
"-206 249 CURVE",
"-94 278 OFFCURVE",
"-19 361 OFFCURVE",
"-21 455 CURVE SMOOTH",
"-23 532 OFFCURVE",
"-85 584 OFFCURVE",
"-166 584 CURVE SMOOTH",
"-323 584 OFFCURVE",
"-440 453 OFFCURVE",
"-478 255 CURVE",
"-394 245 LINE",
"-365 398 OFFCURVE",
"-285 500 OFFCURVE",
"-176 500 CURVE SMOOTH",
"-144 500 OFFCURVE",
"-108 476 OFFCURVE",
"-106 441 CURVE SMOOTH",
"-103 366 OFFCURVE",
"-185 320 OFFCURVE",
"-297 325 CURVE",
"-334 259 LINE",
"-304 239 OFFCURVE",
"-281 197 OFFCURVE",
"-277 155 CURVE SMOOTH",
"-269 55 OFFCURVE",
"-237 -13 OFFCURVE",
"-183 -13 CURVE SMOOTH",
"-141 -13 OFFCURVE",
"-94 22 OFFCURVE",
"-11 100 CURVE SMOOTH"
);
},
{
closed = 1;
nodes = (
"-444 0 LINE",
"-289 727 LINE",
"-379 727 LINE",
"-533 0 LINE"
);
}
);
width = 545;
}
);
rightMetricsKey = e;
},
